<svg xmlns="http://www.w3.org/2000/svg" xmlns:xlink="http://www.w3.org/1999/xlink" width="200" zoomAndPan="magnify" viewBox="0 0 150 149.999998" height="200" preserveAspectRatio="xMidYMid meet" version="1.0"><defs><clipPath id="451ec74de6"><path d="M 46.855469 45 L 103.105469 45 L 103.105469 105 L 46.855469 105 Z M 46.855469 45 " clip-rule="nonzero"/></clipPath><clipPath id="b5cf208445"><path d="M 74 45 L 103.105469 45 L 103.105469 105 L 74 105 Z M 74 45 " clip-rule="nonzero"/></clipPath></defs><g clip-path="url(#451ec74de6)"><path fill="#e23237" d="M 46.855469 55.058594 L 74.59375 45.179688 L 103.058594 54.90625 L 98.460938 91.609375 L 74.59375 104.820312 L 51.113281 91.78125 Z M 46.855469 55.058594 " fill-opacity="1" fill-rule="nonzero"/></g><g clip-path="url(#b5cf208445)"><path fill="#b52e31" d="M 103.058594 54.90625 L 74.59375 45.179688 L 74.59375 104.820312 L 98.460938 91.609375 Z M 103.058594 54.90625 " fill-opacity="1" fill-rule="nonzero"/></g><path fill="#ffffff" d="M 74.636719 52.152344 L 57.351562 90.617188 L 63.800781 90.488281 L 67.285156 81.796875 L 82.742188 81.796875 L 86.527344 90.554688 L 92.679688 90.683594 Z M 74.679688 64.5 L 80.527344 76.71875 L 69.578125 76.71875 L 74.695312 64.5 Z M 74.679688 64.5 " fill-opacity="1" fill-rule="nonzero"/></svg>