<svg xmlns="http://www.w3.org/2000/svg" xmlns:xlink="http://www.w3.org/1999/xlink" width="200" zoomAndPan="magnify" viewBox="0 0 150 149.999998" height="200" preserveAspectRatio="xMidYMid meet" version="1.0"><path fill="#563d7c" d="M 45 97.261719 C 45 101.535156 48.464844 105 52.738281 105 L 97.261719 105 C 101.535156 105 105 101.535156 105 97.261719 L 105 52.738281 C 105 48.464844 101.535156 45 97.261719 45 L 52.738281 45 C 48.464844 45 45 48.464844 45 52.738281 Z M 45 97.261719 " fill-opacity="1" fill-rule="nonzero"/><path fill="#ffffff" d="M 69.882812 71.539062 L 69.882812 63.042969 L 77.359375 63.042969 C 78.074219 63.042969 78.757812 63.101562 79.421875 63.222656 C 80.082031 63.339844 80.667969 63.550781 81.175781 63.855469 C 81.683594 64.164062 82.09375 64.585938 82.398438 65.128906 C 82.703125 65.671875 82.855469 66.367188 82.855469 67.214844 C 82.855469 68.742188 82.398438 69.84375 81.480469 70.523438 C 80.566406 71.199219 79.394531 71.539062 77.96875 71.539062 Z M 61.890625 56.835938 L 61.890625 93.164062 L 79.496094 93.164062 C 81.125 93.164062 82.710938 92.960938 84.253906 92.550781 C 85.796875 92.148438 87.171875 91.519531 88.375 90.671875 C 89.582031 89.820312 90.535156 88.730469 91.25 87.390625 C 91.960938 86.046875 92.316406 84.464844 92.316406 82.632812 C 92.316406 80.359375 91.765625 78.417969 90.664062 76.808594 C 89.5625 75.195312 87.894531 74.066406 85.652344 73.421875 C 87.28125 72.640625 88.511719 71.640625 89.339844 70.421875 C 90.171875 69.199219 90.589844 67.671875 90.589844 65.839844 C 90.589844 64.144531 90.308594 62.722656 89.75 61.566406 C 89.1875 60.414062 88.402344 59.488281 87.382812 58.792969 C 86.363281 58.097656 85.144531 57.597656 83.722656 57.292969 C 82.296875 56.988281 80.71875 56.835938 78.988281 56.835938 Z M 69.882812 86.957031 L 69.882812 76.984375 L 78.582031 76.984375 C 80.3125 76.984375 81.699219 77.382812 82.753906 78.179688 C 83.804688 78.976562 84.332031 80.308594 84.332031 82.175781 C 84.332031 83.125 84.167969 83.902344 83.847656 84.515625 C 83.523438 85.125 83.09375 85.609375 82.550781 85.964844 C 82.007812 86.320312 81.378906 86.574219 80.667969 86.726562 C 79.953125 86.878906 79.210938 86.957031 78.429688 86.957031 Z M 69.882812 86.957031 " fill-opacity="1" fill-rule="nonzero"/></svg>