<svg xmlns="http://www.w3.org/2000/svg" xmlns:xlink="http://www.w3.org/1999/xlink" width="200" zoomAndPan="magnify" viewBox="0 0 150 149.999998" height="200" preserveAspectRatio="xMidYMid meet" version="1.0"><defs><clipPath id="dd45d2de8a"><path d="M 48.75 45 L 101.25 45 L 101.25 105 L 48.75 105 Z M 48.75 45 " clip-rule="nonzero"/></clipPath></defs><g clip-path="url(#dd45d2de8a)"><path fill="#e44d26" d="M 53.566406 98.777344 L 48.796875 45.28125 L 101.203125 45.28125 L 96.429688 98.765625 L 74.96875 104.71875 Z M 53.566406 98.777344 " fill-opacity="1" fill-rule="nonzero"/></g><path fill="#f16529" d="M 75 100.171875 L 92.34375 95.363281 L 96.421875 49.65625 L 75 49.65625 Z M 75 100.171875 " fill-opacity="1" fill-rule="nonzero"/><path fill="#ebebeb" d="M 75 69.496094 L 66.316406 69.496094 L 65.71875 62.777344 L 75 62.777344 L 75 56.21875 L 58.550781 56.21875 L 58.707031 57.976562 L 60.316406 76.058594 L 75 76.058594 Z M 75 86.535156 L 74.96875 86.542969 L 67.664062 84.570312 L 67.195312 79.335938 L 60.613281 79.335938 L 61.53125 89.636719 L 74.96875 93.367188 L 75 93.359375 Z M 75 86.535156 " fill-opacity="1" fill-rule="nonzero"/><path fill="#ffffff" d="M 74.976562 69.496094 L 74.976562 76.058594 L 83.054688 76.058594 L 82.292969 84.566406 L 74.976562 86.539062 L 74.976562 93.363281 L 88.425781 89.636719 L 88.523438 88.527344 L 90.066406 71.253906 L 90.226562 69.496094 Z M 74.976562 56.21875 L 74.976562 62.777344 L 90.824219 62.777344 L 90.957031 61.304688 L 91.253906 57.976562 L 91.410156 56.214844 Z M 74.976562 56.21875 " fill-opacity="1" fill-rule="nonzero"/></svg>