<svg xmlns="http://www.w3.org/2000/svg" xmlns:xlink="http://www.w3.org/1999/xlink" width="200" zoomAndPan="magnify" viewBox="0 0 150 149.999998" height="200" preserveAspectRatio="xMidYMid meet" version="1.0"><defs><clipPath id="d36ba4c818"><path d="M 45 45 L 105 45 L 105 105 L 45 105 Z M 45 45 " clip-rule="nonzero"/></clipPath><clipPath id="f8a8fd1fc5"><path d="M 45 45 L 76 45 L 76 105 L 45 105 Z M 45 45 " clip-rule="nonzero"/></clipPath></defs><g clip-path="url(#d36ba4c818)"><path fill="#ffc44d" d="M 47.234375 44.859375 C 46.632812 44.859375 46.0625 45.117188 45.664062 45.566406 C 45.265625 46.019531 45.082031 46.617188 45.15625 47.214844 L 50.738281 91.863281 C 50.824219 92.558594 51.253906 93.164062 51.878906 93.476562 L 74.203125 104.640625 C 74.792969 104.933594 75.488281 104.933594 76.074219 104.640625 L 98.402344 93.476562 C 99.027344 93.164062 99.457031 92.558594 99.542969 91.863281 L 105.125 47.214844 C 105.199219 46.617188 105.011719 46.019531 104.617188 45.566406 C 104.21875 45.117188 103.648438 44.859375 103.046875 44.859375 Z M 47.234375 44.859375 " fill-opacity="1" fill-rule="nonzero"/></g><g clip-path="url(#f8a8fd1fc5)"><path fill="#e5b045" d="M 75.140625 44.859375 L 75.140625 104.859375 C 74.820312 104.859375 74.5 104.785156 74.203125 104.640625 L 51.878906 93.476562 C 51.253906 93.164062 50.824219 92.558594 50.738281 91.863281 L 45.15625 47.214844 C 45.082031 46.617188 45.265625 46.019531 45.664062 45.566406 C 46.0625 45.117188 46.632812 44.859375 47.234375 44.859375 Z M 75.140625 44.859375 " fill-opacity="1" fill-rule="evenodd"/></g><path fill="#cfd8dc" d="M 70.953125 53.234375 C 72.109375 53.234375 73.046875 54.167969 73.046875 55.324219 L 73.046875 91.605469 C 73.046875 92.351562 72.648438 93.039062 72.003906 93.414062 C 71.359375 93.789062 70.5625 93.792969 69.914062 93.421875 L 60.148438 87.839844 C 59.144531 87.265625 58.796875 85.988281 59.371094 84.984375 C 59.941406 83.980469 61.222656 83.632812 62.226562 84.207031 L 68.859375 87.996094 L 68.859375 55.324219 C 68.859375 54.167969 69.796875 53.234375 70.953125 53.234375 Z M 70.953125 53.234375 " fill-opacity="1" fill-rule="evenodd"/><path fill="#eceff1" d="M 77.234375 55.324219 C 77.234375 54.167969 78.171875 53.234375 79.324219 53.234375 L 93.28125 53.234375 C 94.433594 53.234375 95.371094 54.167969 95.371094 55.324219 C 95.371094 56.480469 94.433594 57.417969 93.28125 57.417969 L 81.417969 57.417969 L 81.417969 70.855469 L 91.429688 68.632812 C 92.082031 68.484375 92.765625 68.660156 93.265625 69.101562 C 93.769531 69.542969 94.027344 70.199219 93.96875 70.863281 L 92.574219 86.210938 C 92.507812 86.933594 92.074219 87.570312 91.425781 87.894531 L 80.261719 93.476562 C 79.226562 93.992188 77.972656 93.574219 77.453125 92.539062 C 76.9375 91.507812 77.355469 90.25 78.390625 89.734375 L 88.511719 84.671875 L 89.539062 73.339844 L 79.78125 75.507812 C 79.160156 75.644531 78.511719 75.496094 78.015625 75.097656 C 77.519531 74.699219 77.234375 74.101562 77.234375 73.464844 Z M 77.234375 55.324219 " fill-opacity="1" fill-rule="evenodd"/></svg>