<svg xmlns="http://www.w3.org/2000/svg" xmlns:xlink="http://www.w3.org/1999/xlink" width="200" zoomAndPan="magnify" viewBox="0 0 150 149.999998" height="200" preserveAspectRatio="xMidYMid meet" version="1.0"><path fill="#00d8ff" d="M 94.3125 65.738281 C 93.671875 65.519531 93.027344 65.316406 92.378906 65.128906 C 92.488281 64.679688 92.589844 64.238281 92.679688 63.800781 C 94.140625 56.660156 93.183594 50.90625 89.921875 49.011719 C 86.792969 47.195312 81.675781 49.089844 76.507812 53.617188 C 76 54.0625 75.5 54.523438 75.015625 54.996094 C 74.6875 54.683594 74.359375 54.375 74.019531 54.074219 C 68.605469 49.230469 63.175781 47.191406 59.917969 49.089844 C 56.789062 50.914062 55.867188 56.320312 57.179688 63.089844 C 57.3125 63.761719 57.460938 64.425781 57.625 65.089844 C 56.855469 65.308594 56.113281 65.542969 55.40625 65.792969 C 49.054688 68.019531 45 71.515625 45 75.136719 C 45 78.878906 49.351562 82.632812 55.964844 84.90625 C 56.503906 85.089844 57.042969 85.261719 57.589844 85.417969 C 57.410156 86.132812 57.253906 86.851562 57.117188 87.574219 C 55.863281 94.222656 56.84375 99.503906 59.960938 101.316406 C 63.179688 103.183594 68.585938 101.261719 73.847656 96.632812 C 74.273438 96.253906 74.691406 95.867188 75.097656 95.472656 C 75.625 95.980469 76.164062 96.480469 76.71875 96.960938 C 81.816406 101.375 86.851562 103.160156 89.964844 101.34375 C 93.179688 99.46875 94.226562 93.796875 92.871094 86.894531 C 92.761719 86.351562 92.644531 85.816406 92.511719 85.28125 C 92.890625 85.167969 93.261719 85.050781 93.625 84.929688 C 100.5 82.636719 104.972656 78.929688 104.972656 75.136719 C 104.972656 71.5 100.789062 67.984375 94.3125 65.738281 Z M 92.820312 82.480469 C 92.492188 82.589844 92.15625 82.695312 91.8125 82.796875 C 91.054688 80.378906 90.027344 77.808594 88.773438 75.148438 C 89.972656 72.554688 90.957031 70.015625 91.695312 67.613281 C 92.308594 67.789062 92.902344 67.980469 93.476562 68.179688 C 99.027344 70.101562 102.410156 72.945312 102.410156 75.136719 C 102.410156 77.46875 98.757812 80.5 92.820312 82.480469 Z M 90.355469 87.394531 C 90.957031 90.445312 91.042969 93.207031 90.644531 95.363281 C 90.289062 97.300781 89.570312 98.59375 88.679688 99.109375 C 86.789062 100.210938 82.75 98.78125 78.390625 95.003906 C 77.875 94.558594 77.371094 94.097656 76.882812 93.621094 C 78.570312 91.757812 80.261719 89.597656 81.910156 87.195312 C 84.808594 86.933594 87.546875 86.511719 90.03125 85.933594 C 90.152344 86.417969 90.257812 86.90625 90.355469 87.394531 Z M 65.445312 98.921875 C 63.601562 99.578125 62.128906 99.597656 61.238281 99.082031 C 59.347656 97.980469 58.5625 93.742188 59.632812 88.054688 C 59.761719 87.382812 59.90625 86.714844 60.074219 86.050781 C 62.527344 86.597656 65.25 86.988281 68.15625 87.226562 C 69.8125 89.578125 71.550781 91.738281 73.304688 93.628906 C 72.929688 93.992188 72.550781 94.347656 72.160156 94.691406 C 69.832031 96.738281 67.5 98.191406 65.445312 98.921875 Z M 56.796875 82.464844 C 53.871094 81.460938 51.457031 80.152344 49.800781 78.726562 C 48.3125 77.441406 47.5625 76.167969 47.5625 75.136719 C 47.5625 72.9375 50.816406 70.132812 56.25 68.226562 C 56.90625 67.996094 57.597656 67.777344 58.3125 67.574219 C 59.0625 70.03125 60.046875 72.601562 61.234375 75.199219 C 60.03125 77.835938 59.035156 80.445312 58.277344 82.933594 C 57.777344 82.789062 57.285156 82.632812 56.796875 82.464844 Z M 59.695312 62.59375 C 58.570312 56.796875 59.316406 52.421875 61.199219 51.324219 C 63.207031 50.152344 67.644531 51.820312 72.320312 56 C 72.625 56.273438 72.925781 56.554688 73.21875 56.835938 C 71.476562 58.722656 69.753906 60.867188 68.109375 63.203125 C 65.289062 63.464844 62.589844 63.886719 60.109375 64.453125 C 59.953125 63.839844 59.816406 63.21875 59.695312 62.59375 Z M 85.566406 69.023438 C 84.980469 68.003906 84.371094 67 83.742188 66.003906 C 85.65625 66.25 87.488281 66.574219 89.210938 66.96875 C 88.695312 68.636719 88.050781 70.378906 87.289062 72.167969 C 86.738281 71.109375 86.160156 70.0625 85.566406 69.023438 Z M 75.015625 58.679688 C 76.199219 59.96875 77.382812 61.410156 78.546875 62.96875 C 76.183594 62.859375 73.816406 62.855469 71.457031 62.96875 C 72.621094 61.421875 73.816406 59.984375 75.015625 58.679688 Z M 64.398438 69.042969 C 63.808594 70.070312 63.246094 71.109375 62.707031 72.164062 C 61.960938 70.382812 61.320312 68.632812 60.800781 66.941406 C 62.511719 66.554688 64.335938 66.238281 66.238281 66 C 65.601562 67 64.988281 68.015625 64.398438 69.042969 Z M 66.292969 84.457031 C 64.328125 84.234375 62.476562 83.9375 60.765625 83.5625 C 61.292969 81.839844 61.945312 80.050781 62.707031 78.230469 C 63.25 79.285156 63.816406 80.328125 64.410156 81.355469 C 65.015625 82.410156 65.644531 83.445312 66.292969 84.457031 Z M 75.085938 91.773438 C 73.871094 90.457031 72.660156 88.996094 71.476562 87.425781 C 72.625 87.472656 73.796875 87.496094 74.988281 87.496094 C 76.210938 87.496094 77.417969 87.46875 78.605469 87.414062 C 77.4375 89.011719 76.261719 90.472656 75.085938 91.773438 Z M 87.316406 78.136719 C 88.117188 79.976562 88.792969 81.757812 89.328125 83.449219 C 87.589844 83.847656 85.710938 84.171875 83.734375 84.410156 C 84.367188 83.398438 84.980469 82.375 85.574219 81.335938 C 86.179688 80.285156 86.757812 79.21875 87.316406 78.136719 Z M 83.355469 80.050781 C 82.449219 81.636719 81.488281 83.195312 80.480469 84.722656 C 78.652344 84.851562 76.820312 84.917969 74.988281 84.917969 C 73.121094 84.917969 71.304688 84.859375 69.558594 84.742188 C 68.523438 83.222656 67.542969 81.660156 66.625 80.0625 C 65.710938 78.472656 64.859375 76.851562 64.066406 75.199219 C 64.855469 73.542969 65.707031 71.921875 66.617188 70.332031 C 67.527344 68.742188 68.5 67.1875 69.527344 65.671875 C 71.308594 65.535156 73.136719 65.464844 74.988281 65.464844 C 76.84375 65.464844 78.675781 65.535156 80.457031 65.671875 C 81.476562 67.1875 82.4375 68.734375 83.347656 70.316406 C 84.261719 71.902344 85.125 73.519531 85.933594 75.160156 C 85.132812 76.820312 84.273438 78.449219 83.355469 80.050781 Z M 88.640625 51.246094 C 90.648438 52.414062 91.429688 57.113281 90.167969 63.28125 C 90.089844 63.675781 89.996094 64.074219 89.898438 64.480469 C 87.410156 63.902344 84.710938 63.472656 81.878906 63.207031 C 80.234375 60.84375 78.523438 58.695312 76.8125 56.835938 C 77.261719 56.398438 77.71875 55.976562 78.191406 55.5625 C 82.617188 51.683594 86.757812 50.152344 88.640625 51.246094 Z M 74.988281 69.746094 C 77.945312 69.746094 80.34375 72.160156 80.34375 75.136719 C 80.34375 78.113281 77.945312 80.527344 74.988281 80.527344 C 72.027344 80.527344 69.632812 78.113281 69.632812 75.136719 C 69.632812 72.160156 72.027344 69.746094 74.988281 69.746094 Z M 74.988281 69.746094 " fill-opacity="1" fill-rule="nonzero"/></svg>