<svg xmlns="http://www.w3.org/2000/svg" xmlns:xlink="http://www.w3.org/1999/xlink" width="200" zoomAndPan="magnify" viewBox="0 0 150 149.999998" height="200" preserveAspectRatio="xMidYMid meet" version="1.0"><defs><clipPath id="bd5ed25058"><path d="M 56.324219 45 L 65 45 L 65 53 L 56.324219 53 Z M 56.324219 45 " clip-rule="nonzero"/></clipPath><clipPath id="9b928e49c8"><path d="M 86 92 L 90.074219 92 L 90.074219 96 L 86 96 Z M 86 92 " clip-rule="nonzero"/></clipPath><clipPath id="468d939918"><path d="M 88 82 L 90.074219 82 L 90.074219 93 L 88 93 Z M 88 82 " clip-rule="nonzero"/></clipPath></defs><path fill="#000000" d="M 70.21875 96.265625 C 70.660156 96.113281 71.128906 96.019531 71.527344 95.796875 C 72.039062 95.511719 71.925781 95.535156 71.582031 95.105469 C 71.351562 94.816406 71.242188 94.835938 71.027344 94.984375 C 70.804688 95.136719 70.601562 95.316406 70.394531 95.484375 C 70.691406 95.832031 70.214844 95.863281 70.21875 96.265625 M 69.632812 93.109375 C 69.070312 93.597656 68.550781 94.046875 68.039062 94.503906 C 67.933594 94.597656 67.757812 94.785156 67.785156 94.824219 C 68.015625 95.179688 68.246094 95.554688 68.558594 95.832031 C 68.644531 95.910156 69.023438 95.722656 69.226562 95.597656 C 69.472656 95.453125 69.6875 95.246094 69.902344 95.050781 C 70.417969 94.585938 70.558594 94.140625 70.273438 93.601562 C 70.164062 93.390625 69.863281 93.28125 69.632812 93.109375 M 73.382812 95.953125 C 73.230469 95.988281 73.027344 95.972656 72.9375 96.0625 C 72.671875 96.332031 72.449219 96.640625 72.207031 96.9375 C 72.179688 96.964844 72.164062 96.984375 72.152344 96.996094 C 71.8125 97.125 71.46875 97.253906 71.128906 97.382812 C 71.113281 97.355469 71.097656 97.324219 71.082031 97.296875 C 71.746094 96.710938 72.410156 96.128906 73.078125 95.542969 C 73.03125 95.476562 72.988281 95.40625 72.941406 95.339844 C 72.269531 95.6875 71.59375 96.039062 70.917969 96.386719 C 70.703125 96.496094 70.316406 96.5625 70.285156 96.707031 C 70.183594 97.195312 69.871094 97.109375 69.554688 97.050781 L 69.554688 97.585938 C 69.789062 97.695312 70.023438 97.761719 70.203125 97.902344 C 70.71875 98.300781 71.234375 98.703125 71.707031 99.152344 C 72.039062 99.472656 72.320312 99.433594 72.582031 99.132812 C 72.890625 98.777344 73.152344 98.382812 73.433594 98.007812 C 73.351562 98.25 73.269531 98.496094 73.1875 98.738281 C 73.238281 98.761719 73.292969 98.785156 73.34375 98.804688 C 74.132812 97.402344 74.921875 96 75.710938 94.597656 C 75.691406 94.578125 75.667969 94.558594 75.644531 94.539062 C 75.421875 94.785156 75.199219 95.03125 74.976562 95.277344 C 75.136719 94.949219 75.292969 94.621094 75.480469 94.234375 C 74.410156 94.441406 73.863281 95.160156 73.367188 95.9375 Z M 76.65625 92.347656 C 76.796875 92.308594 76.9375 92.269531 77.152344 92.210938 C 76.890625 92.765625 76.644531 93.292969 76.433594 93.746094 L 77.265625 93.746094 C 77.300781 93.257812 77.332031 92.761719 77.355469 92.4375 C 78.144531 92.210938 78.769531 91.960938 79.414062 91.863281 C 80.035156 91.773438 80.679688 91.8125 81.3125 91.855469 C 81.699219 91.882812 82.078125 92.019531 82.511719 92.121094 C 82.007812 92.910156 81.226562 93.023438 80.511719 93.257812 C 80.410156 92.828125 79.980469 92.539062 79.59375 92.652344 C 79.058594 92.804688 78.515625 92.953125 77.992188 93.144531 C 77.777344 93.222656 77.605469 93.414062 77.34375 93.605469 C 78.308594 94.039062 79.089844 93.507812 79.925781 93.527344 C 79.820312 93.667969 79.722656 93.800781 79.582031 93.988281 C 80.703125 94.132812 81.613281 93.820312 82.453125 93.199219 C 82.855469 92.902344 83.285156 92.636719 83.707031 92.355469 L 83.695312 92.339844 C 83.460938 93.074219 83.03125 93.710938 82.332031 94.011719 C 81.136719 94.523438 79.890625 94.917969 78.664062 95.363281 C 78.890625 95.207031 79.113281 95.046875 79.339844 94.890625 C 79.320312 94.839844 79.296875 94.792969 79.273438 94.742188 C 79.078125 94.78125 78.875 94.800781 78.683594 94.867188 C 78.476562 94.933594 78.292969 95.066406 78.085938 95.128906 C 77.539062 95.289062 77.382812 95.175781 77.355469 94.617188 C 77.347656 94.371094 77.355469 94.125 77.355469 93.878906 C 77.304688 93.839844 77.25 93.800781 77.199219 93.761719 C 76.917969 93.925781 76.585938 94.035156 76.371094 94.261719 C 76.050781 94.597656 75.777344 95 75.546875 95.40625 C 74.832031 96.667969 74.183594 97.96875 73.421875 99.199219 C 73.152344 99.640625 73.339844 99.910156 73.421875 100.355469 C 73.605469 100.148438 73.71875 100.019531 73.832031 99.890625 C 73.863281 99.90625 73.898438 99.925781 73.929688 99.941406 C 73.625 100.605469 73.316406 101.269531 73.011719 101.933594 C 73.058594 101.953125 73.109375 101.972656 73.160156 101.992188 C 74.050781 101 74.988281 100.027344 74.707031 98.46875 C 74.773438 98.546875 74.808594 98.589844 74.851562 98.636719 C 74.964844 98.390625 75.074219 98.152344 75.234375 97.804688 C 75.960938 98.605469 76.902344 99.019531 77.394531 99.953125 C 77.566406 100.273438 77.726562 100.984375 78.40625 100.445312 C 78.433594 100.421875 78.515625 100.449219 78.5625 100.46875 C 79.089844 100.703125 79.613281 100.9375 80.140625 101.175781 C 80.722656 101.4375 81.285156 101.671875 81.972656 101.523438 C 82.28125 101.457031 82.695312 101.621094 82.992188 101.792969 C 83.632812 102.167969 84.292969 102.347656 85.027344 102.28125 L 85.011719 102.273438 C 84.761719 102.394531 84.511719 102.519531 84.300781 102.621094 C 84.222656 102.941406 84.140625 103.269531 84.0625 103.597656 C 84.011719 103.59375 83.957031 103.59375 83.90625 103.589844 C 83.976562 103.652344 84.046875 103.714844 84.246094 103.890625 C 83.691406 103.828125 83.21875 103.902344 82.894531 103.71875 C 82.277344 103.367188 81.671875 103.140625 80.953125 103.085938 C 80.5 103.050781 80.050781 102.820312 79.625 102.625 C 78.996094 102.339844 78.40625 101.882812 77.851562 102.355469 C 77.605469 102.105469 77.453125 101.8125 77.261719 101.785156 C 76.59375 101.695312 76.449219 101.125 76.125 100.710938 C 75.765625 100.25 75.371094 99.8125 74.992188 99.363281 C 74.933594 99.390625 74.875 99.414062 74.816406 99.441406 C 74.753906 99.84375 74.6875 100.25 74.601562 100.792969 C 74.800781 100.636719 74.886719 100.570312 74.953125 100.515625 C 75.277344 100.789062 75.601562 101.070312 75.933594 101.351562 C 76.527344 101.855469 76.863281 102.679688 77.917969 102.6875 C 77.421875 103.3125 77.722656 103.492188 78.179688 103.632812 C 78.488281 103.726562 78.796875 103.863281 79.074219 104.03125 C 79.789062 104.46875 80.570312 104.621094 81.398438 104.667969 C 81.660156 104.683594 81.90625 104.882812 82.164062 105 L 76.007812 105 C 75.863281 104.316406 75.738281 103.625 75.566406 102.949219 C 75.417969 102.363281 75.21875 101.789062 75.042969 101.210938 C 74.753906 101.535156 74.613281 101.867188 74.449219 102.183594 C 73.949219 103.125 73.4375 104.0625 72.933594 105 L 69.304688 105 C 69.183594 103.964844 69.0625 102.925781 68.960938 102.058594 C 69.042969 102.21875 69.203125 102.535156 69.367188 102.851562 C 69.414062 102.832031 69.460938 102.8125 69.507812 102.792969 L 69.507812 102.222656 C 69.914062 102.582031 70.304688 102.859375 70.601562 103.214844 C 70.746094 103.386719 70.78125 103.714844 70.742188 103.949219 C 70.707031 104.164062 70.5 104.351562 70.285156 104.675781 C 70.773438 104.507812 71.179688 104.976562 71.480469 104.425781 C 71.707031 104.015625 72.042969 103.664062 72.265625 103.25 C 72.511719 102.789062 72.703125 102.292969 72.867188 101.792969 C 72.914062 101.660156 72.8125 101.351562 72.707031 101.316406 C 72.097656 101.105469 72.128906 100.519531 71.90625 100.078125 C 71.792969 99.855469 71.671875 99.632812 71.554688 99.410156 C 71.496094 99.429688 71.441406 99.449219 71.382812 99.46875 C 71.441406 99.886719 71.503906 100.308594 71.5625 100.726562 C 71.433594 100.515625 71.335938 100.300781 71.265625 100.078125 C 71.039062 99.382812 70.859375 98.648438 69.820312 98.75 L 69.820312 99.519531 C 69.730469 99.5 69.660156 99.480469 69.484375 99.441406 C 69.691406 100.03125 69.757812 100.632812 70.078125 101.023438 C 70.382812 101.382812 70.371094 101.734375 70.417969 102.125 C 70.238281 101.898438 70.058594 101.671875 69.914062 101.496094 C 69.695312 101.460938 69.476562 101.496094 69.355469 101.402344 C 68.835938 100.988281 68.371094 100.511719 68.257812 99.828125 C 68.078125 98.71875 67.945312 97.601562 67.78125 96.492188 C 67.734375 96.171875 67.695312 95.839844 67.574219 95.546875 C 67.230469 94.695312 67.328125 94.300781 68.101562 93.769531 C 68.3125 93.625 68.554688 93.515625 68.742188 93.347656 C 69.046875 93.074219 69.316406 92.765625 69.605469 92.464844 C 70.828125 92.859375 72.144531 93.300781 73.46875 93.695312 C 73.972656 93.847656 74.503906 93.921875 75.03125 93.972656 C 75.921875 94.066406 76.847656 93.121094 76.65625 92.347656 " fill-opacity="1" fill-rule="nonzero"/><path fill="#000000" d="M 68.230469 90.453125 L 67.992188 90.375 C 67.878906 90.714844 67.765625 91.054688 67.652344 91.394531 C 67.734375 91.421875 67.820312 91.449219 67.902344 91.476562 C 68.011719 91.132812 68.121094 90.792969 68.230469 90.453125 M 68.449219 89.273438 C 68.558594 88.53125 68.667969 87.789062 68.773438 87.0625 C 68.613281 86.992188 68.488281 86.9375 68.335938 86.871094 C 68.246094 87.71875 68.15625 88.574219 68.054688 89.5625 C 68.277344 89.394531 68.371094 89.324219 68.464844 89.253906 C 68.410156 89.914062 68.351562 90.574219 68.292969 91.230469 C 68.347656 91.242188 68.398438 91.253906 68.453125 91.265625 C 68.597656 91.019531 68.757812 90.78125 68.882812 90.527344 C 69.1875 89.894531 69.464844 89.25 69.777344 88.621094 C 69.972656 88.226562 70.214844 87.855469 70.433594 87.472656 C 70.386719 87.425781 70.339844 87.378906 70.292969 87.332031 C 70.085938 87.480469 69.878906 87.632812 69.691406 87.773438 C 69.738281 87.566406 69.796875 87.3125 69.878906 86.976562 C 69.078125 87.234375 68.941406 87.84375 68.757812 88.421875 C 68.667969 88.707031 68.554688 88.988281 68.449219 89.273438 M 71.074219 88.757812 C 70.65625 89.324219 70.238281 89.886719 69.824219 90.453125 C 69.648438 90.695312 69.476562 90.941406 69.210938 91.324219 C 69.246094 91.042969 69.257812 90.933594 69.273438 90.820312 C 69.21875 90.792969 69.167969 90.769531 69.117188 90.742188 C 68.457031 91.921875 67.800781 93.101562 67.144531 94.28125 C 67.082031 94.253906 67.023438 94.226562 66.960938 94.199219 C 67.304688 93.421875 67.644531 92.640625 67.984375 91.863281 C 67.945312 91.832031 67.90625 91.804688 67.871094 91.773438 C 67.6875 92.003906 67.441406 92.210938 67.335938 92.472656 C 66.269531 95.160156 65.210938 97.847656 64.179688 100.550781 C 63.785156 101.578125 63.46875 102.632812 63.125 103.679688 C 63.097656 103.765625 63.128906 103.871094 63.136719 103.96875 C 63.183594 103.980469 63.234375 103.988281 63.285156 104 C 63.40625 103.605469 63.523438 103.214844 63.617188 102.910156 C 63.710938 103.542969 63.816406 104.273438 63.921875 105 L 62.273438 105 C 62.535156 104.34375 62.789062 103.683594 63.050781 103.03125 C 63.710938 101.386719 64.417969 99.761719 65.027344 98.101562 C 65.847656 95.867188 66.601562 93.609375 67.367188 91.355469 C 67.539062 90.847656 67.683594 90.320312 67.777344 89.789062 C 67.859375 89.332031 67.855469 88.859375 67.886719 88.394531 C 67.910156 88.105469 67.851562 87.785156 67.964844 87.539062 C 68.433594 86.507812 68.230469 85.464844 68.042969 84.4375 C 67.894531 83.621094 67.820312 82.839844 68.074219 82.027344 C 68.1875 81.652344 68.289062 81.230469 67.898438 80.867188 C 67.792969 80.765625 67.914062 80.429688 67.933594 80.199219 C 67.457031 80.027344 66.9375 79.859375 66.4375 79.648438 C 66.105469 79.507812 65.960938 79.277344 66.070312 78.863281 C 66.203125 78.378906 66.152344 77.84375 66.316406 77.371094 C 66.472656 76.917969 66.800781 76.519531 67.144531 76.148438 C 66.492188 76.84375 66.417969 77.734375 66.179688 78.71875 C 66.847656 78.519531 67.386719 78.363281 67.929688 78.203125 C 67.832031 78.339844 67.734375 78.476562 67.636719 78.613281 C 67.691406 78.664062 67.746094 78.71875 67.800781 78.769531 C 68.125 78.527344 68.445312 78.28125 68.769531 78.035156 C 68.726562 77.964844 68.679688 77.894531 68.636719 77.828125 C 68.386719 77.960938 68.136719 78.097656 67.886719 78.234375 C 68.230469 77.921875 68.53125 77.539062 68.929688 77.324219 C 69.316406 77.113281 69.800781 77.070312 70.273438 76.996094 C 69.492188 77.824219 68.324219 78.269531 67.800781 79.601562 C 68.195312 79.449219 68.476562 79.363281 68.734375 79.234375 C 68.976562 79.113281 69.199219 78.945312 69.511719 78.875 C 68.941406 79.328125 68.964844 79.898438 69.15625 80.40625 C 68.882812 80.515625 68.714844 80.582031 68.546875 80.648438 C 68.648438 80.804688 68.738281 80.972656 68.863281 81.109375 C 68.957031 81.214844 69.085938 81.316406 69.214844 81.359375 C 69.683594 81.519531 69.917969 81.835938 69.964844 82.269531 C 69.710938 82.253906 69.363281 82.128906 69.242188 82.242188 C 68.949219 82.511719 68.820312 82.898438 69.027344 83.320312 C 69.097656 83.457031 69.367188 83.644531 69.015625 83.785156 C 69.125 83.96875 69.199219 84.1875 69.347656 84.324219 C 69.726562 84.667969 70.152344 84.953125 70.523438 85.300781 C 70.714844 85.476562 70.828125 85.730469 70.972656 85.945312 C 70.675781 85.683594 70.40625 85.382812 70.078125 85.171875 C 69.347656 84.699219 68.484375 84.382812 68.148438 83.453125 C 68.085938 84.207031 68.113281 84.90625 68.835938 85.347656 C 69.316406 85.640625 69.660156 86.257812 70.378906 85.972656 C 70.402344 85.964844 70.453125 86.035156 70.484375 86.03125 C 70.644531 86.003906 70.804688 85.964844 70.960938 85.929688 C 71.554688 85.699219 72.179688 85.523438 72.730469 85.214844 C 73.203125 84.941406 73.589844 84.515625 73.96875 84.199219 C 73.933594 84.328125 73.867188 84.558594 73.800781 84.785156 C 73.847656 84.808594 73.890625 84.828125 73.933594 84.847656 C 74.144531 84.484375 74.410156 84.140625 74.558594 83.753906 C 74.945312 82.753906 75.5 81.898438 76.25 81.121094 C 76.605469 80.75 76.761719 80.136719 76.886719 79.605469 C 77.203125 78.304688 77.445312 76.988281 77.722656 75.675781 C 77.738281 75.609375 77.78125 75.546875 77.875 75.496094 C 77.621094 76.761719 77.367188 78.03125 77.113281 79.296875 C 77.074219 79.492188 77.035156 79.691406 76.984375 79.882812 C 76.8125 80.539062 76.585938 81.117188 76.113281 81.683594 C 75.46875 82.460938 75.003906 83.421875 74.617188 84.371094 C 74.273438 85.207031 73.847656 85.839844 72.96875 86.195312 C 71.429688 86.816406 70.3125 87.902344 69.671875 89.441406 C 69.550781 89.734375 69.480469 90.046875 69.460938 90.390625 C 70.214844 89.316406 70.816406 88.136719 71.953125 87.425781 C 71.664062 87.867188 71.367188 88.3125 71.074219 88.757812 " fill-opacity="1" fill-rule="nonzero"/><path fill="#000000" d="M 65.089844 100.3125 C 64.71875 101.523438 65.621094 102.121094 66.183594 102.949219 C 66.289062 102.773438 66.355469 102.664062 66.4375 102.535156 C 66.582031 102.671875 66.695312 102.773438 66.804688 102.878906 C 66.320312 101.972656 66.070312 100.914062 65.089844 100.3125 M 65.460938 105 C 65.300781 103.851562 65.148438 102.703125 64.984375 101.558594 C 64.824219 100.449219 64.761719 99.355469 65.421875 98.359375 C 65.488281 98.265625 65.585938 98.191406 65.730469 98.039062 C 65.707031 98.289062 65.691406 98.445312 65.679688 98.597656 C 65.710938 98.613281 65.742188 98.628906 65.773438 98.644531 C 65.890625 98.429688 66.011719 98.210938 66.074219 98.097656 C 66.320312 99.09375 66.589844 100.167969 66.859375 101.242188 C 66.84375 101.25 66.828125 101.257812 66.8125 101.265625 C 66.59375 100.882812 66.371094 100.5 66.148438 100.117188 C 66.09375 100.144531 66.039062 100.171875 65.980469 100.195312 C 66.613281 101.796875 67.246094 103.398438 67.878906 105 Z M 65.460938 105 " fill-opacity="1" fill-rule="nonzero"/><path fill="#000000" d="M 60.28125 72.886719 C 60.351562 72.90625 60.425781 72.929688 60.496094 72.949219 C 60.699219 72.386719 61.253906 71.917969 60.917969 71.074219 C 60.675781 71.757812 60.480469 72.320312 60.28125 72.886719 M 62.789062 72.226562 C 62.792969 72.164062 62.796875 72.105469 62.804688 72.042969 C 62.414062 71.960938 62.023438 71.863281 61.625 71.8125 C 61.5625 71.804688 61.414062 71.992188 61.410156 72.097656 C 61.390625 72.460938 61.773438 72.714844 62.125 72.578125 C 62.355469 72.484375 62.566406 72.347656 62.789062 72.226562 M 61.609375 71.207031 C 62.160156 71.941406 63.007812 71.871094 63.757812 72.15625 C 63.375 71.457031 62.652344 70.9375 61.867188 70.769531 C 61.785156 70.902344 61.707031 71.039062 61.609375 71.207031 M 64.296875 70.9375 C 63.917969 70.613281 63.351562 70.523438 63.144531 69.964844 C 63.097656 69.832031 62.777344 69.757812 62.574219 69.734375 C 62.160156 69.683594 61.738281 69.679688 61.324219 69.660156 C 61.3125 70.226562 63.085938 71.070312 64.316406 70.925781 C 63.789062 71.855469 63.8125 71.957031 64.671875 72.558594 C 64.761719 72.621094 64.832031 72.703125 64.914062 72.777344 C 64.628906 72.628906 64.347656 72.464844 64.054688 72.332031 C 63.742188 72.195312 63.5 72.207031 63.574219 72.65625 C 63.238281 72.898438 62.90625 73.140625 62.542969 73.402344 C 62.574219 73.277344 62.601562 73.175781 62.628906 73.070312 C 60.71875 73.480469 60.335938 75.230469 59.410156 76.496094 C 59.640625 76.339844 59.78125 76.09375 59.988281 75.9375 C 60.355469 75.667969 60.761719 75.453125 61.152344 75.214844 L 61.140625 75.203125 C 60.707031 75.628906 60.207031 76.007812 59.863281 76.5 C 59.589844 76.886719 59.515625 77.410156 59.363281 77.828125 C 59.429688 77.785156 59.574219 77.683594 59.851562 77.488281 C 59.539062 78.039062 59.300781 78.449219 59.050781 78.882812 C 59.191406 78.933594 59.28125 78.933594 59.324219 78.980469 C 60.144531 79.921875 60.144531 79.921875 61.121094 79.144531 C 61.191406 79.089844 61.261719 79.027344 61.332031 78.972656 C 61.726562 78.644531 62.125 78.320312 62.519531 77.992188 C 62.554688 78.027344 62.585938 78.066406 62.621094 78.101562 C 62.105469 78.597656 61.59375 79.089844 60.960938 79.699219 C 61.992188 79.382812 62.703125 78.867188 63.332031 78.21875 C 63.28125 78.308594 63.230469 78.398438 63.191406 78.46875 C 63.8125 78.847656 64.074219 78.355469 64.386719 77.984375 C 64.46875 77.886719 64.554688 77.792969 64.617188 77.683594 C 64.996094 77.054688 65.324219 76.390625 65.753906 75.796875 C 66.300781 75.035156 66.324219 74.875 65.648438 74.21875 C 65.515625 74.089844 65.398438 73.953125 65.277344 73.820312 C 65.753906 74.085938 66.21875 74.386719 66.71875 74.605469 C 67.035156 74.742188 67.40625 74.757812 67.753906 74.832031 C 67.769531 74.757812 67.785156 74.6875 67.800781 74.613281 C 67.53125 74.554688 67.261719 74.503906 66.996094 74.433594 C 66.832031 74.390625 66.644531 74.355469 66.519531 74.25 C 66.109375 73.910156 65.722656 73.539062 65.328125 73.179688 C 65.914062 73.460938 66.496094 73.738281 67.125 74.042969 C 66.933594 73.707031 66.765625 73.417969 66.59375 73.128906 C 66.832031 73.335938 67.066406 73.542969 67.417969 73.851562 C 67.351562 73.492188 67.300781 73.21875 67.238281 72.898438 C 66.964844 73.011719 66.789062 73.085938 66.609375 73.160156 C 66.332031 72.863281 66.054688 72.566406 65.757812 72.25 C 65.917969 72.238281 66.042969 72.234375 66.339844 72.21875 C 65.902344 71.679688 65.554688 71.253906 65.210938 70.828125 C 64.9375 70.484375 64.9375 70.484375 64.523438 70.777344 C 64.597656 70.855469 64.671875 70.933594 64.816406 71.085938 C 64.574219 71.015625 64.4375 70.976562 64.296875 70.9375 M 67.847656 69.691406 C 67.644531 69.757812 67.441406 69.824219 67.167969 69.914062 C 67.414062 69.082031 66.6875 69.132812 66.304688 68.808594 C 65.902344 69.53125 66.730469 69.515625 66.964844 69.988281 C 66.402344 69.867188 65.953125 69.769531 65.566406 69.683594 C 65.726562 69.292969 65.847656 69 66.007812 68.621094 C 65.652344 68.640625 65.40625 68.613281 65.191406 68.6875 C 65.085938 68.722656 65.007812 68.941406 64.988281 69.085938 C 64.960938 69.253906 65.082031 69.460938 65.019531 69.597656 C 64.8125 70.046875 65.035156 70.257812 65.390625 70.476562 C 65.90625 70.796875 66.375 71.1875 66.894531 71.5 C 67.117188 71.632812 67.414062 71.652344 67.679688 71.707031 C 67.882812 71.753906 68.085938 71.777344 68.320312 71.816406 C 67.898438 72.53125 67.898438 72.53125 68.78125 73.386719 C 68.664062 73.40625 68.582031 73.421875 68.40625 73.449219 C 68.59375 73.707031 68.753906 73.929688 68.820312 74.019531 C 68.640625 74.3125 68.492188 74.558594 68.316406 74.847656 C 68.636719 75.023438 68.898438 75.167969 69.265625 75.371094 C 68.949219 75.78125 68.632812 76.1875 68.277344 76.652344 C 68.023438 76.320312 67.667969 75.929688 67.789062 75.285156 C 67.730469 75.277344 67.671875 75.273438 67.613281 75.265625 C 66.382812 76.53125 65.144531 77.792969 63.921875 79.070312 C 62.984375 80.050781 61.898438 80.746094 60.496094 80.792969 C 58.921875 80.839844 58.132812 79.960938 58.421875 78.414062 C 58.792969 76.421875 59.261719 74.453125 60.121094 72.589844 C 60.523438 71.707031 60.75 70.746094 61.0625 69.820312 C 61.273438 69.207031 61.496094 68.597656 61.714844 67.988281 C 62.121094 68.113281 62.460938 68.28125 62.796875 68.59375 C 63.136719 68.910156 63.703125 69.015625 64.191406 69.128906 C 64.308594 69.15625 64.492188 68.847656 64.660156 68.714844 C 64.800781 68.601562 64.984375 68.410156 65.109375 68.433594 C 66.417969 68.695312 67.449219 68.3125 68.199219 67.207031 C 68.257812 67.121094 68.359375 67.058594 68.515625 67.046875 C 68.226562 67.410156 67.933594 67.777344 67.558594 68.25 C 67.792969 68.1875 67.878906 68.164062 68.085938 68.109375 C 67.554688 68.632812 67.632812 69.164062 67.835938 69.703125 Z M 67.847656 69.691406 " fill-opacity="1" fill-rule="nonzero"/><path fill="#000000" d="M 89.039062 81.644531 C 88.804688 81.75 88.570312 81.855469 88.332031 81.960938 C 88.328125 82 88.324219 82.039062 88.320312 82.078125 C 88.523438 82.125 88.730469 82.171875 88.976562 82.230469 C 88.054688 82.382812 87.167969 82.527344 86.28125 82.671875 C 86.285156 82.726562 86.285156 82.777344 86.285156 82.832031 C 86.5 82.960938 86.710938 83.09375 86.921875 83.222656 C 86.554688 83.402344 86.375 84.015625 86.523438 84.609375 C 86.691406 85.300781 86.554688 85.644531 86.128906 85.796875 C 86.355469 86.035156 86.6875 86.265625 86.835938 86.578125 C 86.96875 86.851562 86.855469 87.230469 86.925781 87.542969 C 86.980469 87.800781 87.140625 88.03125 87.289062 88.34375 C 87.25 88.398438 87.160156 88.523438 87.03125 88.714844 L 87.757812 88.714844 C 87.058594 89.019531 87.460938 89.570312 87.460938 90.054688 C 87.667969 90.074219 87.917969 90.097656 88.117188 90.117188 C 87.902344 90.179688 87.636719 90.257812 87.371094 90.339844 C 87.378906 90.371094 87.386719 90.402344 87.398438 90.433594 C 87.660156 90.476562 87.921875 90.519531 88.257812 90.578125 C 88.03125 90.804688 87.855469 90.972656 87.691406 91.15625 C 87.648438 91.203125 87.621094 91.300781 87.640625 91.351562 C 87.800781 91.722656 87.898438 92.167969 88.167969 92.441406 C 88.453125 92.726562 88.90625 92.847656 89.269531 93.03125 C 89.234375 93.03125 89.125 93.054688 89.03125 93.027344 C 88.539062 92.894531 88.046875 92.75 87.558594 92.601562 C 86.851562 92.390625 86.828125 91.757812 86.710938 91.203125 C 86.242188 89.003906 85.808594 86.800781 85.324219 84.609375 C 85.085938 83.53125 84.757812 82.472656 84.488281 81.40625 C 84.445312 81.238281 84.507812 81.046875 84.488281 80.867188 C 84.414062 80.078125 84.324219 79.292969 84.242188 78.503906 C 84.222656 78.308594 84.210938 78.113281 84.097656 77.863281 C 83.949219 78.171875 83.800781 78.484375 83.652344 78.796875 C 83.636719 78.792969 83.625 78.789062 83.609375 78.78125 C 83.675781 78.570312 83.738281 78.359375 83.804688 78.144531 C 83.769531 78.113281 83.738281 78.078125 83.703125 78.046875 C 83.5 78.5 82.703125 77.980469 82.671875 78.863281 C 81.746094 78.507812 80.753906 77.875 80.039062 79.082031 C 80.109375 78.613281 80.179688 78.148438 80.253906 77.660156 C 79.863281 77.816406 79.859375 77.816406 79.515625 79.058594 C 79.367188 79.59375 79.234375 80.132812 78.996094 80.648438 C 79.257812 79.414062 79.519531 78.175781 79.765625 77.023438 C 79.933594 77.164062 80.128906 77.328125 80.371094 77.53125 C 80.476562 77.320312 80.546875 77.183594 80.628906 77.019531 C 80.730469 77.074219 80.824219 77.121094 80.914062 77.179688 C 81.625 77.636719 82.347656 78.050781 83.246094 77.996094 C 83.851562 77.957031 84.183594 77.671875 84.285156 77.085938 C 84.363281 76.621094 84.464844 76.164062 84.664062 75.726562 C 84.632812 75.929688 84.597656 76.136719 84.566406 76.34375 C 84.59375 76.359375 84.621094 76.375 84.648438 76.390625 C 84.8125 76.183594 84.976562 75.972656 85.230469 75.652344 C 85.199219 75.933594 85.1875 76.074219 85.167969 76.242188 C 85.292969 76.210938 85.402344 76.179688 85.507812 76.148438 C 85.402344 76.429688 85.304688 76.691406 85.15625 77.085938 C 85.476562 76.96875 85.621094 76.917969 85.851562 76.832031 C 85.582031 77.175781 85.367188 77.441406 85.058594 77.832031 C 85.335938 77.777344 85.453125 77.753906 85.621094 77.71875 C 85.539062 77.84375 85.496094 77.925781 85.4375 77.988281 C 85.183594 78.261719 85.0625 78.507812 85.324219 78.875 C 85.5 79.125 85.515625 79.480469 85.652344 79.765625 C 85.863281 80.203125 86.296875 80.226562 86.707031 80.207031 C 86.9375 80.199219 87.164062 80.0625 87.394531 80.039062 C 87.617188 80.011719 87.84375 80.058594 88.128906 80.074219 C 87.667969 81.140625 86.507812 81.082031 85.882812 81.726562 C 85.902344 81.78125 85.921875 81.835938 85.941406 81.890625 C 86.957031 81.769531 87.972656 81.652344 88.988281 81.53125 C 89.007812 81.570312 89.023438 81.605469 89.039062 81.644531 " fill-opacity="1" fill-rule="nonzero"/><path fill="#000000" d="M 76.523438 53.707031 C 76.503906 53.625 76.484375 53.539062 76.460938 53.453125 C 76.175781 53.472656 75.882812 53.457031 75.605469 53.515625 C 75.03125 53.644531 74.707031 54.023438 74.601562 54.785156 C 75.308594 54.390625 75.917969 54.046875 76.523438 53.707031 M 79.746094 63.566406 C 79.890625 63.1875 80.003906 62.796875 80.179688 62.433594 C 80.742188 61.25 81.175781 60.050781 80.855469 58.710938 C 80.832031 58.609375 80.859375 58.492188 80.882812 58.386719 C 81.164062 57.289062 80.691406 56.394531 80.070312 55.558594 C 79.78125 55.167969 79.171875 55.128906 78.53125 55.425781 C 78.597656 55.566406 78.660156 55.707031 78.753906 55.90625 C 78.449219 55.648438 78.21875 55.34375 77.914062 55.226562 C 77.605469 55.101562 77.222656 55.15625 76.769531 55.125 C 76.886719 55.375 76.953125 55.515625 77.023438 55.664062 C 76.984375 55.675781 76.933594 55.703125 76.894531 55.691406 C 76.597656 55.613281 76.289062 55.558594 76.007812 55.445312 C 74.695312 54.910156 73.808594 55.429688 73.738281 56.859375 C 73.703125 57.550781 73.429688 58.089844 73.09375 58.671875 C 72.785156 59.207031 72.65625 59.847656 72.441406 60.441406 C 72.40625 60.539062 72.359375 60.636719 72.316406 60.730469 C 72.269531 60.726562 72.21875 60.722656 72.171875 60.714844 C 72.242188 60.191406 72.3125 59.667969 72.382812 59.140625 C 72.335938 59.132812 72.292969 59.125 72.246094 59.113281 C 72.160156 59.566406 72.070312 60.019531 71.980469 60.472656 C 71.957031 60.46875 71.929688 60.46875 71.902344 60.46875 C 71.984375 59.910156 72.046875 59.351562 72.15625 58.800781 C 72.285156 58.164062 72.460938 57.535156 72.605469 56.902344 C 72.699219 56.496094 72.429688 56.445312 72.066406 56.460938 C 72.179688 56.261719 72.242188 56.058594 72.378906 55.929688 C 72.675781 55.648438 72.972656 55.398438 72.742188 54.929688 C 72.703125 54.859375 72.757812 54.699219 72.820312 54.632812 C 73.320312 54.109375 73.8125 53.582031 74.351562 53.101562 C 74.46875 53 74.753906 53.089844 75.113281 53.089844 C 74.863281 53.40625 74.738281 53.566406 74.582031 53.757812 C 75.960938 53.113281 77.328125 53.382812 78.695312 53.542969 L 77.082031 53.542969 C 77.078125 53.609375 77.074219 53.675781 77.070312 53.742188 C 77.734375 53.824219 78.394531 53.898438 79.054688 53.992188 C 79.230469 54.015625 79.433594 54.054688 79.5625 54.15625 C 80.191406 54.652344 80.8125 55.167969 81.417969 55.695312 C 81.691406 55.9375 81.851562 56.199219 81.539062 56.578125 C 81.335938 56.824219 81.332031 57.125 81.472656 57.496094 C 81.773438 58.289062 81.65625 59.09375 81.3125 59.894531 C 80.785156 61.113281 80.523438 62.445312 79.734375 63.554688 Z M 79.746094 63.566406 " fill-opacity="1" fill-rule="nonzero"/><path fill="#000000" d="M 70.945312 63.777344 C 70.773438 63.976562 70.625 64.128906 70.507812 64.300781 C 70.484375 64.328125 70.59375 64.507812 70.625 64.503906 C 70.839844 64.472656 71.050781 64.410156 71.292969 64.347656 C 71.167969 64.140625 71.085938 64.007812 70.945312 63.777344 M 66.890625 66.03125 C 66.953125 66.128906 67.015625 66.226562 67.078125 66.324219 C 67.410156 66.117188 67.746094 65.917969 68.070312 65.695312 C 68.117188 65.664062 68.128906 65.519531 68.09375 65.460938 C 68.066406 65.402344 67.921875 65.34375 67.878906 65.371094 C 67.542969 65.578125 67.21875 65.808594 66.890625 66.03125 M 70.554688 61.925781 C 70.859375 62.5 71.164062 63.070312 71.515625 63.734375 C 71.679688 63.425781 71.800781 63.195312 72.003906 62.8125 C 72.03125 63.40625 72.050781 63.847656 72.074219 64.339844 C 72.003906 64.25 71.960938 64.175781 71.902344 64.125 C 71.753906 64.003906 71.601562 63.898438 71.449219 63.789062 C 71.449219 63.984375 71.449219 64.179688 71.457031 64.375 C 71.460938 64.445312 71.492188 64.511719 71.507812 64.566406 C 70.859375 64.996094 70.230469 65.425781 69.582031 65.832031 C 69.417969 65.933594 69.195312 65.933594 69.007812 66 C 68.75 66.089844 68.460938 66.148438 68.253906 66.308594 C 67.441406 66.917969 66.488281 67.164062 65.535156 67.421875 C 64.871094 67.601562 64.507812 67.472656 64.101562 66.929688 C 63.488281 66.109375 63.105469 65.125 63.019531 64.089844 C 62.902344 64.210938 62.808594 64.308594 62.71875 64.402344 C 62.695312 64.390625 62.671875 64.378906 62.648438 64.367188 C 62.839844 63.96875 63.03125 63.570312 63.226562 63.171875 C 63.332031 63.933594 63.421875 64.617188 64.199219 65.113281 L 64.199219 63.621094 C 64.253906 63.617188 64.304688 63.617188 64.359375 63.617188 C 64.359375 63.832031 64.34375 64.050781 64.363281 64.265625 C 64.386719 64.554688 64.386719 64.863281 64.496094 65.121094 C 64.621094 65.421875 64.8125 65.832031 65.0625 65.902344 C 65.296875 65.972656 65.667969 65.699219 65.929688 65.507812 C 66.21875 65.296875 66.449219 65.007812 66.707031 64.757812 C 66.949219 64.523438 66.875 64.234375 66.511719 64.179688 C 66.238281 64.136719 65.949219 64.21875 65.660156 64.242188 C 65.675781 64.203125 65.707031 64.117188 65.742188 64.015625 C 65.402344 64.164062 65.074219 64.308594 64.679688 64.480469 C 64.980469 63.617188 66.125 62.65625 66.703125 62.691406 C 66.972656 62.707031 67.097656 62.789062 67.191406 63.074219 C 67.589844 64.261719 67.707031 64.304688 68.933594 63.898438 C 69.351562 63.761719 69.757812 63.589844 70.167969 63.441406 C 70.519531 63.3125 70.582031 63.089844 70.460938 62.75 C 70.375 62.511719 70.347656 62.253906 70.296875 62.003906 C 70.382812 61.976562 70.46875 61.953125 70.554688 61.925781 " fill-opacity="1" fill-rule="nonzero"/><g clip-path="url(#bd5ed25058)"><path fill="#000000" d="M 58.261719 48.511719 C 58.097656 49.183594 58.675781 49.273438 59.023438 49.457031 C 59.214844 49.292969 59.363281 49.164062 59.503906 49.046875 C 59.300781 48.796875 59.089844 48.535156 58.828125 48.214844 C 58.875 48.875 58.507812 48.332031 58.261719 48.511719 M 57.769531 46.492188 C 57.824219 46.546875 60.214844 45 61.234375 45.390625 C 61.316406 45.46875 58.105469 46.8125 58.1875 46.890625 C 58.671875 47.339844 59.152344 47.792969 59.625 48.25 C 59.695312 48.316406 59.730469 48.441406 59.746094 48.546875 C 59.796875 48.957031 60.058594 48.980469 60.386719 48.910156 C 60.679688 48.84375 60.972656 48.78125 61.296875 48.761719 C 60.507812 49.140625 59.992188 49.714844 59.816406 50.734375 C 61.296875 49.632812 62.894531 49.746094 64.507812 49.90625 C 64.140625 50.039062 63.546875 49.566406 63.433594 50.335938 C 62.117188 49.582031 61.238281 50.53125 60.289062 51.152344 C 59.949219 51.375 59.6875 51.730469 59.425781 52.054688 C 59.285156 52.226562 59.21875 52.460938 59.070312 52.765625 C 58.644531 52.117188 58.199219 51.484375 57.804688 50.820312 C 57.359375 50.070312 56.980469 49.28125 56.53125 48.535156 C 56.328125 48.191406 56.351562 47.914062 56.601562 47.648438 C 56.964844 47.269531 57.398438 46.894531 57.820312 46.480469 " fill-opacity="1" fill-rule="nonzero"/></g><path fill="#000000" d="M 83.707031 91.054688 C 83.6875 90.933594 83.691406 90.859375 83.660156 90.800781 C 83.277344 90.101562 81.59375 89.265625 80.824219 89.429688 C 80.617188 89.472656 80.445312 89.664062 80.304688 89.757812 C 81.460938 90.199219 82.550781 90.613281 83.707031 91.054688 M 79.070312 87.53125 C 78.957031 87.648438 78.859375 87.722656 78.796875 87.820312 C 78.558594 88.183594 78.226562 88.554688 78.5 89.007812 C 78.730469 89.386719 79.160156 89.351562 79.539062 89.277344 C 79.902344 89.207031 80.257812 89.074219 80.640625 88.960938 C 80.128906 88.496094 79.609375 88.019531 79.070312 87.53125 M 83.707031 92.355469 C 83.90625 91.757812 83.34375 91.03125 82.675781 91.09375 C 82.351562 91.128906 82.234375 91.015625 82.027344 90.789062 C 81.800781 90.546875 81.390625 90.40625 81.039062 90.351562 C 80.730469 90.304688 80.390625 90.425781 80.070312 90.496094 C 79.730469 90.566406 79.402344 90.71875 79.0625 90.738281 C 78.742188 90.753906 78.414062 90.644531 77.945312 90.566406 C 78.425781 90.894531 78.773438 91.128906 79.214844 91.429688 C 78.632812 91.546875 78.128906 91.066406 77.621094 91.65625 C 77.710938 91.109375 77.824219 90.679688 77.84375 90.246094 C 77.878906 89.476562 77.863281 88.703125 77.863281 87.929688 C 77.863281 87.824219 77.773438 87.699219 77.804688 87.617188 C 78.128906 86.824219 78.46875 86.042969 78.886719 85.28125 L 78.484375 86.757812 C 78.503906 86.769531 78.523438 86.78125 78.542969 86.792969 C 78.679688 86.574219 78.816406 86.359375 78.960938 86.132812 C 79.542969 87.136719 80.402344 87.796875 81.375 88.304688 C 81.6875 88.46875 82.113281 88.457031 82.488281 88.457031 C 83.324219 88.449219 83.628906 88.863281 83.34375 89.667969 C 83.128906 89.503906 82.914062 89.34375 82.695312 89.179688 C 82.648438 89.222656 82.597656 89.265625 82.550781 89.304688 C 82.8125 89.617188 83.039062 89.96875 83.34375 90.230469 C 83.753906 90.582031 83.910156 90.988281 83.921875 91.515625 C 83.933594 92.054688 84.042969 92.59375 84.082031 93.136719 C 84.097656 93.34375 84.046875 93.558594 84.023438 93.769531 C 84.023438 93.769531 84.039062 93.773438 84.039062 93.773438 C 83.925781 93.296875 83.808594 92.816406 83.695312 92.339844 Z M 83.707031 92.355469 " fill-opacity="1" fill-rule="nonzero"/><path fill="#000000" d="M 63.847656 59.496094 C 64.746094 59.066406 65.636719 58.640625 66.53125 58.214844 C 66.550781 58.25 66.566406 58.28125 66.585938 58.316406 C 66 58.679688 65.429688 59.066406 64.824219 59.394531 C 64.347656 59.65625 64.226562 60.039062 64.628906 60.609375 C 65.035156 61.1875 65.144531 61.773438 65 62.410156 C 64.492188 61.660156 63.996094 60.890625 63.460938 60.144531 C 63.136719 59.6875 62.699219 59.515625 62.117188 59.675781 C 61.960938 59.714844 61.671875 59.5625 61.570312 59.414062 C 61.304688 59.027344 61.058594 58.609375 60.894531 58.171875 C 60.699219 57.632812 60.304688 57.511719 59.808594 57.425781 C 59.558594 57.386719 59.261719 57.238281 59.125 57.039062 C 58.867188 56.671875 58.671875 56.25 58.535156 55.824219 C 58.472656 55.621094 58.589844 55.164062 58.644531 55.160156 C 58.964844 55.136719 59.394531 55.109375 59.585938 55.292969 C 59.929688 55.621094 60.136719 56.09375 60.386719 56.511719 C 60.785156 57.175781 61.171875 57.84375 61.566406 58.511719 C 61.613281 58.484375 61.664062 58.457031 61.710938 58.433594 C 61.46875 57.96875 61.222656 57.507812 60.980469 57.042969 C 61.011719 57.023438 61.042969 57.007812 61.074219 56.988281 C 61.40625 57.511719 61.757812 58.027344 62.070312 58.5625 C 62.210938 58.800781 62.328125 58.933594 62.621094 58.804688 C 63.015625 58.632812 63.425781 58.5 63.824219 58.335938 C 64.5625 58.039062 65.292969 57.722656 66.035156 57.441406 C 66.199219 57.378906 66.402344 57.429688 66.585938 57.464844 C 64.875 57.785156 63.632812 58.675781 63.847656 59.496094 " fill-opacity="1" fill-rule="nonzero"/><path fill="#000000" d="M 77.515625 68.523438 C 77.777344 68.300781 78.042969 68.074219 78.363281 67.804688 C 77.140625 67.980469 76.257812 68.910156 75.035156 68.847656 C 75.21875 69.070312 75.40625 69.292969 75.578125 69.5 C 73.796875 68.992188 71.277344 67.257812 71.445312 65.941406 C 71.679688 66.050781 71.996094 66.320312 72.203125 66.253906 C 72.402344 66.191406 72.488281 65.78125 72.621094 65.523438 C 72.765625 65.246094 72.910156 64.972656 73.054688 64.695312 C 73.136719 64.738281 73.222656 64.78125 73.308594 64.828125 C 73.171875 65.121094 73.082031 65.449219 72.890625 65.703125 C 72.609375 66.074219 72.632812 66.328125 72.992188 66.621094 C 73.988281 67.425781 75.1875 67.863281 76.394531 67.789062 C 77.320312 67.730469 78.21875 67.136719 79.125 66.769531 C 79.28125 66.707031 79.417969 66.597656 79.648438 66.457031 C 79.324219 67.636719 78.625 68.292969 77.515625 68.523438 " fill-opacity="1" fill-rule="nonzero"/><path fill="#000000" d="M 64.183594 52.402344 C 63.941406 52.039062 63.839844 51.816406 63.675781 51.660156 C 63.507812 51.496094 63.257812 51.265625 63.082031 51.292969 C 62.464844 51.398438 61.894531 51.65625 61.539062 52.21875 C 61.492188 52.292969 61.421875 52.390625 61.4375 52.460938 C 61.492188 52.738281 61.578125 53.011719 61.664062 53.339844 C 62.4375 53.050781 63.257812 52.746094 64.183594 52.402344 M 60.878906 55.601562 C 60.429688 54.78125 59.9375 53.886719 59.433594 52.972656 C 60.441406 51.988281 61.617188 51.34375 62.976562 51.039062 C 63.148438 51 63.441406 51.09375 63.546875 51.226562 C 63.953125 51.757812 64.304688 52.324219 64.765625 53.007812 C 64.003906 52.730469 63.453125 52.941406 62.921875 53.195312 C 62.398438 53.445312 61.882812 53.722656 61.402344 54.046875 C 61.265625 54.136719 60.792969 54.273438 61.195312 54.628906 C 61.210938 54.644531 61.144531 54.753906 61.121094 54.820312 C 61.042969 55.070312 60.964844 55.324219 60.878906 55.601562 " fill-opacity="1" fill-rule="nonzero"/><path fill="#000000" d="M 68.101562 59 C 68.191406 59.167969 68.285156 59.335938 68.378906 59.503906 C 68.429688 59.5 68.476562 59.492188 68.527344 59.488281 L 68.527344 58.609375 C 68.703125 58.535156 68.941406 58.429688 69.347656 58.257812 C 69.191406 59.207031 69.054688 60.035156 68.914062 60.863281 C 68.96875 60.859375 69.019531 60.855469 69.070312 60.851562 C 68.859375 60.703125 68.648438 60.554688 68.4375 60.410156 C 68.414062 60.5 68.390625 60.59375 68.339844 60.785156 C 67.640625 59.472656 66.695312 58.328125 67.113281 56.769531 C 67.214844 56.386719 67.285156 56.085938 66.816406 55.925781 C 66.769531 55.910156 66.707031 55.792969 66.722656 55.742188 C 66.921875 55.132812 67.132812 54.523438 67.355469 53.921875 C 67.371094 53.875 67.523438 53.882812 67.609375 53.863281 C 67.550781 54.054688 67.441406 54.242188 67.441406 54.433594 C 67.441406 54.648438 67.523438 54.871094 67.609375 55.078125 C 67.628906 55.125 67.800781 55.109375 67.90625 55.121094 C 67.929688 54.917969 67.953125 54.71875 67.976562 54.515625 C 67.976562 54.496094 67.976562 54.476562 67.976562 54.460938 C 68.355469 54.914062 68.714844 55.375 68.683594 56.019531 C 68.558594 55.75 68.433594 55.480469 68.292969 55.171875 C 68.066406 55.535156 67.855469 55.824219 67.703125 56.144531 C 67.644531 56.269531 67.660156 56.519531 67.75 56.609375 C 68.261719 57.117188 68.292969 57.160156 68.277344 57.949219 C 67.925781 57.617188 67.582031 57.300781 67.210938 56.953125 C 67.085938 57.273438 67.019531 57.59375 67.378906 57.746094 C 67.96875 58 68.113281 58.453125 68.113281 59.015625 C 68 58.828125 67.886719 58.644531 67.773438 58.460938 C 67.71875 58.480469 67.660156 58.503906 67.605469 58.523438 C 67.707031 58.933594 67.808594 59.34375 67.90625 59.75 C 67.972656 59.742188 68.035156 59.734375 68.101562 59.722656 Z M 68.101562 59 " fill-opacity="1" fill-rule="nonzero"/><path fill="#000000" d="M 65.707031 55.460938 C 66.113281 55.746094 65.976562 55.949219 65.59375 56.070312 C 64.367188 56.464844 63.222656 57.011719 62.25 57.859375 C 61.964844 57.367188 61.6875 56.890625 61.40625 56.410156 C 61.679688 56.175781 61.957031 55.957031 62.214844 55.714844 C 62.917969 55.054688 63.8125 54.800781 64.707031 54.546875 C 65.105469 54.429688 65.273438 54.703125 65.445312 54.957031 C 65.558594 55.117188 65.632812 55.304688 65.722656 55.480469 C 65.484375 55.292969 65.246094 55.105469 64.988281 54.898438 C 63.84375 54.761719 63.640625 55.703125 63.21875 56.5625 C 64.035156 56.300781 64.773438 56.078125 65.5 55.820312 C 65.597656 55.785156 65.640625 55.582031 65.707031 55.460938 " fill-opacity="1" fill-rule="nonzero"/><path fill="#000000" d="M 67.835938 69.703125 C 68.09375 69.765625 68.351562 69.828125 68.664062 69.90625 C 68.664062 69.914062 68.613281 70.011719 68.640625 70.070312 C 68.765625 70.320312 69.839844 70.371094 69.988281 70.144531 C 70.242188 69.746094 70.652344 69.738281 70.90625 70.148438 C 71.082031 70.4375 71.207031 70.757812 71.335938 71.03125 C 71.296875 71.179688 71.257812 71.332031 71.214844 71.484375 C 71.390625 71.433594 71.628906 71.441406 71.726562 71.328125 C 72.027344 70.972656 72.273438 70.570312 72.515625 70.226562 C 72.546875 70.707031 72.054688 71.480469 71.554688 71.675781 C 70.914062 71.917969 70.304688 72.089844 69.835938 71.34375 C 69.769531 71.234375 69.480469 71.257812 69.292969 71.234375 C 69.160156 71.214844 69.007812 71.253906 68.898438 71.203125 C 68.570312 71.042969 68.269531 70.832031 67.9375 70.683594 C 67.765625 70.609375 67.558594 70.621094 67.324219 70.589844 C 67.328125 70.511719 67.34375 70.304688 67.363281 70.0625 C 67.640625 70.121094 67.925781 70.183594 68.207031 70.25 C 68.234375 70.207031 68.257812 70.164062 68.28125 70.125 C 68.136719 69.980469 67.996094 69.835938 67.851562 69.691406 C 67.847656 69.691406 67.835938 69.703125 67.835938 69.703125 " fill-opacity="1" fill-rule="nonzero"/><g clip-path="url(#9b928e49c8)"><path fill="#000000" d="M 89.167969 94.324219 C 88.980469 93.707031 87.480469 93.296875 86.894531 93.671875 C 87.671875 93.894531 88.371094 94.09375 89.167969 94.324219 M 89.640625 93.457031 C 89.777344 93.757812 89.914062 94.054688 90.074219 94.402344 C 89.441406 95.257812 87.59375 95.414062 86.796875 94.585938 C 86.691406 94.476562 86.652344 94.261719 86.660156 94.101562 C 86.6875 93.652344 86.757812 93.203125 86.804688 92.808594 C 87.742188 93.023438 88.699219 93.246094 89.652344 93.46875 Z M 89.640625 93.457031 " fill-opacity="1" fill-rule="nonzero"/></g><path fill="#000000" d="M 80.148438 85.710938 C 80.589844 85.816406 81.019531 85.921875 81.628906 86.070312 C 81.40625 85.6875 81.269531 85.445312 81.105469 85.160156 C 81.261719 85.191406 81.390625 85.222656 81.574219 85.261719 C 81.195312 84.722656 80.847656 84.226562 80.503906 83.734375 C 80.535156 83.703125 80.570312 83.675781 80.605469 83.648438 C 81.320312 84.429688 81.777344 85.507812 83.003906 85.726562 C 83.019531 85.585938 83.042969 85.417969 83.0625 85.25 C 83.082031 85.246094 83.105469 85.242188 83.128906 85.238281 C 83.21875 85.714844 83.304688 86.1875 83.375 86.550781 C 83.117188 86.550781 82.921875 86.53125 82.730469 86.554688 C 82.589844 86.574219 82.457031 86.65625 82.320312 86.699219 C 81.210938 87.042969 80.71875 86.820312 80.148438 85.710938 " fill-opacity="1" fill-rule="nonzero"/><path fill="#000000" d="M 80.335938 81.089844 C 81.65625 81.246094 81.851562 82.347656 82.421875 83.074219 C 82.695312 83.425781 82.914062 83.824219 83.113281 84.222656 C 83.1875 84.367188 83.128906 84.574219 83.132812 84.753906 C 82.984375 84.679688 82.792969 84.644531 82.691406 84.527344 C 82.050781 83.777344 81.398438 83.03125 80.808594 82.238281 C 80.585938 81.941406 80.511719 81.535156 80.335938 81.089844 " fill-opacity="1" fill-rule="nonzero"/><path fill="#000000" d="M 86.496094 70.308594 C 85.6875 70.097656 84.839844 69.878906 83.875 69.628906 C 84.238281 69.851562 84.507812 70.015625 84.78125 70.183594 C 84.753906 70.242188 84.726562 70.300781 84.699219 70.363281 C 83.5 69.875 82.296875 69.390625 81.097656 68.90625 C 81.105469 68.882812 81.113281 68.855469 81.117188 68.832031 C 82.269531 69.0625 83.425781 69.296875 84.578125 69.527344 C 84.589844 69.476562 84.601562 69.429688 84.613281 69.378906 C 84.070312 69.203125 83.527344 69.027344 83.019531 68.863281 C 84.117188 68.734375 86.214844 69.648438 86.496094 70.308594 " fill-opacity="1" fill-rule="nonzero"/><path fill="#000000" d="M 79.734375 63.554688 C 79.265625 64.339844 78.84375 65.152344 78.316406 65.894531 C 77.746094 66.707031 76.792969 66.789062 75.902344 66.886719 C 75.417969 66.941406 74.554688 66.175781 74.503906 65.777344 C 75.347656 65.929688 76.203125 66.066406 77.050781 66.246094 C 77.476562 66.335938 77.828125 66.246094 78.070312 65.910156 C 78.535156 65.269531 78.964844 64.601562 79.414062 63.953125 C 79.511719 63.8125 79.636719 63.695312 79.746094 63.566406 C 79.746094 63.566406 79.734375 63.554688 79.734375 63.554688 " fill-opacity="1" fill-rule="nonzero"/><path fill="#000000" d="M 76.675781 92.359375 C 75.53125 91.71875 74.363281 91.121094 73.253906 90.425781 C 72.476562 89.9375 71.785156 89.3125 71.054688 88.746094 C 72.074219 89.3125 73.125 89.828125 74.105469 90.453125 C 75 91.027344 75.820312 91.71875 76.675781 92.359375 " fill-opacity="1" fill-rule="nonzero"/><path fill="#000000" d="M 82.511719 67.132812 C 83.007812 67.425781 83.5 67.71875 83.996094 68.011719 C 83.964844 68.058594 83.9375 68.109375 83.90625 68.160156 C 82.988281 67.613281 82.066406 67.066406 81.148438 66.519531 C 81.171875 66.46875 81.195312 66.417969 81.21875 66.367188 C 82.097656 66.730469 82.992188 67.066406 83.855469 67.460938 C 84.433594 67.726562 84.972656 68.078125 85.53125 68.390625 C 86.839844 69.121094 87.425781 70.351562 87.835938 71.699219 C 87.867188 71.808594 89.039062 81.554688 89.039062 81.644531 C 88.863281 81.21875 87.496094 71.144531 87.277344 70.710938 C 86.738281 69.632812 86.058594 68.703125 84.847656 68.25 C 84.292969 68.042969 83.792969 67.671875 83.265625 67.386719 C 83.035156 67.261719 82.789062 67.164062 82.550781 67.054688 C 82.539062 67.078125 82.527344 67.105469 82.511719 67.132812 " fill-opacity="1" fill-rule="nonzero"/><path fill="#000000" d="M 85.875 100.699219 C 86.636719 100.335938 87.246094 100.042969 87.863281 99.746094 C 87.90625 99.800781 88.046875 100.046875 88.101562 100.027344 C 88.273438 99.972656 88.484375 99.851562 88.554688 99.699219 C 88.808594 99.164062 89.007812 98.601562 89.265625 98.0625 C 89.191406 98.398438 89.121094 98.738281 89.039062 99.078125 C 88.75 100.285156 87.929688 101.019531 86.660156 101.109375 C 86.417969 101.125 86.15625 100.855469 85.875 100.699219 " fill-opacity="1" fill-rule="nonzero"/><path fill="#000000" d="M 80.863281 70.542969 C 82.828125 70.980469 84.367188 71.910156 84.921875 73.988281 C 84 72.339844 82.425781 71.449219 80.863281 70.542969 " fill-opacity="1" fill-rule="nonzero"/><path fill="#000000" d="M 87.855469 98.941406 C 87.378906 99.066406 87.039062 99.15625 86.699219 99.246094 C 86.675781 99.195312 86.652344 99.144531 86.628906 99.09375 C 86.792969 98.996094 86.972656 98.914062 87.117188 98.789062 C 87.351562 98.589844 87.558594 98.359375 87.777344 98.140625 C 87.570312 97.945312 87.359375 97.746094 87.105469 97.511719 C 87.089844 97.589844 87.085938 97.535156 87.105469 97.523438 C 87.335938 97.371094 87.570312 97.226562 87.804688 97.082031 C 87.96875 97.367188 88.179688 97.636719 88.28125 97.945312 C 88.503906 98.613281 88.039062 98.992188 87.5625 99.339844 C 87.636719 99.238281 87.710938 99.140625 87.855469 98.941406 " fill-opacity="1" fill-rule="nonzero"/><path fill="#000000" d="M 68.671875 61.4375 C 67.367188 61.898438 66.128906 62.296875 65.167969 63.320312 C 65.136719 62.429688 67.371094 61.253906 68.671875 61.4375 " fill-opacity="1" fill-rule="nonzero"/><path fill="#000000" d="M 72.425781 87.21875 C 73.648438 86.796875 76.75 88.863281 77.546875 90.8125 C 77.175781 90.308594 76.910156 89.851562 76.546875 89.484375 C 76.171875 89.101562 75.722656 88.777344 75.265625 88.480469 C 74.828125 88.191406 74.359375 87.941406 73.875 87.730469 C 73.386719 87.515625 72.867188 87.371094 72.425781 87.21875 " fill-opacity="1" fill-rule="nonzero"/><path fill="#000000" d="M 69.367188 67.980469 C 70.277344 68.105469 71.269531 68.125 71.988281 68.96875 C 71.03125 68.78125 69.921875 69.082031 69.367188 67.980469 " fill-opacity="1" fill-rule="nonzero"/><path fill="#000000" d="M 86.441406 104.605469 C 84.535156 104.742188 82.734375 104.332031 80.976562 103.394531 C 82.824219 103.878906 84.523438 104.769531 86.441406 104.605469 " fill-opacity="1" fill-rule="nonzero"/><g clip-path="url(#468d939918)"><path fill="#000000" d="M 89.328125 86.40625 C 89.316406 86.25 89.308594 86.09375 89.296875 85.910156 C 88.949219 86.03125 88.636719 86.140625 88.324219 86.25 C 88.292969 86.214844 88.257812 86.175781 88.226562 86.136719 C 88.875 85.855469 89.734375 85.691406 89.117188 84.675781 C 88.898438 84.710938 88.640625 84.753906 88.277344 84.8125 C 89.171875 84.359375 89.171875 84.359375 89.011719 83.375 C 88.980469 83.171875 88.960938 82.964844 89.042969 82.75 C 89.191406 83.96875 89.34375 85.1875 89.496094 86.40625 C 89.4375 86.40625 90.058594 92.429688 90.003906 92.429688 " fill-opacity="1" fill-rule="nonzero"/></g><path fill="#000000" d="M 63.308594 48.96875 C 62.804688 47.960938 62.296875 46.953125 61.789062 45.945312 C 61.828125 45.925781 61.867188 45.90625 61.90625 45.886719 C 62.421875 46.890625 62.933594 47.894531 63.449219 48.898438 C 63.402344 48.921875 63.355469 48.945312 63.308594 48.96875 " fill-opacity="1" fill-rule="nonzero"/><path fill="#000000" d="M 82.84375 83.132812 C 83.074219 82.4375 83.308594 81.742188 83.589844 80.894531 C 83.421875 81.769531 83.558594 82.574219 82.84375 83.132812 " fill-opacity="1" fill-rule="nonzero"/><path fill="#000000" d="M 83.648438 79.382812 C 83.648438 80 83.550781 80.582031 83.027344 80.976562 C 82.953125 81.035156 82.757812 80.933594 82.578125 80.835938 C 83.335938 80.601562 83.460938 79.972656 83.648438 79.382812 " fill-opacity="1" fill-rule="nonzero"/><path fill="#000000" d="M 85.921875 97.433594 C 86.097656 96.566406 86.191406 95.664062 86.921875 95.011719 C 86.585938 95.828125 86.253906 96.628906 85.921875 97.433594 " fill-opacity="1" fill-rule="nonzero"/><path fill="#000000" d="M 86.296875 103.851562 C 86.21875 103.550781 86.171875 103.363281 86.125 103.175781 C 86.144531 103.171875 86.167969 103.167969 86.1875 103.160156 C 86.253906 103.441406 86.320312 103.722656 86.402344 104.082031 C 85.851562 104.023438 85.359375 103.972656 84.867188 103.921875 C 84.867188 103.871094 84.871094 103.824219 84.875 103.773438 C 85.324219 103.800781 85.773438 103.824219 86.296875 103.851562 " fill-opacity="1" fill-rule="nonzero"/><path fill="#000000" d="M 72.1875 61.792969 C 72.253906 61.679688 72.378906 61.476562 72.558594 61.171875 C 72.722656 61.597656 72.851562 61.941406 72.972656 62.261719 C 72.703125 62.097656 72.460938 61.957031 72.1875 61.792969 " fill-opacity="1" fill-rule="nonzero"/><path fill="#000000" d="M 75.238281 85.878906 C 75.648438 86.140625 76.058594 86.402344 76.472656 86.660156 C 76.4375 86.710938 76.40625 86.761719 76.375 86.8125 C 75.960938 86.558594 75.542969 86.304688 75.128906 86.050781 C 75.164062 85.996094 75.199219 85.9375 75.238281 85.878906 " fill-opacity="1" fill-rule="nonzero"/><path fill="#000000" d="M 81.257812 104.066406 C 81.890625 104.300781 82.523438 104.535156 83.152344 104.769531 C 83.140625 104.808594 83.125 104.851562 83.109375 104.890625 C 82.476562 104.660156 81.839844 104.433594 81.207031 104.203125 C 81.222656 104.15625 81.242188 104.113281 81.257812 104.066406 " fill-opacity="1" fill-rule="nonzero"/><path fill="#000000" d="M 89.652344 93.46875 C 89.847656 92.683594 89.351562 92.160156 88.855469 91.554688 C 89.632812 92.003906 89.972656 92.902344 89.640625 93.457031 C 89.640625 93.457031 89.652344 93.46875 89.652344 93.46875 " fill-opacity="1" fill-rule="nonzero"/><path fill="#000000" d="M 85.5625 102.890625 C 85.476562 102.75 85.40625 102.636719 85.3125 102.488281 C 85.417969 102.386719 85.527344 102.28125 85.5625 102.246094 C 85.738281 102.382812 85.871094 102.484375 86.027344 102.609375 C 85.890625 102.691406 85.722656 102.792969 85.5625 102.890625 " fill-opacity="1" fill-rule="nonzero"/><path fill="#000000" d="M 73.367188 95.898438 C 72.9375 96.761719 72.46875 97.589844 71.375 97.816406 C 71.640625 97.527344 71.894531 97.242188 72.152344 96.957031 C 72.164062 96.945312 72.179688 96.925781 72.207031 96.898438 C 72.601562 96.570312 72.992188 96.242188 73.382812 95.914062 Z M 73.367188 95.898438 " fill-opacity="1" fill-rule="nonzero"/><path fill="#000000" d="M 61.152344 75.214844 C 61.875 74.632812 62.59375 74.046875 63.3125 73.464844 C 62.667969 74.140625 62.214844 75.050781 61.140625 75.203125 C 61.140625 75.203125 61.152344 75.214844 61.152344 75.214844 " fill-opacity="1" fill-rule="nonzero"/><path fill="#000000" d="M 83.625 96.15625 L 81.523438 96.15625 C 82.105469 95.941406 82.832031 95.675781 83.625 95.382812 Z M 83.625 96.15625 " fill-opacity="1" fill-rule="nonzero"/></svg>