<svg xmlns="http://www.w3.org/2000/svg" xmlns:xlink="http://www.w3.org/1999/xlink" width="200" zoomAndPan="magnify" viewBox="0 0 150 149.999998" height="200" preserveAspectRatio="xMidYMid meet" version="1.0"><defs><clipPath id="867b0963f7"><path d="M 92 87 L 105 87 L 105 102.9375 L 92 102.9375 Z M 92 87 " clip-rule="nonzero"/></clipPath><clipPath id="2928a1d410"><path d="M 45 87 L 60 87 L 60 102.9375 L 45 102.9375 Z M 45 87 " clip-rule="nonzero"/></clipPath><clipPath id="444176ca46"><path d="M 56 83 L 100 83 L 100 102.9375 L 56 102.9375 Z M 56 83 " clip-rule="nonzero"/></clipPath><clipPath id="7cc81e6c2e"><path d="M 71 85 L 88 85 L 88 102.9375 L 71 102.9375 Z M 71 85 " clip-rule="nonzero"/></clipPath><clipPath id="ef8f509b1e"><path d="M 60 85 L 68 85 L 68 102.9375 L 60 102.9375 Z M 60 85 " clip-rule="nonzero"/></clipPath><clipPath id="6a96c11fe5"><path d="M 48 81 L 62 81 L 62 102.9375 L 48 102.9375 Z M 48 81 " clip-rule="nonzero"/></clipPath></defs><g clip-path="url(#867b0963f7)"><path fill="#df2430" d="M 104.996094 102.941406 C 104.980469 101.242188 104.863281 99.730469 104.609375 98.527344 C 102.632812 89.222656 95.699219 87.238281 95.699219 87.238281 C 94.3125 89.515625 93.039062 95.683594 92.191406 102.941406 L 104.996094 102.941406 " fill-opacity="1" fill-rule="nonzero"/></g><g clip-path="url(#2928a1d410)"><path fill="#df2430" d="M 56.671875 102.941406 C 58.882812 95.886719 60.324219 89.777344 59.5625 87.226562 C 59.5625 87.226562 51.941406 86.953125 47.679688 95.445312 C 46.671875 97.457031 45.789062 100.074219 45.003906 102.941406 L 56.671875 102.941406 " fill-opacity="1" fill-rule="nonzero"/></g><path fill="#f36647" d="M 86.644531 85.476562 C 85.984375 85.3125 85.257812 84.9375 85.257812 84.9375 C 81.832031 78.101562 82.441406 62.984375 82.441406 62.984375 C 82.441406 62.984375 71.199219 69.890625 71.105469 71.464844 C 70.722656 77.773438 69.925781 83.625 68.921875 85.769531 C 68.816406 86 68.386719 86.253906 67.753906 86.519531 L 67.753906 99.945312 L 86.320312 97.101562 L 86.644531 85.476562 " fill-opacity="1" fill-rule="nonzero"/><path fill="#d26758" d="M 71.105469 71.464844 C 70.878906 75.160156 70.515625 78.695312 70.046875 81.425781 C 73.695312 84.519531 79.367188 87.707031 85.023438 84.433594 C 81.859375 77.386719 82.441406 62.984375 82.441406 62.984375 C 82.441406 62.984375 71.199219 69.890625 71.105469 71.464844 " fill-opacity="1" fill-rule="nonzero"/><path fill="#f5866c" d="M 88.632812 69.617188 C 88.769531 65.589844 88.570312 62.496094 88.570312 62.496094 C 88.207031 56.152344 82.820312 54.96875 77.472656 55.121094 C 72.125 54.96875 66.738281 56.152344 66.375 62.496094 C 66.375 62.496094 66.175781 65.589844 66.3125 69.617188 C 63.191406 67.238281 61.925781 71.304688 62.945312 74.246094 C 63.828125 76.761719 66.199219 76.921875 66.960938 76.902344 C 67.050781 77.480469 67.148438 78.054688 67.265625 78.617188 C 68.128906 82.90625 73.269531 88.273438 76.113281 89.460938 C 76.113281 89.460938 76.457031 89.640625 77.472656 89.636719 C 78.492188 89.640625 78.835938 89.460938 78.835938 89.460938 C 81.679688 88.273438 86.820312 82.90625 87.683594 78.617188 C 87.796875 78.054688 87.898438 77.480469 87.988281 76.902344 C 88.75 76.921875 89.671875 76.917969 90.554688 74.398438 C 91.574219 71.457031 91.753906 67.238281 88.632812 69.617188 " fill-opacity="1" fill-rule="nonzero"/><path fill="#371d15" d="M 65.328125 69.09375 C 65.328125 69.09375 66.464844 70.714844 66.941406 70.65625 C 67.40625 70.589844 67.273438 67.523438 68.164062 60.9375 C 68.164062 60.9375 68.714844 57.640625 74.210938 58.71875 C 74.210938 58.71875 77.535156 61 84.867188 60.75 C 84.867188 60.75 86.679688 69.914062 87.25 71.015625 C 87.976562 72.40625 88.941406 69.1875 88.941406 69.1875 C 88.941406 69.1875 93.328125 52.511719 80.121094 50.183594 C 80.121094 50.183594 59.222656 47.445312 65.328125 69.09375 " fill-opacity="1" fill-rule="nonzero"/><g clip-path="url(#444176ca46)"><path fill="#df2430" d="M 99.367188 102.941406 C 98.582031 94.492188 97.238281 87.949219 97.238281 87.949219 C 96.3125 87.132812 84.703125 83.664062 84.703125 83.664062 C 84.414062 93.148438 77.445312 98.460938 77.445312 98.460938 C 71.042969 94.652344 69.597656 83.664062 69.597656 83.664062 C 67.867188 84.972656 58.480469 86.871094 57.757812 87.507812 C 57.757812 87.507812 56.597656 95.457031 56.019531 102.941406 L 99.367188 102.941406 " fill-opacity="1" fill-rule="nonzero"/></g><path fill="#371d15" d="M 66.828125 67.878906 C 66.828125 67.878906 67.6875 86.042969 77.472656 86.582031 C 77.472656 86.582031 86.1875 86.570312 87.4375 69.207031 L 87.945312 69.429688 C 87.945312 69.429688 90.644531 88.121094 77.472656 90.441406 C 77.472656 90.441406 64.191406 90.109375 66.277344 68.875 L 66.828125 67.878906 " fill-opacity="1" fill-rule="nonzero"/><path fill="#371d15" d="M 73.191406 85.277344 C 73.191406 85.277344 72.25 81.703125 73.246094 81.066406 C 74.242188 80.429688 77.246094 81.113281 77.113281 79.441406 C 77.113281 79.441406 75.019531 78.636719 72.429688 79.5 C 69.839844 80.359375 70.046875 84.097656 70.046875 84.097656 L 73.191406 85.277344 " fill-opacity="1" fill-rule="nonzero"/><path fill="#371d15" d="M 81.046875 85.277344 C 81.046875 85.277344 81.988281 81.703125 80.992188 81.066406 C 79.996094 80.429688 76.992188 81.113281 77.121094 79.441406 C 77.121094 79.441406 79.21875 78.636719 81.808594 79.5 C 84.394531 80.359375 84.355469 82.1875 84.355469 82.1875 L 81.046875 85.277344 " fill-opacity="1" fill-rule="nonzero"/><path fill="#22253d" d="M 81.070312 82.039062 C 81.070312 82.457031 80.726562 82.800781 80.308594 82.800781 L 61.8125 82.800781 C 61.390625 82.800781 61.050781 82.457031 61.050781 82.039062 L 61.050781 79.695312 C 61.050781 79.273438 61.390625 78.933594 61.8125 78.933594 L 80.308594 78.933594 C 80.726562 78.933594 81.070312 79.273438 81.070312 79.695312 L 81.070312 82.039062 " fill-opacity="1" fill-rule="nonzero"/><path fill="#22253d" d="M 81.144531 81.3125 C 81.269531 81.105469 81.34375 80.867188 81.34375 80.613281 L 81.34375 69.847656 C 81.34375 69.109375 80.753906 68.515625 80.023438 68.515625 L 62.097656 68.515625 C 61.367188 68.515625 60.773438 69.109375 60.773438 69.847656 L 60.773438 80.613281 C 60.773438 80.867188 60.847656 81.105469 60.972656 81.3125 L 81.144531 81.3125 " fill-opacity="1" fill-rule="nonzero"/><path fill="#22253d" d="M 80.023438 68.515625 L 62.097656 68.515625 C 61.367188 68.515625 60.773438 69.109375 60.773438 69.847656 L 60.773438 72 L 81.34375 72 L 81.34375 69.847656 C 81.34375 69.109375 80.753906 68.515625 80.023438 68.515625 " fill-opacity="1" fill-rule="nonzero"/><path fill="#a4c4d2" d="M 78.363281 71.269531 L 71.066406 71.269531 L 71.066406 69.121094 L 78.363281 69.121094 L 78.363281 71.269531 " fill-opacity="1" fill-rule="nonzero"/><path fill="#a4c4d2" d="M 75.917969 76.164062 C 75.917969 78.867188 73.742188 81.054688 71.058594 81.054688 C 68.375 81.054688 66.199219 78.867188 66.199219 76.164062 C 66.199219 73.464844 68.375 71.269531 71.058594 71.269531 C 73.742188 71.269531 75.917969 73.464844 75.917969 76.164062 " fill-opacity="1" fill-rule="nonzero"/><path fill="#22253d" d="M 74.878906 76.164062 C 74.878906 78.289062 73.167969 80.011719 71.058594 80.011719 C 68.949219 80.011719 67.238281 78.289062 67.238281 76.164062 C 67.238281 74.039062 68.949219 72.316406 71.058594 72.316406 C 73.167969 72.316406 74.878906 74.039062 74.878906 76.164062 " fill-opacity="1" fill-rule="nonzero"/><path fill="#a4c4d2" d="M 74.425781 76.164062 C 74.425781 78.035156 72.917969 79.550781 71.058594 79.550781 C 69.203125 79.550781 67.695312 78.035156 67.695312 76.164062 C 67.695312 74.292969 69.203125 72.777344 71.058594 72.777344 C 72.917969 72.777344 74.425781 74.292969 74.425781 76.164062 " fill-opacity="1" fill-rule="nonzero"/><path fill="#4e2c6a" d="M 73.808594 76.164062 C 73.808594 77.695312 72.578125 78.933594 71.058594 78.933594 C 69.539062 78.933594 68.308594 77.695312 68.308594 76.164062 C 68.308594 74.636719 69.539062 73.394531 71.058594 73.394531 C 72.578125 73.394531 73.808594 74.636719 73.808594 76.164062 " fill-opacity="1" fill-rule="nonzero"/><path fill="#a4c4d2" d="M 78.117188 71.019531 L 75.535156 71.019531 L 75.535156 69.367188 L 78.117188 69.367188 L 78.117188 71.019531 " fill-opacity="1" fill-rule="nonzero"/><path fill="#22253d" d="M 77.785156 70.710938 L 75.863281 70.710938 L 75.863281 69.675781 L 77.785156 69.675781 L 77.785156 70.710938 " fill-opacity="1" fill-rule="nonzero"/><path fill="#22253d" d="M 73.246094 70.613281 L 71.5625 70.613281 L 71.5625 69.773438 L 73.246094 69.773438 L 73.246094 70.613281 " fill-opacity="1" fill-rule="nonzero"/><path fill="#a4c4d2" d="M 64.046875 70.664062 C 64.046875 70.984375 63.785156 71.246094 63.46875 71.246094 C 63.148438 71.246094 62.890625 70.984375 62.890625 70.664062 C 62.890625 70.339844 63.148438 70.082031 63.46875 70.082031 C 63.785156 70.082031 64.046875 70.339844 64.046875 70.664062 " fill-opacity="1" fill-rule="nonzero"/><path fill="#a4c4d2" d="M 65.648438 74.242188 C 65.648438 74.621094 65.34375 74.929688 64.964844 74.929688 C 64.585938 74.929688 64.28125 74.621094 64.28125 74.242188 C 64.28125 73.859375 64.585938 73.550781 64.964844 73.550781 C 65.34375 73.550781 65.648438 73.859375 65.648438 74.242188 " fill-opacity="1" fill-rule="nonzero"/><path fill="#22253d" d="M 65.257812 74.242188 C 65.257812 74.402344 65.125 74.535156 64.964844 74.535156 C 64.804688 74.535156 64.675781 74.402344 64.675781 74.242188 C 64.675781 74.078125 64.804688 73.949219 64.964844 73.949219 C 65.125 73.949219 65.257812 74.078125 65.257812 74.242188 " fill-opacity="1" fill-rule="nonzero"/><path fill="#22253d" d="M 76.824219 68.515625 C 76.796875 68.398438 76.675781 68.273438 76.527344 68.21875 L 74.003906 67.324219 C 73.835938 67.265625 73.699219 67.074219 73.699219 66.894531 L 73.699219 65.6875 C 73.699219 65.511719 73.554688 65.367188 73.378906 65.367188 L 66.480469 65.367188 C 66.304688 65.367188 66.160156 65.511719 66.160156 65.6875 L 66.160156 66.894531 C 66.160156 67.074219 66.023438 67.265625 65.855469 67.324219 L 63.332031 68.21875 C 63.1875 68.273438 63.0625 68.398438 63.035156 68.515625 L 76.824219 68.515625 " fill-opacity="1" fill-rule="nonzero"/><path fill="#a4c4d2" d="M 70.449219 67.945312 L 66.867188 67.945312 L 66.867188 65.820312 L 70.449219 65.820312 L 70.449219 67.945312 " fill-opacity="1" fill-rule="nonzero"/><path fill="#a4c4d2" d="M 73.125 66.882812 L 70.902344 66.882812 L 70.902344 65.820312 L 73.125 65.820312 L 73.125 66.882812 " fill-opacity="1" fill-rule="nonzero"/><path fill="#a4c4d2" d="M 73.125 68.171875 L 70.902344 68.171875 L 70.902344 67.109375 L 73.125 67.109375 L 73.125 68.171875 " fill-opacity="1" fill-rule="nonzero"/><g clip-path="url(#7cc81e6c2e)"><path fill="#f5866c" d="M 87.707031 102.941406 C 84.617188 98.15625 80.824219 92.375 76.191406 85.453125 L 71.066406 87.539062 C 71.316406 88.503906 74.199219 94.121094 78.597656 102.941406 L 87.707031 102.941406 " fill-opacity="1" fill-rule="nonzero"/></g><path fill="#f5866c" d="M 77.445312 82.898438 C 77.445312 80.222656 77.445312 76.75 77.445312 76.75 C 77.445312 76.75 77.234375 76.09375 76.199219 76.75 C 75.160156 77.40625 75.183594 80.460938 74.28125 80.683594 C 74.28125 80.683594 71.269531 82.4375 69.007812 81.054688 C 66.742188 79.675781 66.25 78.652344 65.648438 77.34375 C 65.648438 77.34375 64.8125 76.546875 64.675781 78.367188 C 64.539062 80.1875 65.382812 84.136719 67.238281 85.484375 C 67.238281 85.484375 70.039062 88.390625 72.402344 88.105469 C 74.769531 87.820312 77.445312 85.574219 77.445312 82.898438 " fill-opacity="1" fill-rule="nonzero"/><g clip-path="url(#ef8f509b1e)"><path fill="#22253d" d="M 67.753906 102.941406 C 64.777344 93.191406 63.664062 85.738281 63.664062 85.738281 C 61.953125 85.277344 60.773438 86.515625 60.773438 86.515625 C 61.488281 92.539062 62.492188 97.992188 63.714844 102.941406 L 67.753906 102.941406 " fill-opacity="1" fill-rule="nonzero"/></g><g clip-path="url(#6a96c11fe5)"><path fill="#f5866c" d="M 57.195312 102.941406 C 60.371094 91.472656 61.34375 84.703125 61.527344 83.539062 L 58.203125 81.054688 C 53.980469 90.277344 50.777344 97.421875 48.351562 102.941406 L 57.195312 102.941406 " fill-opacity="1" fill-rule="nonzero"/></g><path fill="#f5866c" d="M 60.773438 84.289062 C 60.773438 84.289062 63.925781 83.027344 63.46875 81.464844 C 63.011719 79.902344 61.066406 76.488281 61.050781 75.976562 C 61.03125 75.460938 64.953125 72.546875 64.660156 71.269531 C 64.367188 69.996094 61.527344 72.375 61.527344 72.375 C 61.527344 72.375 63.289062 69.144531 62.726562 68.515625 C 62.164062 67.890625 58.316406 70.683594 57.582031 73.949219 C 56.84375 77.210938 57.636719 78.335938 58.203125 81.054688 L 57.335938 82.949219 L 60.773438 84.289062 " fill-opacity="1" fill-rule="nonzero"/></svg>