<svg xmlns="http://www.w3.org/2000/svg" xmlns:xlink="http://www.w3.org/1999/xlink" width="200" zoomAndPan="magnify" viewBox="0 0 150 149.999998" height="200" preserveAspectRatio="xMidYMid meet" version="1.0"><defs><clipPath id="24aebea225"><path d="M 86 104.378906 L 92.664062 104.378906 L 92.664062 104.996094 L 86 104.996094 Z M 86 104.378906 " clip-rule="nonzero"/></clipPath><clipPath id="9ba5efc754"><path d="M 84.539062 100.765625 L 93.75 100.765625 L 93.75 104.996094 L 84.539062 104.996094 Z M 84.539062 100.765625 " clip-rule="nonzero"/></clipPath><clipPath id="23ca1f9bc2"><path d="M 56.398438 65.226562 L 92.664062 65.226562 L 92.664062 104.996094 L 56.398438 104.996094 Z M 56.398438 65.226562 " clip-rule="nonzero"/></clipPath><clipPath id="1e0ab26121"><path d="M 61.332031 98.890625 L 62.492188 98.890625 L 62.492188 104.996094 L 61.332031 104.996094 Z M 61.332031 98.890625 " clip-rule="nonzero"/></clipPath><clipPath id="fd5c4efbcd"><path d="M 61.476562 98.890625 L 64.957031 98.890625 L 64.957031 104.996094 L 61.476562 104.996094 Z M 61.476562 98.890625 " clip-rule="nonzero"/></clipPath><clipPath id="98f58ffe39"><path d="M 64.230469 65.226562 L 89.617188 65.226562 L 89.617188 104.996094 L 64.230469 104.996094 Z M 64.230469 65.226562 " clip-rule="nonzero"/></clipPath><clipPath id="eec383f99c"><path d="M 69.308594 63.636719 L 71.917969 63.636719 L 71.917969 66.238281 L 69.308594 66.238281 Z M 69.308594 63.636719 " clip-rule="nonzero"/></clipPath><clipPath id="ff5f769c2d"><path d="M 70.605469 63.75 C 69.933594 63.75 69.390625 64.292969 69.390625 64.960938 C 69.390625 65.632812 69.933594 66.171875 70.605469 66.171875 C 71.277344 66.171875 71.820312 65.632812 71.820312 64.960938 C 71.820312 64.292969 71.277344 63.75 70.605469 63.75 " clip-rule="nonzero"/></clipPath></defs><g clip-path="url(#24aebea225)"><path fill="#31455b" d="M 90.351562 104.472656 L 86.125 104.996094 L 92.621094 104.996094 C 91.960938 104.566406 91.160156 104.371094 90.351562 104.472656 " fill-opacity="1" fill-rule="nonzero"/></g><g clip-path="url(#9ba5efc754)"><path fill="#1d2f44" d="M 86.226562 100.886719 C 84.421875 100.292969 84.296875 102.394531 84.917969 104.996094 L 93.75 104.996094 C 92.242188 103.441406 90.242188 102.210938 86.226562 100.886719 " fill-opacity="1" fill-rule="nonzero"/></g><g clip-path="url(#23ca1f9bc2)"><path fill="#fa9416" d="M 88.355469 100.171875 L 90.042969 91.3125 C 91.671875 87.402344 92.535156 83.1875 92.535156 78.898438 L 92.535156 75.117188 C 92.535156 69.65625 92.042969 65.226562 86.558594 65.226562 L 63.71875 65.226562 C 60.015625 65.226562 57.015625 68.214844 57.015625 71.902344 L 57.015625 73.210938 C 55.921875 78.769531 56.285156 84.515625 58.074219 89.894531 L 61.917969 93.488281 L 62.328125 99.097656 C 62.535156 101.949219 62.132812 103.199219 61.511719 104.996094 L 88.597656 104.996094 C 88.191406 103.433594 87.875 102.699219 88.355469 100.171875 " fill-opacity="1" fill-rule="nonzero"/></g><g clip-path="url(#1e0ab26121)"><path fill="#ededed" d="M 62.382812 100.460938 C 62.378906 102.34375 61.96875 103.03125 61.402344 104.996094 L 61.511719 104.996094 C 62.023438 103.511719 62.386719 102.40625 62.382812 100.460938 M 62.328125 99.097656 C 62.328125 99.097656 62.328125 99.101562 62.328125 99.105469 C 62.328125 99.101562 62.328125 99.097656 62.328125 99.097656 M 62.320312 98.980469 L 62.328125 99.097656 L 62.320312 98.980469 " fill-opacity="1" fill-rule="nonzero"/></g><g clip-path="url(#fd5c4efbcd)"><path fill="#e88a14" d="M 62.320312 98.980469 L 62.328125 99.097656 C 62.328125 99.097656 62.328125 99.101562 62.328125 99.105469 C 62.367188 99.621094 62.382812 100.066406 62.382812 100.460938 C 62.386719 102.40625 62.023438 103.511719 61.511719 104.996094 L 64.875 104.996094 C 63.636719 103.519531 62.761719 101.59375 62.320312 98.980469 " fill-opacity="1" fill-rule="nonzero"/></g><g clip-path="url(#98f58ffe39)"><path fill="#31455b" d="M 74.105469 91.40625 C 69.644531 84.566406 67.003906 76.03125 66.035156 65.304688 L 64.261719 65.464844 C 65.257812 76.484375 67.988281 85.285156 72.613281 92.371094 C 76.566406 98.433594 81.195312 100.472656 84.917969 103.4375 C 85.589844 103.976562 86.238281 104.492188 86.847656 104.996094 L 89.570312 104.996094 C 88.523438 104.042969 87.328125 103.085938 86.027344 102.054688 C 82.410156 99.167969 77.902344 97.226562 74.105469 91.40625 " fill-opacity="1" fill-rule="nonzero"/></g><path fill="#e88a14" d="M 67.195312 73.558594 C 67.199219 73.5625 67.199219 73.566406 67.199219 73.570312 L 67.199219 73.558594 L 67.195312 73.558594 " fill-opacity="1" fill-rule="nonzero"/><path fill="#ededed" d="M 62.054688 95.375 L 62.320312 98.980469 L 62.054688 95.375 " fill-opacity="1" fill-rule="nonzero"/><path fill="#e88a14" d="M 66.207031 77.296875 L 66.382812 86.914062 C 66.382812 89.390625 65.464844 91.78125 63.804688 93.625 C 63.800781 93.625 63.800781 93.625 63.800781 93.628906 C 63.796875 93.628906 63.796875 93.632812 63.796875 93.632812 C 63.792969 93.636719 63.789062 93.640625 63.789062 93.640625 L 62.601562 94.953125 C 62.441406 95.128906 62.257812 95.269531 62.054688 95.375 L 62.320312 98.980469 C 62.730469 98.902344 63.117188 98.699219 63.417969 98.367188 L 64.605469 97.058594 C 66.273438 95.210938 67.199219 92.8125 67.199219 90.328125 L 67.199219 80.78125 C 66.839844 79.652344 66.507812 78.492188 66.207031 77.296875 " fill-opacity="1" fill-rule="nonzero"/><path fill="#2e4055" d="M 66.308594 71.441406 L 66.105469 71.609375 L 66.207031 77.296875 C 66.507812 78.492188 66.839844 79.652344 67.199219 80.78125 L 67.199219 73.570312 C 67.199219 73.566406 67.199219 73.5625 67.195312 73.558594 L 67.179688 73.546875 C 66.746094 73.269531 66.484375 72.796875 66.484375 72.285156 L 66.484375 71.578125 L 66.398438 71.515625 C 66.367188 71.492188 66.339844 71.46875 66.308594 71.441406 " fill-opacity="1" fill-rule="nonzero"/><path fill="#ededed" d="M 90.042969 91.3125 L 88.472656 99.558594 L 90.042969 91.3125 " fill-opacity="1" fill-rule="nonzero"/><path fill="#e88a14" d="M 74.800781 83.988281 C 74.972656 89.328125 76.164062 93.085938 77.675781 95.730469 C 80.523438 98.46875 83.484375 100.027344 86.011719 102.039062 C 87.003906 102.035156 87.925781 101.34375 88.132812 100.292969 C 88.253906 100.03125 88.367188 99.789062 88.472656 99.558594 L 90.042969 91.3125 L 86.097656 98.03125 C 85.851562 98.90625 85.058594 99.441406 84.226562 99.441406 C 83.894531 99.441406 83.5625 99.359375 83.25 99.179688 L 82.683594 98.851562 C 79.546875 97.03125 77.292969 94.007812 76.457031 90.488281 L 74.800781 83.988281 " fill-opacity="1" fill-rule="nonzero"/><path fill="#2e4055" d="M 77.675781 95.730469 C 80.714844 101.039062 85.0625 101.828125 85.0625 101.828125 C 85.367188 101.972656 85.683594 102.039062 85.996094 102.039062 C 86.003906 102.039062 86.007812 102.039062 86.011719 102.039062 C 83.484375 100.027344 80.523438 98.46875 77.675781 95.730469 " fill-opacity="1" fill-rule="nonzero"/><path fill="#e88a14" d="M 82.660156 75.191406 L 80.488281 79.984375 L 81.394531 81.683594 L 82.660156 75.191406 " fill-opacity="1" fill-rule="nonzero"/><path fill="#f2c386" d="M 60.523438 61.632812 L 58.546875 62.835938 L 58.285156 67.839844 L 59.652344 69.8125 C 60.109375 70.5 60.824219 70.980469 61.632812 71.152344 L 58.027344 83.902344 C 57.085938 87.714844 57.722656 91.746094 59.800781 95.085938 C 60.609375 95.824219 61.867188 95.765625 62.601562 94.953125 L 63.789062 93.640625 C 65.457031 91.796875 66.382812 89.398438 66.382812 86.914062 L 66.027344 67.308594 L 60.523438 61.632812 " fill-opacity="1" fill-rule="nonzero"/><path fill="#e8b170" d="M 59.855469 62.039062 C 59.699219 63.230469 59.667969 64.882812 59.792969 65.941406 L 58.960938 67.699219 C 58.96875 67.757812 60.183594 67.789062 60.914062 68.546875 C 61.277344 68.925781 61.929688 69.027344 62.355469 68.847656 C 63.304688 68.441406 65.234375 68.59375 66.382812 69.171875 L 66.382812 67.308594 L 60.523438 61.632812 L 59.855469 62.039062 " fill-opacity="1" fill-rule="nonzero"/><path fill="#e8b170" d="M 63.558594 64.761719 L 63.449219 65.203125 L 64.257812 68.320312 L 64.945312 69.199219 L 66.125 72.769531 L 66.027344 67.308594 L 63.558594 64.761719 " fill-opacity="1" fill-rule="nonzero"/><path fill="#f2c386" d="M 83.304688 56.632812 L 67.011719 56.632812 C 66.296875 56.632812 65.738281 57.25 65.816406 57.957031 L 66.144531 60.960938 C 66.195312 61.453125 66.609375 61.820312 67.105469 61.820312 L 83.210938 61.820312 C 83.703125 61.820312 84.117188 61.453125 84.171875 60.960938 L 84.496094 57.957031 C 84.574219 57.25 84.019531 56.632812 83.304688 56.632812 " fill-opacity="1" fill-rule="nonzero"/><path fill="#e8b170" d="M 82.804688 57.082031 L 67.507812 57.082031 C 66.839844 57.082031 66.316406 57.535156 66.386719 58.058594 L 66.695312 60.273438 C 66.746094 60.636719 67.132812 60.910156 67.597656 60.910156 L 82.71875 60.910156 C 83.179688 60.910156 83.570312 60.636719 83.621094 60.273438 L 83.925781 58.058594 C 84 57.535156 83.476562 57.082031 82.804688 57.082031 " fill-opacity="1" fill-rule="nonzero"/><path fill="#f2c386" d="M 75.15625 49.074219 C 70.738281 49.074219 67.152344 52.644531 67.152344 57.046875 L 67.152344 63.15625 C 67.152344 67.558594 70.738281 71.128906 75.15625 71.128906 C 79.578125 71.128906 83.160156 67.558594 83.160156 63.15625 L 83.160156 57.046875 C 83.160156 52.644531 79.578125 49.074219 75.15625 49.074219 " fill-opacity="1" fill-rule="nonzero"/><path fill="#e8b170" d="M 75.804688 63.394531 C 74.65625 63.394531 73.726562 63.597656 73.726562 63.851562 C 73.726562 64.105469 77.882812 64.105469 77.882812 63.851562 C 77.882812 63.597656 76.953125 63.394531 75.804688 63.394531 " fill-opacity="1" fill-rule="nonzero"/><path fill="#1d2f44" d="M 80.9375 64.972656 C 80.109375 65.644531 79.835938 65.25 79.285156 64.855469 C 78.703125 64.4375 77.808594 64.019531 75.625 64.855469 C 72.367188 66.097656 70.949219 67.136719 69.691406 66.351562 C 68.214844 65.421875 67.953125 61.910156 67.152344 59.574219 L 67.152344 63.15625 C 67.152344 67.558594 70.738281 71.972656 75.15625 71.972656 C 79.578125 71.972656 83.160156 67.558594 83.160156 63.15625 L 83.160156 59.574219 C 82.664062 61.332031 82.59375 63.632812 80.9375 64.972656 " fill-opacity="1" fill-rule="nonzero"/><path fill="#1d2f44" d="M 83.203125 51.359375 L 82.359375 49.882812 L 83.054688 47.105469 L 81.152344 47.105469 L 81.714844 45 L 76.972656 45 C 73.253906 45 69.84375 47.054688 68.113281 50.332031 C 67.242188 51.027344 66.628906 52.011719 66.480469 53.113281 C 66.417969 53.578125 66.410156 54.054688 66.457031 54.527344 L 67.152344 59.574219 C 67.25 57.019531 67.878906 54.773438 69.5 53.058594 L 73.871094 54.332031 C 76.425781 55.074219 79.128906 55.140625 81.714844 54.527344 C 82.824219 55.726562 83.074219 57.570312 83.160156 59.574219 L 83.824219 54.574219 C 83.902344 53.777344 83.820312 52.972656 83.582031 52.207031 C 83.488281 51.910156 83.359375 51.628906 83.203125 51.359375 " fill-opacity="1" fill-rule="nonzero"/><path fill="#19283a" d="M 80.132812 46.4375 C 77.992188 46.4375 73.398438 46.710938 70.773438 48.90625 C 73.195312 47.265625 78.316406 47.097656 80.324219 47.097656 C 80.84375 47.097656 81.152344 47.105469 81.152344 47.105469 L 81.289062 46.46875 C 81.289062 46.46875 80.847656 46.4375 80.132812 46.4375 " fill-opacity="1" fill-rule="nonzero"/><path fill="#19283a" d="M 81.289062 51.878906 C 81.289062 51.878906 79.246094 53.128906 75.457031 53.128906 C 73.902344 53.128906 72.050781 52.917969 69.929688 52.324219 C 70.363281 52.734375 73.527344 53.589844 76.683594 53.589844 C 78.359375 53.589844 80.03125 53.347656 81.289062 52.671875 L 81.289062 51.878906 " fill-opacity="1" fill-rule="nonzero"/><path fill="#19283a" d="M 82.359375 49.882812 C 82.359375 49.882812 79.410156 51.304688 73.148438 51.304688 C 73.945312 51.339844 74.78125 51.363281 75.632812 51.363281 C 78.015625 51.363281 80.535156 51.175781 82.730469 50.53125 L 82.359375 49.882812 " fill-opacity="1" fill-rule="nonzero"/><path fill="#e8b170" d="M 80.378906 59.222656 C 80.320312 59.226562 80.277344 59.277344 80.277344 59.335938 C 80.28125 59.394531 80.332031 59.4375 80.390625 59.433594 C 80.777344 59.410156 81.308594 59.667969 81.382812 59.921875 C 81.398438 59.964844 81.4375 59.996094 81.484375 59.996094 L 81.515625 59.992188 C 81.570312 59.972656 81.601562 59.914062 81.585938 59.859375 C 81.472656 59.484375 80.828125 59.195312 80.378906 59.222656 " fill-opacity="1" fill-rule="nonzero"/><path fill="#e8b170" d="M 81.582031 58.109375 C 81.527344 58.089844 81.46875 58.121094 81.449219 58.175781 C 81.308594 58.597656 80.804688 59.019531 80.117188 59.019531 L 80.09375 59.019531 C 80.035156 59.019531 79.988281 59.066406 79.988281 59.121094 C 79.988281 59.179688 80.035156 59.226562 80.09375 59.230469 L 80.117188 59.230469 C 80.902344 59.230469 81.484375 58.734375 81.652344 58.242188 C 81.667969 58.1875 81.640625 58.128906 81.582031 58.109375 " fill-opacity="1" fill-rule="nonzero"/><path fill="#1d2f44" d="M 80.457031 56.925781 C 79.417969 56.367188 78.117188 56.566406 77.289062 57.40625 C 77.039062 57.65625 77.042969 58.003906 77.226562 58.101562 C 77.414062 58.203125 77.664062 58.105469 77.832031 57.941406 C 78.425781 57.339844 79.355469 57.199219 80.097656 57.597656 C 80.308594 57.707031 80.574219 57.722656 80.722656 57.574219 C 80.871094 57.421875 80.769531 57.089844 80.457031 56.925781 " fill-opacity="1" fill-rule="nonzero"/><path fill="#343c42" d="M 80.15625 58.945312 C 79.324219 58.660156 78.4375 58.757812 77.726562 59.171875 C 77.632812 59.226562 77.597656 59.335938 77.640625 59.414062 C 77.679688 59.476562 77.765625 59.496094 77.832031 59.460938 C 78.507812 59.125 79.296875 59.109375 79.980469 59.410156 C 80.113281 59.464844 80.269531 59.429688 80.339844 59.3125 C 80.414062 59.1875 80.332031 59.007812 80.15625 58.945312 " fill-opacity="1" fill-rule="nonzero"/><path fill="#31455b" d="M 72.757812 66.035156 C 72.664062 66.074219 72.570312 66.113281 72.476562 66.148438 L 72.476562 71.414062 C 72.570312 71.453125 72.664062 71.492188 72.757812 71.527344 L 72.757812 66.035156 " fill-opacity="1" fill-rule="nonzero"/><path fill="#31455b" d="M 73.605469 65.679688 C 73.507812 65.71875 73.414062 65.757812 73.324219 65.796875 L 73.324219 71.710938 C 73.417969 71.738281 73.511719 71.765625 73.605469 71.785156 L 73.605469 65.679688 " fill-opacity="1" fill-rule="nonzero"/><path fill="#31455b" d="M 70.785156 70.421875 C 70.878906 70.492188 70.972656 70.5625 71.066406 70.628906 L 71.066406 66.585938 C 70.96875 66.601562 70.875 66.613281 70.785156 66.617188 L 70.785156 70.421875 " fill-opacity="1" fill-rule="nonzero"/><path fill="#31455b" d="M 74.453125 65.324219 C 74.355469 65.363281 74.261719 65.402344 74.171875 65.441406 L 74.171875 71.894531 C 74.261719 71.910156 74.359375 71.921875 74.453125 71.929688 L 74.453125 65.324219 " fill-opacity="1" fill-rule="nonzero"/><path fill="#31455b" d="M 75.296875 64.980469 C 75.203125 65.019531 75.109375 65.054688 75.015625 65.09375 L 75.015625 71.96875 C 75.0625 71.96875 75.109375 71.972656 75.15625 71.972656 C 75.203125 71.972656 75.25 71.96875 75.296875 71.96875 L 75.296875 64.980469 " fill-opacity="1" fill-rule="nonzero"/><path fill="#31455b" d="M 76.992188 64.453125 C 76.898438 64.46875 76.804688 64.488281 76.707031 64.511719 L 76.707031 71.785156 C 76.804688 71.765625 76.898438 71.738281 76.992188 71.710938 L 76.992188 64.453125 " fill-opacity="1" fill-rule="nonzero"/><path fill="#31455b" d="M 68.527344 64.628906 C 68.425781 64.359375 68.332031 64.070312 68.246094 63.765625 L 68.246094 67.394531 C 68.335938 67.5625 68.429688 67.730469 68.527344 67.894531 L 68.527344 64.628906 " fill-opacity="1" fill-rule="nonzero"/><path fill="#31455b" d="M 71.914062 66.359375 C 71.816406 66.394531 71.722656 66.425781 71.632812 66.453125 L 71.632812 70.988281 C 71.722656 71.042969 71.820312 71.09375 71.914062 71.144531 L 71.914062 66.359375 " fill-opacity="1" fill-rule="nonzero"/><path fill="#31455b" d="M 69.375 66.089844 C 69.273438 65.992188 69.179688 65.878906 69.09375 65.753906 L 69.09375 68.714844 C 69.183594 68.835938 69.277344 68.953125 69.375 69.070312 L 69.375 66.089844 " fill-opacity="1" fill-rule="nonzero"/><path fill="#31455b" d="M 67.398438 65.179688 C 67.476562 65.496094 67.570312 65.8125 67.683594 66.117188 L 67.683594 61.496094 C 67.589844 61.117188 67.5 60.742188 67.398438 60.382812 L 67.398438 65.179688 " fill-opacity="1" fill-rule="nonzero"/><path fill="#31455b" d="M 81.785156 67.894531 C 81.886719 67.730469 81.980469 67.5625 82.070312 67.394531 L 82.070312 63.515625 C 81.984375 63.6875 81.890625 63.855469 81.785156 64.019531 L 81.785156 67.894531 " fill-opacity="1" fill-rule="nonzero"/><path fill="#31455b" d="M 75.863281 71.929688 C 75.957031 71.921875 76.050781 71.910156 76.144531 71.894531 L 76.144531 64.675781 C 76.054688 64.703125 75.957031 64.734375 75.863281 64.769531 L 75.863281 71.929688 " fill-opacity="1" fill-rule="nonzero"/><path fill="#31455b" d="M 69.9375 69.679688 C 70.03125 69.773438 70.125 69.863281 70.21875 69.949219 L 70.21875 66.574219 C 70.125 66.550781 70.03125 66.519531 69.9375 66.480469 L 69.9375 69.679688 " fill-opacity="1" fill-rule="nonzero"/><path fill="#31455b" d="M 82.914062 60.601562 C 82.824219 61.019531 82.738281 61.449219 82.632812 61.878906 L 82.632812 66.117188 C 82.742188 65.8125 82.839844 65.496094 82.914062 65.179688 L 82.914062 60.601562 " fill-opacity="1" fill-rule="nonzero"/><path fill="#31455b" d="M 80.941406 69.070312 C 81.035156 68.953125 81.128906 68.835938 81.222656 68.714844 L 81.222656 64.714844 C 81.132812 64.804688 81.039062 64.890625 80.941406 64.96875 L 80.941406 69.070312 " fill-opacity="1" fill-rule="nonzero"/><path fill="#31455b" d="M 78.683594 64.527344 C 78.59375 64.492188 78.503906 64.464844 78.402344 64.441406 L 78.402344 71.144531 C 78.496094 71.09375 78.589844 71.042969 78.683594 70.988281 L 78.683594 64.527344 " fill-opacity="1" fill-rule="nonzero"/><path fill="#31455b" d="M 77.835938 64.375 C 77.746094 64.371094 77.65625 64.375 77.554688 64.378906 L 77.554688 71.527344 C 77.648438 71.492188 77.742188 71.453125 77.835938 71.414062 L 77.835938 64.375 " fill-opacity="1" fill-rule="nonzero"/><path fill="#31455b" d="M 79.53125 65.039062 C 79.441406 64.972656 79.351562 64.898438 79.246094 64.828125 L 79.246094 70.628906 C 79.34375 70.5625 79.4375 70.492188 79.53125 70.421875 L 79.53125 65.039062 " fill-opacity="1" fill-rule="nonzero"/><path fill="#31455b" d="M 80.375 69.679688 L 80.375 65.300781 C 80.273438 65.332031 80.179688 65.339844 80.09375 65.328125 L 80.09375 69.949219 C 80.191406 69.863281 80.285156 69.773438 80.375 69.679688 " fill-opacity="1" fill-rule="nonzero"/><path fill="#efb386" d="M 78.085938 65.386719 C 75.871094 67.511719 72.292969 67.898438 72.292969 67.898438 C 72.292969 67.898438 74.488281 69.394531 76.851562 69.160156 C 79.289062 68.917969 79.285156 65.601562 78.085938 65.386719 " fill-opacity="1" fill-rule="nonzero"/><path fill="#4c2929" d="M 72.292969 67.898438 C 72.292969 67.898438 74.28125 69.539062 76.773438 68.710938 C 77.953125 68.320312 79.074219 66.417969 78.085938 65.386719 C 75.871094 67.511719 72.292969 67.898438 72.292969 67.898438 " fill-opacity="1" fill-rule="nonzero"/><path fill="#f1f2f2" d="M 72.292969 67.898438 L 72.300781 67.902344 C 72.667969 68.195312 73.144531 68.304688 73.605469 68.226562 C 74.679688 68.039062 76.824219 67.527344 78.457031 66.210938 C 78.425781 65.910156 78.316406 65.625 78.085938 65.386719 C 75.871094 67.511719 72.292969 67.898438 72.292969 67.898438 " fill-opacity="1" fill-rule="nonzero"/><path fill="#343c42" d="M 65.011719 58.003906 L 64.742188 58.003906 C 64.578125 58.003906 64.445312 58.136719 64.445312 58.296875 L 64.445312 58.992188 C 64.445312 59.15625 64.578125 59.285156 64.742188 59.285156 L 65.011719 59.285156 C 65.175781 59.285156 65.304688 59.15625 65.304688 58.992188 L 65.304688 58.296875 C 65.304688 58.136719 65.175781 58.003906 65.011719 58.003906 " fill-opacity="1" fill-rule="nonzero"/><path fill="#343c42" d="M 66.226562 57.691406 L 65.953125 57.691406 C 65.792969 57.691406 65.660156 57.824219 65.660156 57.984375 L 65.660156 58.679688 C 65.660156 58.84375 65.792969 58.972656 65.953125 58.972656 L 66.226562 58.972656 C 66.386719 58.972656 66.519531 58.84375 66.519531 58.679688 L 66.519531 57.984375 C 66.519531 57.824219 66.386719 57.691406 66.226562 57.691406 " fill-opacity="1" fill-rule="nonzero"/><path fill="#343c42" d="M 75.933594 58.15625 L 74.675781 57.804688 C 74.503906 57.757812 74.328125 57.855469 74.28125 58.027344 L 74.070312 58.777344 C 74.019531 58.949219 74.121094 59.125 74.292969 59.171875 L 75.550781 59.523438 C 75.71875 59.570312 75.898438 59.46875 75.945312 59.300781 L 76.15625 58.546875 C 76.203125 58.378906 76.101562 58.203125 75.933594 58.15625 " fill-opacity="1" fill-rule="nonzero"/><path fill="#272d33" d="M 75.714844 58.777344 L 74.863281 58.386719 C 74.285156 58.121094 73.855469 57.628906 73.671875 57.035156 C 73.632812 56.917969 73.605469 56.796875 73.589844 56.671875 C 73.476562 55.824219 72.75 55.195312 71.890625 55.195312 L 69.335938 55.195312 C 68.535156 55.195312 67.84375 55.742188 67.664062 56.515625 C 67.46875 57.351562 66.824219 58.011719 65.988281 58.230469 L 61.511719 59.394531 C 60.769531 59.585938 60.054688 60.359375 59.921875 61.109375 C 59.710938 62.296875 59.652344 64.25 59.792969 65.449219 L 59.964844 66.953125 C 60.074219 67.902344 60.949219 68.679688 61.910156 68.679688 L 74.714844 68.679688 C 75.675781 68.679688 76.554688 67.902344 76.667969 66.953125 C 76.945312 64.617188 76.914062 62.257812 76.578125 59.933594 C 76.503906 59.425781 76.179688 58.992188 75.714844 58.777344 " fill-opacity="1" fill-rule="nonzero"/><path fill="#23282e" d="M 71.890625 55.816406 L 69.335938 55.816406 C 68.824219 55.816406 68.402344 56.167969 68.273438 56.65625 C 68.183594 56.988281 68.238281 57.277344 68.394531 57.519531 C 68.492188 57.488281 68.59375 57.476562 68.699219 57.476562 C 68.703125 57.476562 68.703125 57.476562 68.703125 57.476562 L 72.507812 57.476562 C 72.652344 57.476562 72.796875 57.503906 72.925781 57.554688 C 73.039062 57.332031 73.066406 57.066406 72.972656 56.757812 C 72.816406 56.238281 72.433594 55.816406 71.890625 55.816406 " fill-opacity="1" fill-rule="nonzero"/><path fill="#f1f2f2" d="M 72.105469 56.035156 L 69.105469 56.035156 C 68.984375 56.035156 68.886719 56.132812 68.886719 56.253906 L 68.886719 57.089844 C 68.886719 57.210938 68.984375 57.308594 69.105469 57.308594 L 72.105469 57.308594 C 72.222656 57.308594 72.320312 57.210938 72.320312 57.089844 L 72.320312 56.253906 C 72.320312 56.132812 72.222656 56.035156 72.105469 56.035156 " fill-opacity="1" fill-rule="nonzero"/><path fill="#d1d3d4" d="M 70.554688 57.308594 L 70.671875 57.308594 L 70.671875 56.035156 L 70.554688 56.035156 L 70.554688 57.308594 " fill-opacity="1" fill-rule="nonzero"/><path fill="#d1d3d4" d="M 71.164062 57.308594 L 71.28125 57.308594 L 71.28125 56.035156 L 71.164062 56.035156 L 71.164062 57.308594 " fill-opacity="1" fill-rule="nonzero"/><path fill="#d1d3d4" d="M 71.773438 57.308594 L 71.890625 57.308594 L 71.890625 56.035156 L 71.773438 56.035156 L 71.773438 57.308594 " fill-opacity="1" fill-rule="nonzero"/><path fill="#d1d3d4" d="M 69.929688 57.308594 L 70.046875 57.308594 L 70.046875 56.035156 L 69.929688 56.035156 L 69.929688 57.308594 " fill-opacity="1" fill-rule="nonzero"/><path fill="#d1d3d4" d="M 69.320312 57.308594 L 69.4375 57.308594 L 69.4375 56.035156 L 69.320312 56.035156 L 69.320312 57.308594 " fill-opacity="1" fill-rule="nonzero"/><path fill="#23282e" d="M 73.671875 57.035156 L 75.300781 62.226562 C 75.335938 62.339844 75.429688 62.390625 75.519531 62.390625 C 75.648438 62.390625 75.78125 62.289062 75.753906 62.125 L 75.394531 59.800781 C 75.339844 59.433594 75.449219 59.058594 75.703125 58.785156 L 75.714844 58.777344 L 74.863281 58.386719 C 74.648438 58.289062 74.457031 58.160156 74.285156 58.003906 C 74 57.742188 73.789062 57.410156 73.671875 57.035156 " fill-opacity="1" fill-rule="nonzero"/><path fill="#d09f65" d="M 66.902344 57.753906 C 66.785156 57.855469 66.65625 57.945312 66.519531 58.019531 C 66.65625 57.945312 66.785156 57.855469 66.902344 57.757812 L 66.902344 57.753906 " fill-opacity="1" fill-rule="nonzero"/><path fill="#d9af78" d="M 67.46875 57.035156 C 67.464844 57.042969 67.464844 57.050781 67.460938 57.058594 C 67.457031 57.0625 67.457031 57.066406 67.457031 57.070312 C 67.460938 57.0625 67.464844 57.050781 67.472656 57.042969 L 67.472656 57.035156 L 67.46875 57.035156 " fill-opacity="1" fill-rule="nonzero"/><path fill="#1a2a3d" d="M 67.460938 57.058594 C 67.320312 57.324219 67.128906 57.5625 66.902344 57.753906 L 66.902344 57.757812 C 67.128906 57.566406 67.316406 57.335938 67.457031 57.070312 C 67.457031 57.066406 67.457031 57.0625 67.460938 57.058594 " fill-opacity="1" fill-rule="nonzero"/><path fill="#2f363b" d="M 65.996094 58.226562 L 65.996094 58.226562 M 66 58.226562 L 66 58.226562 M 66.519531 58.019531 C 66.359375 58.109375 66.183594 58.175781 66.003906 58.226562 C 66.183594 58.175781 66.359375 58.109375 66.519531 58.019531 " fill-opacity="1" fill-rule="nonzero"/><path fill="#23282e" d="M 67.472656 57.042969 C 67.464844 57.050781 67.460938 57.0625 67.457031 57.070312 C 67.316406 57.335938 67.128906 57.566406 66.902344 57.757812 C 66.785156 57.855469 66.65625 57.945312 66.519531 58.019531 C 66.359375 58.109375 66.183594 58.175781 66.003906 58.226562 C 66.003906 58.226562 66 58.226562 66 58.226562 C 65.996094 58.226562 65.996094 58.226562 65.996094 58.226562 C 65.992188 58.226562 65.992188 58.230469 65.988281 58.230469 L 63.632812 58.839844 L 61.511719 59.394531 L 64.238281 59.152344 C 64.28125 59.148438 64.324219 59.144531 64.367188 59.144531 C 65.269531 59.144531 65.953125 60.003906 65.714844 60.894531 L 65.390625 62.125 C 65.363281 62.289062 65.496094 62.390625 65.625 62.390625 C 65.71875 62.390625 65.808594 62.339844 65.84375 62.226562 L 67.472656 57.042969 " fill-opacity="1" fill-rule="nonzero"/><path fill="#23282e" d="M 68.394531 57.519531 C 68.023438 57.625 67.726562 57.914062 67.617188 58.296875 L 66.683594 61.667969 C 67.625 60.558594 69.03125 59.851562 70.605469 59.851562 C 72.175781 59.851562 73.582031 60.558594 74.523438 61.664062 L 73.621094 58.398438 C 72.867188 58.6875 71.878906 58.863281 70.789062 58.863281 C 69.53125 58.863281 68.410156 58.628906 67.632812 58.261719 C 67.746094 57.898438 68.035156 57.621094 68.394531 57.519531 M 68.703125 57.476562 C 68.703125 57.476562 68.703125 57.476562 68.699219 57.476562 C 68.703125 57.476562 68.703125 57.476562 68.703125 57.476562 " fill-opacity="1" fill-rule="nonzero"/><path fill="#1f2429" d="M 68.699219 57.476562 C 68.59375 57.476562 68.492188 57.488281 68.394531 57.519531 C 68.492188 57.488281 68.59375 57.476562 68.699219 57.476562 M 68.703125 57.476562 C 68.703125 57.476562 68.703125 57.476562 68.699219 57.476562 C 68.703125 57.476562 68.703125 57.476562 68.703125 57.476562 " fill-opacity="1" fill-rule="nonzero"/><path fill="#2b3238" d="M 63.910156 59.082031 C 63.71875 58.933594 63.46875 58.882812 63.238281 58.945312 L 61.511719 59.394531 C 60.769531 59.585938 60.054688 60.359375 59.921875 61.109375 C 59.710938 62.296875 59.652344 64.25 59.792969 65.449219 L 59.964844 66.953125 C 60.074219 67.902344 60.949219 68.679688 61.910156 68.679688 L 62.933594 68.679688 C 63.640625 68.679688 64.210938 68.109375 64.210938 67.40625 L 64.210938 59.695312 C 64.210938 59.453125 64.101562 59.226562 63.910156 59.082031 " fill-opacity="1" fill-rule="nonzero"/><path fill="#32393f" d="M 63.238281 58.945312 L 61.511719 59.394531 C 61.226562 59.464844 60.949219 59.625 60.707031 59.835938 C 60.503906 60.007812 60.433594 60.289062 60.527344 60.535156 C 60.617188 60.785156 60.855469 60.949219 61.121094 60.949219 L 63.433594 60.949219 C 63.863281 60.949219 64.210938 60.601562 64.210938 60.171875 L 64.210938 59.695312 C 64.210938 59.1875 63.730469 58.816406 63.238281 58.945312 " fill-opacity="1" fill-rule="nonzero"/><path fill="#272d33" d="M 62.878906 59.820312 L 62.0625 59.820312 C 61.863281 59.820312 61.699219 59.980469 61.699219 60.179688 C 61.699219 60.378906 61.863281 60.539062 62.0625 60.539062 L 62.878906 60.539062 C 63.078125 60.539062 63.238281 60.378906 63.238281 60.179688 C 63.238281 59.980469 63.078125 59.820312 62.878906 59.820312 " fill-opacity="1" fill-rule="nonzero"/><path fill="#343c42" d="M 62.878906 59.648438 L 62.0625 59.648438 C 61.863281 59.648438 61.699219 59.808594 61.699219 60.007812 C 61.699219 60.207031 61.863281 60.367188 62.0625 60.367188 L 62.878906 60.367188 C 63.078125 60.367188 63.238281 60.207031 63.238281 60.007812 C 63.238281 59.808594 63.078125 59.648438 62.878906 59.648438 " fill-opacity="1" fill-rule="nonzero"/><path fill="#f2c386" d="M 77.785156 74.917969 L 77.910156 68.679688 C 77.433594 67.476562 76.910156 65.53125 77.210938 64.203125 C 77.285156 63.859375 77.019531 63.542969 76.671875 63.585938 L 76.648438 63.585938 C 76.585938 63.59375 76.523438 63.605469 76.460938 63.621094 C 75.5625 63.816406 74.980469 64.695312 75.050781 65.609375 L 75.316406 67.789062 C 75.347656 69.09375 74.03125 69.816406 72.734375 69.816406 L 66.722656 69.816406 L 65.800781 68.109375 L 65.800781 70.320312 C 65.800781 70.789062 66.019531 71.230469 66.398438 71.515625 L 66.484375 71.578125 L 66.484375 72.285156 C 66.484375 72.796875 66.746094 73.269531 67.179688 73.546875 L 67.742188 73.902344 L 67.742188 74.261719 C 67.742188 74.589844 67.9375 74.882812 68.238281 75.011719 L 73.035156 77.042969 L 76.457031 90.488281 C 77.292969 94.007812 79.546875 97.03125 82.683594 98.851562 L 83.25 99.179688 C 84.347656 99.816406 85.753906 99.25 86.097656 98.03125 C 86.414062 96.925781 86.601562 95.796875 86.664062 94.664062 C 86.824219 91.8125 85.480469 89.304688 84.097656 86.753906 L 77.785156 74.917969 " fill-opacity="1" fill-rule="nonzero"/><path fill="#ffd6a4" d="M 76.539062 64.890625 C 76.539062 65.3125 76.804688 65.667969 77.164062 65.777344 C 77.101562 65.21875 77.105469 64.679688 77.207031 64.210938 C 77.226562 64.132812 77.222656 64.058594 77.207031 63.988281 C 76.824219 64.082031 76.539062 64.449219 76.539062 64.890625 " fill-opacity="1" fill-rule="nonzero"/><path fill="#e8b170" d="M 66.484375 71.578125 L 66.484375 71.988281 L 67.097656 72.3125 C 67.152344 72.339844 67.222656 72.324219 67.253906 72.269531 C 67.289062 72.21875 67.273438 72.148438 67.222656 72.113281 L 66.484375 71.578125 " fill-opacity="1" fill-rule="nonzero"/><path fill="#e8b170" d="M 68.101562 74.117188 L 67.742188 73.902344 L 67.742188 74.140625 L 68.042969 74.242188 C 68.078125 74.253906 68.113281 74.238281 68.128906 74.207031 C 68.144531 74.171875 68.132812 74.132812 68.101562 74.117188 " fill-opacity="1" fill-rule="nonzero"/><path fill="#e8b170" d="M 65.800781 69.261719 L 65.800781 69.898438 L 66.507812 70.539062 C 66.554688 70.582031 66.625 70.578125 66.667969 70.539062 C 66.714844 70.496094 66.71875 70.425781 66.679688 70.378906 L 65.800781 69.261719 " fill-opacity="1" fill-rule="nonzero"/><path fill="#f2c386" d="M 63.589844 58.652344 L 61.722656 58.453125 L 59.65625 58.039062 C 59.535156 58.015625 59.410156 58.03125 59.296875 58.085938 C 59.082031 58.203125 58.746094 58.4375 58.707031 58.8125 L 58 62.117188 L 59.828125 61.792969 L 60.113281 59.851562 C 60.832031 60.105469 61.445312 59.988281 62.320312 60.070312 C 63.011719 60.148438 63.828125 59.726562 63.902344 59.039062 C 63.921875 58.847656 63.78125 58.671875 63.589844 58.652344 " fill-opacity="1" fill-rule="nonzero"/><path fill="#e8b170" d="M 58 62.117188 L 59.828125 61.792969 L 59.921875 61.109375 L 58.152344 61.398438 L 58 62.117188 " fill-opacity="1" fill-rule="nonzero"/><path fill="#f2c386" d="M 64 64.089844 C 64.9375 64.671875 66.089844 63.164062 65.085938 62.652344 C 64.171875 62.1875 63.144531 61.554688 62.558594 61.179688 C 62.246094 60.980469 61.871094 60.914062 61.507812 60.988281 L 58.15625 61.695312 C 57.816406 61.765625 57.507812 61.945312 57.277344 62.203125 C 57.039062 62.472656 56.992188 62.867188 57.167969 63.183594 L 57.320312 63.453125 C 57.457031 63.699219 57.460938 63.996094 57.335938 64.25 C 57.21875 64.480469 57.214844 64.75 57.320312 64.984375 L 57.679688 65.765625 C 57.75 65.917969 57.773438 66.089844 57.746094 66.253906 L 57.71875 66.429688 C 57.6875 66.609375 57.71875 66.792969 57.800781 66.953125 C 57.972656 67.285156 58.261719 67.835938 58.285156 67.839844 L 61.136719 67.246094 L 62.457031 67.863281 C 62.820312 67.988281 63.253906 67.925781 63.601562 67.804688 C 63.910156 67.695312 63.972656 67.289062 63.707031 67.101562 L 61.859375 65.777344 C 61.667969 65.640625 61.4375 65.574219 61.203125 65.582031 L 58.902344 65.679688 L 61.546875 65.226562 L 64.09375 66.660156 C 64.847656 66.90625 65.808594 66 65.148438 65.386719 L 62.246094 63.539062 C 62.015625 63.394531 61.742188 63.332031 61.472656 63.371094 L 58.839844 63.726562 C 58.949219 63.699219 61.867188 63.015625 61.867188 63.015625 L 64 64.089844 " fill-opacity="1" fill-rule="nonzero"/><path fill="#e8b170" d="M 65.085938 62.652344 C 64.960938 62.589844 64.835938 62.523438 64.707031 62.453125 C 64.679688 62.507812 64.652344 62.566406 64.636719 62.628906 L 64.257812 64.191406 C 65.128906 64.402344 66 63.121094 65.085938 62.652344 " fill-opacity="1" fill-rule="nonzero"/><path fill="#e8b170" d="M 65.148438 65.386719 L 63.949219 64.621094 L 63.941406 64.660156 L 64.464844 66.691406 C 64.554688 66.683594 64.644531 66.660156 64.726562 66.628906 C 65.144531 66.414062 65.433594 65.988281 65.300781 65.585938 C 65.265625 65.515625 65.21875 65.449219 65.148438 65.386719 " fill-opacity="1" fill-rule="nonzero"/><path fill="#f2c386" d="M 66.261719 65.277344 L 66.429688 63.859375 C 66.476562 63.464844 66.308594 63.074219 65.988281 62.839844 C 65.554688 62.519531 64.929688 62.734375 64.785156 63.25 L 64.304688 65.238281 L 65.109375 68.355469 L 67.550781 71.480469 L 69.449219 70.160156 L 66.441406 66.695312 L 66.261719 65.277344 " fill-opacity="1" fill-rule="nonzero"/><path fill="#343c42" d="M 70.605469 59.851562 C 67.773438 59.851562 65.476562 62.140625 65.476562 64.960938 C 65.476562 67.785156 67.773438 70.070312 70.605469 70.070312 C 73.4375 70.070312 75.734375 67.785156 75.734375 64.960938 C 75.734375 62.140625 73.4375 59.851562 70.605469 59.851562 " fill-opacity="1" fill-rule="nonzero"/><path fill="#272d33" d="M 70.605469 60.105469 C 67.914062 60.105469 65.730469 62.28125 65.730469 64.960938 C 65.730469 67.644531 67.914062 69.816406 70.605469 69.816406 C 73.296875 69.816406 75.480469 67.644531 75.480469 64.960938 C 75.480469 62.28125 73.296875 60.105469 70.605469 60.105469 " fill-opacity="1" fill-rule="nonzero"/><path fill="#2b3238" d="M 70.605469 60.78125 C 68.285156 60.78125 66.40625 62.652344 66.40625 64.960938 C 66.40625 67.269531 68.285156 69.140625 70.605469 69.140625 C 72.921875 69.140625 74.800781 67.269531 74.800781 64.960938 C 74.800781 62.652344 72.921875 60.78125 70.605469 60.78125 " fill-opacity="1" fill-rule="nonzero"/><path fill="#32393f" d="M 70.605469 61.304688 C 68.578125 61.304688 66.933594 62.941406 66.933594 64.960938 C 66.933594 66.980469 68.578125 68.617188 70.605469 68.617188 C 72.632812 68.617188 74.277344 66.980469 74.277344 64.960938 C 74.277344 62.941406 72.632812 61.304688 70.605469 61.304688 " fill-opacity="1" fill-rule="nonzero"/><path fill="#272d33" d="M 70.605469 62.429688 C 69.199219 62.429688 68.0625 63.5625 68.0625 64.960938 C 68.0625 66.363281 69.199219 67.496094 70.605469 67.496094 C 72.011719 67.496094 73.148438 66.363281 73.148438 64.960938 C 73.148438 63.5625 72.011719 62.429688 70.605469 62.429688 " fill-opacity="1" fill-rule="nonzero"/><g clip-path="url(#eec383f99c)"><g clip-path="url(#ff5f769c2d)"><path fill="#23282e" d="M 69.390625 66.171875 L 71.820312 66.171875 L 71.820312 63.75 L 69.390625 63.75 L 69.390625 66.171875 " fill-opacity="1" fill-rule="nonzero"/></g></g><path fill="#d1d3d4" d="M 70.96875 63.238281 C 70.640625 63.492188 70.660156 64.0625 71.011719 64.507812 C 71.367188 64.953125 71.917969 65.105469 72.246094 64.847656 C 72.570312 64.589844 72.550781 64.019531 72.199219 63.578125 C 71.847656 63.132812 71.296875 62.980469 70.96875 63.238281 " fill-opacity="1" fill-rule="nonzero"/><path fill="#23282e" d="M 72.925781 57.554688 C 73.246094 57.683594 73.496094 57.953125 73.589844 58.296875 L 73.621094 58.398438 L 73.589844 58.296875 C 73.496094 57.953125 73.246094 57.683594 72.925781 57.554688 " fill-opacity="1" fill-rule="nonzero"/><path fill="#1f2429" d="M 72.507812 57.476562 L 68.703125 57.476562 C 68.703125 57.476562 68.703125 57.476562 68.699219 57.476562 C 68.59375 57.476562 68.492188 57.492188 68.394531 57.519531 C 68.035156 57.621094 67.746094 57.898438 67.632812 58.261719 C 68.410156 58.628906 69.53125 58.863281 70.789062 58.863281 C 71.878906 58.863281 72.867188 58.6875 73.621094 58.398438 L 73.589844 58.296875 C 73.496094 57.953125 73.246094 57.683594 72.925781 57.554688 C 72.925781 57.558594 72.925781 57.558594 72.925781 57.558594 C 72.792969 57.507812 72.652344 57.476562 72.507812 57.476562 " fill-opacity="1" fill-rule="nonzero"/><path fill="#1c2025" d="M 68.699219 57.476562 C 68.59375 57.476562 68.492188 57.488281 68.394531 57.519531 C 68.492188 57.492188 68.59375 57.476562 68.699219 57.476562 M 72.507812 57.476562 L 68.703125 57.476562 L 72.507812 57.476562 C 72.652344 57.476562 72.792969 57.507812 72.925781 57.558594 C 72.925781 57.558594 72.925781 57.558594 72.925781 57.554688 C 72.796875 57.503906 72.652344 57.476562 72.507812 57.476562 " fill-opacity="1" fill-rule="nonzero"/><path fill="#ffd6a4" d="M 62.054688 58.488281 C 62.050781 58.507812 62.042969 58.523438 62.039062 58.542969 C 62.003906 58.875 62.320312 59.175781 62.746094 59.222656 C 63.171875 59.269531 63.542969 59.039062 63.578125 58.710938 C 63.582031 58.691406 63.578125 58.671875 63.578125 58.652344 L 62.054688 58.488281 " fill-opacity="1" fill-rule="nonzero"/><path fill="#ffd6a4" d="M 64.785156 63.25 L 64.542969 64.246094 C 64.867188 64.25 65.179688 63.964844 65.277344 63.554688 C 65.34375 63.261719 65.289062 62.984375 65.148438 62.792969 C 64.980469 62.886719 64.84375 63.042969 64.785156 63.25 " fill-opacity="1" fill-rule="nonzero"/><path fill="#efbe7f" d="M 73.035156 77.042969 L 76.457031 90.488281 C 77.292969 94.007812 79.546875 97.03125 82.683594 98.851562 L 83.25 99.179688 C 83.5625 99.359375 83.894531 99.441406 84.226562 99.441406 C 85.058594 99.441406 85.851562 98.90625 86.097656 98.03125 C 86.414062 96.925781 86.597656 95.796875 86.660156 94.664062 C 86.554688 94.835938 86.449219 95.003906 86.34375 95.160156 C 86.054688 95.59375 85.53125 95.820312 84.875 95.820312 C 82.839844 95.820312 79.523438 93.621094 77.890625 88.476562 C 75.734375 81.671875 74.226562 77.882812 73.035156 77.042969 " fill-opacity="1" fill-rule="nonzero"/><path fill="#f8e7d4" d="M 57.644531 88.503906 C 57.816406 90.765625 58.519531 92.980469 59.722656 94.957031 C 58.519531 92.980469 57.816406 90.765625 57.644531 88.503906 " fill-opacity="1" fill-rule="nonzero"/><path fill="#f59d31" d="M 61.632812 71.152344 L 58.027344 83.902344 C 57.652344 85.421875 57.527344 86.972656 57.644531 88.503906 C 57.527344 86.972656 57.652344 85.421875 58.027344 83.902344 L 61.632812 71.152344 " fill-opacity="1" fill-rule="nonzero"/><path fill="#e89630" d="M 63.796875 93.632812 C 63.792969 93.636719 63.789062 93.640625 63.789062 93.640625 C 63.789062 93.640625 63.792969 93.636719 63.796875 93.632812 M 63.804688 93.625 C 63.800781 93.625 63.800781 93.628906 63.800781 93.628906 C 63.800781 93.625 63.800781 93.625 63.804688 93.625 " fill-opacity="1" fill-rule="nonzero"/><path fill="#efbe7f" d="M 61.632812 71.152344 L 58.027344 83.902344 C 57.652344 85.421875 57.527344 86.972656 57.644531 88.503906 C 57.816406 90.765625 58.519531 92.980469 59.722656 94.957031 C 59.746094 95 59.773438 95.042969 59.800781 95.085938 C 60.179688 95.429688 60.65625 95.601562 61.132812 95.601562 C 61.675781 95.601562 62.210938 95.382812 62.601562 94.953125 L 63.789062 93.640625 C 63.789062 93.640625 63.792969 93.636719 63.796875 93.632812 C 63.796875 93.632812 63.796875 93.628906 63.800781 93.628906 C 63.800781 93.628906 63.800781 93.625 63.804688 93.625 C 64.105469 93.289062 64.382812 92.933594 64.636719 92.5625 C 63.84375 93.105469 63.152344 93.335938 62.550781 93.335938 C 59.390625 93.335938 58.710938 86.902344 58.960938 84.851562 C 59.257812 82.410156 62.226562 72.855469 61.632812 71.152344 " fill-opacity="1" fill-rule="nonzero"/><path fill="#f1f2f2" d="M 59.132812 48.605469 C 59.148438 48.648438 59.210938 48.648438 59.226562 48.605469 C 59.363281 48.253906 59.773438 47.847656 60.125 47.710938 C 60.167969 47.695312 60.167969 47.632812 60.125 47.613281 C 59.773438 47.480469 59.363281 47.074219 59.226562 46.71875 C 59.210938 46.675781 59.148438 46.675781 59.132812 46.71875 C 58.992188 47.074219 58.585938 47.480469 58.230469 47.613281 C 58.1875 47.632812 58.1875 47.695312 58.230469 47.710938 C 58.585938 47.847656 58.992188 48.253906 59.132812 48.605469 " fill-opacity="1" fill-rule="nonzero"/><path fill="#f1f2f2" d="M 65.652344 49.972656 C 65.144531 49.777344 64.558594 49.191406 64.363281 48.6875 C 64.335938 48.625 64.25 48.625 64.222656 48.6875 C 64.027344 49.191406 63.441406 49.777344 62.933594 49.972656 C 62.871094 49.996094 62.871094 50.085938 62.933594 50.109375 C 63.441406 50.304688 64.027344 50.890625 64.222656 51.394531 C 64.25 51.457031 64.335938 51.457031 64.363281 51.394531 C 64.558594 50.890625 65.144531 50.304688 65.652344 50.109375 C 65.714844 50.085938 65.714844 49.996094 65.652344 49.972656 " fill-opacity="1" fill-rule="nonzero"/><path fill="#f1f2f2" d="M 62.96875 53.753906 C 62.144531 53.4375 61.191406 52.488281 60.871094 51.667969 C 60.832031 51.566406 60.6875 51.566406 60.648438 51.667969 C 60.328125 52.488281 59.375 53.4375 58.550781 53.753906 C 58.449219 53.792969 58.449219 53.9375 58.550781 53.976562 C 59.375 54.296875 60.328125 55.242188 60.648438 56.066406 C 60.6875 56.167969 60.832031 56.167969 60.871094 56.066406 C 61.191406 55.242188 62.144531 54.296875 62.96875 53.976562 C 63.070312 53.9375 63.070312 53.792969 62.96875 53.753906 " fill-opacity="1" fill-rule="nonzero"/></svg>