<svg xmlns="http://www.w3.org/2000/svg" xmlns:xlink="http://www.w3.org/1999/xlink" width="200" zoomAndPan="magnify" viewBox="0 0 150 149.999998" height="200" preserveAspectRatio="xMidYMid meet" version="1.0"><defs><clipPath id="5a0b25925f"><path d="M 56.324219 45 L 65 45 L 65 53 L 56.324219 53 Z M 56.324219 45 " clip-rule="nonzero"/></clipPath></defs><path fill="#ffffff" d="M 70.113281 96.265625 C 70.546875 96.113281 71.015625 96.019531 71.410156 95.796875 C 71.917969 95.511719 71.808594 95.535156 71.464844 95.105469 C 71.234375 94.816406 71.128906 94.835938 70.914062 94.984375 C 70.695312 95.136719 70.492188 95.316406 70.285156 95.484375 C 70.582031 95.832031 70.109375 95.863281 70.113281 96.265625 M 69.53125 93.109375 C 68.972656 93.597656 68.457031 94.046875 67.949219 94.503906 C 67.84375 94.597656 67.671875 94.785156 67.695312 94.824219 C 67.925781 95.179688 68.15625 95.554688 68.464844 95.832031 C 68.550781 95.910156 68.925781 95.722656 69.128906 95.597656 C 69.375 95.453125 69.585938 95.246094 69.800781 95.050781 C 70.308594 94.585938 70.449219 94.140625 70.167969 93.601562 C 70.058594 93.390625 69.761719 93.28125 69.53125 93.109375 M 73.25 95.953125 C 73.101562 95.988281 72.902344 95.972656 72.808594 96.0625 C 72.546875 96.332031 72.324219 96.640625 72.085938 96.9375 C 72.058594 96.964844 72.042969 96.984375 72.03125 96.996094 C 71.691406 97.125 71.355469 97.253906 71.015625 97.382812 C 71 97.355469 70.984375 97.324219 70.96875 97.296875 C 71.628906 96.710938 72.289062 96.128906 72.949219 95.542969 C 72.90625 95.476562 72.859375 95.40625 72.816406 95.339844 C 72.144531 95.6875 71.476562 96.039062 70.808594 96.386719 C 70.59375 96.496094 70.210938 96.5625 70.179688 96.707031 C 70.078125 97.195312 69.769531 97.109375 69.453125 97.050781 L 69.453125 97.585938 C 69.6875 97.695312 69.917969 97.761719 70.097656 97.902344 C 70.609375 98.300781 71.121094 98.703125 71.589844 99.152344 C 71.921875 99.472656 72.199219 99.433594 72.457031 99.132812 C 72.761719 98.777344 73.023438 98.382812 73.304688 98.007812 C 73.222656 98.25 73.140625 98.496094 73.058594 98.738281 C 73.109375 98.761719 73.164062 98.785156 73.214844 98.804688 C 74 97.402344 74.78125 96 75.5625 94.597656 C 75.542969 94.578125 75.519531 94.558594 75.496094 94.539062 C 75.277344 94.785156 75.054688 95.03125 74.835938 95.277344 C 74.992188 94.949219 75.148438 94.621094 75.335938 94.234375 C 74.273438 94.441406 73.730469 95.160156 73.238281 95.9375 Z M 76.503906 92.347656 C 76.640625 92.308594 76.78125 92.269531 76.992188 92.210938 C 76.734375 92.765625 76.492188 93.292969 76.28125 93.746094 L 77.109375 93.746094 C 77.140625 93.257812 77.171875 92.761719 77.195312 92.4375 C 77.980469 92.210938 78.597656 91.960938 79.238281 91.863281 C 79.851562 91.773438 80.496094 91.8125 81.121094 91.855469 C 81.503906 91.882812 81.882812 92.019531 82.3125 92.121094 C 81.8125 92.910156 81.035156 93.023438 80.328125 93.257812 C 80.226562 92.828125 79.800781 92.539062 79.417969 92.652344 C 78.882812 92.804688 78.34375 92.953125 77.824219 93.144531 C 77.613281 93.222656 77.445312 93.414062 77.183594 93.605469 C 78.140625 94.039062 78.914062 93.507812 79.746094 93.527344 C 79.640625 93.667969 79.542969 93.800781 79.402344 93.988281 C 80.515625 94.132812 81.421875 93.820312 82.25 93.199219 C 82.652344 92.902344 83.082031 92.636719 83.496094 92.355469 L 83.488281 92.339844 C 83.253906 93.074219 82.828125 93.710938 82.132812 94.011719 C 80.945312 94.523438 79.707031 94.917969 78.492188 95.363281 C 78.714844 95.207031 78.941406 95.046875 79.164062 94.890625 C 79.144531 94.839844 79.121094 94.792969 79.097656 94.742188 C 78.902344 94.78125 78.703125 94.800781 78.515625 94.867188 C 78.308594 94.933594 78.125 95.066406 77.917969 95.128906 C 77.375 95.289062 77.21875 95.175781 77.195312 94.617188 C 77.183594 94.371094 77.195312 94.125 77.195312 93.878906 C 77.144531 93.839844 77.09375 93.800781 77.039062 93.761719 C 76.761719 93.925781 76.429688 94.035156 76.21875 94.261719 C 75.898438 94.597656 75.628906 95 75.402344 95.40625 C 74.6875 96.667969 74.046875 97.96875 73.292969 99.199219 C 73.023438 99.640625 73.207031 99.910156 73.292969 100.355469 C 73.472656 100.148438 73.585938 100.019531 73.699219 99.890625 C 73.730469 99.90625 73.761719 99.925781 73.796875 99.941406 C 73.492188 100.605469 73.1875 101.269531 72.882812 101.933594 C 72.933594 101.953125 72.980469 101.972656 73.03125 101.992188 C 73.914062 101 74.84375 100.027344 74.566406 98.46875 C 74.632812 98.546875 74.667969 98.589844 74.710938 98.636719 C 74.820312 98.390625 74.929688 98.152344 75.089844 97.804688 C 75.8125 98.605469 76.746094 99.019531 77.234375 99.953125 C 77.402344 100.273438 77.5625 100.984375 78.238281 100.445312 C 78.265625 100.421875 78.347656 100.449219 78.394531 100.46875 C 78.914062 100.703125 79.4375 100.9375 79.957031 101.175781 C 80.535156 101.4375 81.09375 101.671875 81.777344 101.523438 C 82.082031 101.457031 82.492188 101.621094 82.789062 101.792969 C 83.421875 102.167969 84.078125 102.347656 84.808594 102.28125 L 84.792969 102.273438 C 84.542969 102.394531 84.296875 102.519531 84.085938 102.621094 C 84.007812 102.941406 83.929688 103.269531 83.851562 103.597656 C 83.796875 103.59375 83.746094 103.59375 83.695312 103.589844 C 83.765625 103.652344 83.835938 103.714844 84.035156 103.890625 C 83.484375 103.828125 83.011719 103.902344 82.691406 103.71875 C 82.078125 103.367188 81.476562 103.140625 80.765625 103.085938 C 80.316406 103.050781 79.871094 102.820312 79.445312 102.625 C 78.824219 102.339844 78.238281 101.882812 77.6875 102.355469 C 77.441406 102.105469 77.289062 101.8125 77.101562 101.785156 C 76.4375 101.695312 76.296875 101.125 75.976562 100.710938 C 75.617188 100.25 75.226562 99.8125 74.847656 99.363281 C 74.792969 99.390625 74.734375 99.414062 74.675781 99.441406 C 74.613281 99.84375 74.546875 100.25 74.460938 100.792969 C 74.65625 100.636719 74.742188 100.570312 74.8125 100.515625 C 75.132812 100.789062 75.457031 101.070312 75.78125 101.351562 C 76.371094 101.855469 76.707031 102.679688 77.753906 102.6875 C 77.261719 103.3125 77.558594 103.492188 78.011719 103.632812 C 78.320312 103.726562 78.625 103.863281 78.898438 104.03125 C 79.613281 104.46875 80.386719 104.621094 81.207031 104.667969 C 81.464844 104.683594 81.710938 104.882812 81.964844 105 L 75.859375 105 C 75.714844 104.316406 75.589844 103.625 75.421875 102.949219 C 75.273438 102.363281 75.074219 101.789062 74.898438 101.210938 C 74.613281 101.535156 74.476562 101.867188 74.308594 102.183594 C 73.8125 103.125 73.308594 104.0625 72.804688 105 L 69.207031 105 C 69.085938 103.964844 68.964844 102.925781 68.863281 102.058594 C 68.945312 102.21875 69.105469 102.535156 69.265625 102.851562 C 69.3125 102.832031 69.359375 102.8125 69.40625 102.792969 L 69.40625 102.222656 C 69.808594 102.582031 70.195312 102.859375 70.492188 103.214844 C 70.636719 103.386719 70.671875 103.714844 70.632812 103.949219 C 70.597656 104.164062 70.394531 104.351562 70.179688 104.675781 C 70.660156 104.507812 71.066406 104.976562 71.367188 104.425781 C 71.589844 104.015625 71.925781 103.664062 72.144531 103.25 C 72.386719 102.789062 72.578125 102.292969 72.742188 101.792969 C 72.785156 101.660156 72.683594 101.351562 72.582031 101.316406 C 71.976562 101.105469 72.007812 100.519531 71.789062 100.078125 C 71.675781 99.855469 71.554688 99.632812 71.4375 99.410156 C 71.382812 99.429688 71.324219 99.449219 71.269531 99.46875 C 71.328125 99.886719 71.386719 100.308594 71.445312 100.726562 C 71.320312 100.515625 71.222656 100.300781 71.152344 100.078125 C 70.925781 99.382812 70.746094 98.648438 69.714844 98.75 L 69.714844 99.519531 C 69.628906 99.5 69.554688 99.480469 69.382812 99.441406 C 69.589844 100.03125 69.652344 100.632812 69.976562 101.023438 C 70.273438 101.382812 70.261719 101.734375 70.308594 102.125 C 70.132812 101.898438 69.953125 101.671875 69.8125 101.496094 C 69.59375 101.460938 69.375 101.496094 69.257812 101.402344 C 68.742188 100.988281 68.277344 100.511719 68.167969 99.828125 C 67.988281 98.71875 67.855469 97.601562 67.691406 96.492188 C 67.644531 96.171875 67.605469 95.839844 67.488281 95.546875 C 67.144531 94.695312 67.246094 94.300781 68.011719 93.769531 C 68.21875 93.625 68.460938 93.515625 68.644531 93.347656 C 68.949219 93.074219 69.21875 92.765625 69.503906 92.464844 C 70.71875 92.859375 72.023438 93.300781 73.339844 93.695312 C 73.839844 93.847656 74.367188 93.921875 74.886719 93.972656 C 75.773438 94.066406 76.691406 93.121094 76.503906 92.347656 " fill-opacity="1" fill-rule="nonzero"/><path fill="#ffffff" d="M 68.140625 90.453125 L 67.902344 90.375 C 67.789062 90.714844 67.675781 91.054688 67.566406 91.394531 C 67.648438 91.421875 67.730469 91.449219 67.816406 91.476562 C 67.921875 91.132812 68.03125 90.792969 68.140625 90.453125 M 68.355469 89.273438 C 68.464844 88.53125 68.570312 87.789062 68.679688 87.0625 C 68.519531 86.992188 68.398438 86.9375 68.242188 86.871094 C 68.15625 87.71875 68.066406 88.574219 67.964844 89.5625 C 68.1875 89.394531 68.28125 89.324219 68.375 89.253906 C 68.316406 89.914062 68.257812 90.574219 68.203125 91.230469 C 68.253906 91.242188 68.308594 91.253906 68.359375 91.265625 C 68.503906 91.019531 68.664062 90.78125 68.789062 90.527344 C 69.089844 89.894531 69.363281 89.25 69.671875 88.621094 C 69.867188 88.226562 70.105469 87.855469 70.328125 87.472656 C 70.277344 87.425781 70.230469 87.378906 70.183594 87.332031 C 69.980469 87.480469 69.777344 87.632812 69.585938 87.773438 C 69.636719 87.566406 69.695312 87.3125 69.773438 86.976562 C 68.980469 87.234375 68.84375 87.84375 68.664062 88.421875 C 68.574219 88.707031 68.460938 88.988281 68.355469 89.273438 M 70.960938 88.757812 C 70.546875 89.324219 70.132812 89.886719 69.722656 90.453125 C 69.542969 90.695312 69.375 90.941406 69.113281 91.324219 C 69.144531 91.042969 69.160156 90.933594 69.171875 90.820312 C 69.121094 90.792969 69.070312 90.769531 69.019531 90.742188 C 68.367188 91.921875 67.714844 93.101562 67.0625 94.28125 C 67 94.253906 66.941406 94.226562 66.878906 94.199219 C 67.21875 93.421875 67.558594 92.640625 67.898438 91.863281 C 67.859375 91.832031 67.820312 91.804688 67.78125 91.773438 C 67.601562 92.003906 67.355469 92.210938 67.25 92.472656 C 66.191406 95.160156 65.140625 97.847656 64.117188 100.550781 C 63.730469 101.578125 63.414062 102.632812 63.074219 103.679688 C 63.042969 103.765625 63.078125 103.871094 63.082031 103.96875 C 63.132812 103.980469 63.179688 103.988281 63.230469 104 C 63.351562 103.605469 63.46875 103.214844 63.5625 102.910156 C 63.652344 103.542969 63.757812 104.273438 63.863281 105 L 62.230469 105 C 62.484375 104.34375 62.738281 103.683594 63 103.03125 C 63.65625 101.386719 64.355469 99.761719 64.960938 98.101562 C 65.777344 95.867188 66.523438 93.609375 67.28125 91.355469 C 67.457031 90.847656 67.597656 90.320312 67.691406 89.789062 C 67.773438 89.332031 67.765625 88.859375 67.800781 88.394531 C 67.820312 88.105469 67.761719 87.785156 67.875 87.539062 C 68.339844 86.507812 68.140625 85.464844 67.953125 84.4375 C 67.808594 83.621094 67.734375 82.839844 67.984375 82.027344 C 68.097656 81.652344 68.195312 81.230469 67.8125 80.867188 C 67.707031 80.765625 67.828125 80.429688 67.84375 80.199219 C 67.371094 80.027344 66.859375 79.859375 66.359375 79.648438 C 66.03125 79.507812 65.886719 79.277344 65.996094 78.863281 C 66.125 78.378906 66.078125 77.84375 66.238281 77.371094 C 66.398438 76.917969 66.722656 76.519531 67.0625 76.148438 C 66.414062 76.84375 66.34375 77.734375 66.101562 78.71875 C 66.765625 78.519531 67.304688 78.363281 67.839844 78.203125 C 67.742188 78.339844 67.648438 78.476562 67.550781 78.613281 C 67.605469 78.664062 67.65625 78.71875 67.710938 78.769531 C 68.03125 78.527344 68.355469 78.28125 68.675781 78.035156 C 68.632812 77.964844 68.585938 77.894531 68.542969 77.828125 C 68.292969 77.960938 68.046875 78.097656 67.796875 78.234375 C 68.140625 77.921875 68.4375 77.539062 68.832031 77.324219 C 69.21875 77.113281 69.695312 77.070312 70.164062 76.996094 C 69.390625 77.824219 68.230469 78.269531 67.710938 79.601562 C 68.101562 79.449219 68.382812 79.363281 68.640625 79.234375 C 68.882812 79.113281 69.101562 78.945312 69.410156 78.875 C 68.84375 79.328125 68.867188 79.898438 69.058594 80.40625 C 68.785156 80.515625 68.621094 80.582031 68.453125 80.648438 C 68.554688 80.804688 68.644531 80.972656 68.765625 81.109375 C 68.863281 81.214844 68.988281 81.316406 69.117188 81.359375 C 69.582031 81.519531 69.816406 81.835938 69.859375 82.269531 C 69.609375 82.253906 69.265625 82.128906 69.144531 82.242188 C 68.851562 82.511719 68.722656 82.898438 68.929688 83.320312 C 69 83.457031 69.265625 83.644531 68.917969 83.785156 C 69.027344 83.96875 69.101562 84.1875 69.25 84.324219 C 69.621094 84.667969 70.046875 84.953125 70.417969 85.300781 C 70.601562 85.476562 70.714844 85.730469 70.863281 85.945312 C 70.566406 85.683594 70.300781 85.382812 69.976562 85.171875 C 69.246094 84.699219 68.394531 84.382812 68.058594 83.453125 C 67.996094 84.207031 68.019531 84.90625 68.742188 85.347656 C 69.21875 85.640625 69.558594 86.257812 70.273438 85.972656 C 70.296875 85.964844 70.34375 86.035156 70.375 86.03125 C 70.535156 86.003906 70.691406 85.964844 70.851562 85.929688 C 71.4375 85.699219 72.058594 85.523438 72.601562 85.214844 C 73.074219 84.941406 73.457031 84.515625 73.832031 84.199219 C 73.796875 84.328125 73.734375 84.558594 73.667969 84.785156 C 73.710938 84.808594 73.753906 84.828125 73.796875 84.847656 C 74.007812 84.484375 74.269531 84.140625 74.417969 83.753906 C 74.800781 82.753906 75.351562 81.898438 76.097656 81.121094 C 76.453125 80.75 76.605469 80.136719 76.730469 79.605469 C 77.042969 78.304688 77.285156 76.988281 77.558594 75.675781 C 77.574219 75.609375 77.617188 75.546875 77.707031 75.496094 C 77.457031 76.761719 77.207031 78.03125 76.953125 79.296875 C 76.917969 79.492188 76.878906 79.691406 76.828125 79.882812 C 76.65625 80.539062 76.429688 81.117188 75.964844 81.683594 C 75.320312 82.460938 74.863281 83.421875 74.476562 84.371094 C 74.136719 85.207031 73.710938 85.839844 72.84375 86.195312 C 71.316406 86.816406 70.203125 87.902344 69.570312 89.441406 C 69.449219 89.734375 69.382812 90.046875 69.359375 90.390625 C 70.109375 89.316406 70.703125 88.136719 71.835938 87.425781 C 71.546875 87.867188 71.253906 88.3125 70.960938 88.757812 " fill-opacity="1" fill-rule="nonzero"/><path fill="#ffffff" d="M 65.023438 100.3125 C 64.65625 101.523438 65.546875 102.121094 66.105469 102.949219 C 66.214844 102.773438 66.28125 102.664062 66.359375 102.535156 C 66.503906 102.671875 66.613281 102.773438 66.726562 102.878906 C 66.242188 101.972656 65.992188 100.914062 65.023438 100.3125 M 65.390625 105 C 65.234375 103.851562 65.082031 102.703125 64.917969 101.558594 C 64.757812 100.449219 64.695312 99.355469 65.355469 98.359375 C 65.417969 98.265625 65.515625 98.191406 65.660156 98.039062 C 65.636719 98.289062 65.621094 98.445312 65.609375 98.597656 C 65.636719 98.613281 65.667969 98.628906 65.699219 98.644531 C 65.820312 98.429688 65.9375 98.210938 66 98.097656 C 66.246094 99.09375 66.511719 100.167969 66.78125 101.242188 C 66.765625 101.25 66.75 101.257812 66.734375 101.265625 C 66.515625 100.882812 66.292969 100.5 66.074219 100.117188 C 66.019531 100.144531 65.964844 100.171875 65.90625 100.195312 C 66.535156 101.796875 67.164062 103.398438 67.789062 105 Z M 65.390625 105 " fill-opacity="1" fill-rule="nonzero"/><path fill="#ffffff" d="M 60.25 72.886719 C 60.320312 72.90625 60.390625 72.929688 60.464844 72.949219 C 60.664062 72.386719 61.21875 71.917969 60.882812 71.074219 C 60.644531 71.757812 60.445312 72.320312 60.25 72.886719 M 62.738281 72.226562 C 62.742188 72.164062 62.75 72.105469 62.753906 72.042969 C 62.367188 71.960938 61.980469 71.863281 61.585938 71.8125 C 61.523438 71.804688 61.375 71.992188 61.371094 72.097656 C 61.351562 72.460938 61.734375 72.714844 62.082031 72.578125 C 62.308594 72.484375 62.519531 72.347656 62.738281 72.226562 M 61.566406 71.207031 C 62.117188 71.941406 62.957031 71.871094 63.703125 72.15625 C 63.324219 71.457031 62.605469 70.9375 61.824219 70.769531 C 61.746094 70.902344 61.664062 71.039062 61.566406 71.207031 M 64.238281 70.9375 C 63.859375 70.613281 63.300781 70.523438 63.09375 69.964844 C 63.042969 69.832031 62.726562 69.757812 62.523438 69.734375 C 62.113281 69.683594 61.699219 69.679688 61.285156 69.660156 C 61.277344 70.226562 63.035156 71.070312 64.253906 70.925781 C 63.734375 71.855469 63.757812 71.957031 64.609375 72.558594 C 64.695312 72.621094 64.769531 72.703125 64.847656 72.777344 C 64.5625 72.628906 64.285156 72.464844 63.992188 72.332031 C 63.683594 72.195312 63.445312 72.207031 63.515625 72.65625 C 63.1875 72.898438 62.855469 73.140625 62.496094 73.402344 C 62.527344 73.277344 62.554688 73.175781 62.582031 73.070312 C 60.6875 73.480469 60.304688 75.230469 59.386719 76.496094 C 59.613281 76.339844 59.753906 76.09375 59.960938 75.9375 C 60.324219 75.667969 60.730469 75.453125 61.117188 75.214844 L 61.105469 75.203125 C 60.675781 75.628906 60.175781 76.007812 59.835938 76.5 C 59.566406 76.886719 59.488281 77.410156 59.34375 77.828125 C 59.40625 77.785156 59.550781 77.683594 59.824219 77.488281 C 59.511719 78.039062 59.277344 78.449219 59.03125 78.882812 C 59.167969 78.933594 59.257812 78.933594 59.300781 78.980469 C 60.113281 79.921875 60.113281 79.921875 61.085938 79.144531 C 61.15625 79.089844 61.222656 79.027344 61.292969 78.972656 C 61.6875 78.644531 62.082031 78.320312 62.472656 77.992188 C 62.507812 78.027344 62.539062 78.066406 62.570312 78.101562 C 62.0625 78.597656 61.550781 79.089844 60.925781 79.699219 C 61.949219 79.382812 62.652344 78.867188 63.277344 78.21875 C 63.226562 78.308594 63.175781 78.398438 63.136719 78.46875 C 63.753906 78.847656 64.015625 78.355469 64.324219 77.984375 C 64.40625 77.886719 64.492188 77.792969 64.554688 77.683594 C 64.929688 77.054688 65.257812 76.390625 65.679688 75.796875 C 66.226562 75.035156 66.246094 74.875 65.574219 74.21875 C 65.445312 74.089844 65.328125 73.953125 65.207031 73.820312 C 65.683594 74.085938 66.140625 74.386719 66.636719 74.605469 C 66.953125 74.742188 67.324219 74.757812 67.667969 74.832031 C 67.683594 74.757812 67.695312 74.6875 67.710938 74.613281 C 67.445312 74.554688 67.175781 74.503906 66.914062 74.433594 C 66.75 74.390625 66.5625 74.355469 66.441406 74.25 C 66.035156 73.910156 65.652344 73.539062 65.261719 73.179688 C 65.839844 73.460938 66.417969 73.738281 67.042969 74.042969 C 66.851562 73.707031 66.683594 73.417969 66.515625 73.128906 C 66.75 73.335938 66.984375 73.542969 67.332031 73.851562 C 67.265625 73.492188 67.214844 73.21875 67.15625 72.898438 C 66.886719 73.011719 66.707031 73.085938 66.53125 73.160156 C 66.253906 72.863281 65.980469 72.566406 65.683594 72.25 C 65.84375 72.238281 65.96875 72.234375 66.261719 72.21875 C 65.832031 71.679688 65.484375 71.253906 65.144531 70.828125 C 64.871094 70.484375 64.871094 70.484375 64.460938 70.777344 C 64.535156 70.855469 64.605469 70.933594 64.75 71.085938 C 64.511719 71.015625 64.378906 70.976562 64.238281 70.9375 M 67.761719 69.691406 C 67.558594 69.757812 67.359375 69.824219 67.085938 69.914062 C 67.328125 69.082031 66.609375 69.132812 66.230469 68.808594 C 65.828125 69.53125 66.648438 69.515625 66.886719 69.988281 C 66.328125 69.867188 65.878906 69.769531 65.496094 69.683594 C 65.65625 69.292969 65.777344 69 65.933594 68.621094 C 65.582031 68.640625 65.335938 68.613281 65.125 68.6875 C 65.019531 68.722656 64.941406 68.941406 64.921875 69.085938 C 64.894531 69.253906 65.015625 69.460938 64.953125 69.597656 C 64.75 70.046875 64.964844 70.257812 65.320312 70.476562 C 65.832031 70.796875 66.296875 71.1875 66.8125 71.5 C 67.035156 71.632812 67.328125 71.652344 67.589844 71.707031 C 67.792969 71.753906 67.996094 71.777344 68.230469 71.816406 C 67.808594 72.53125 67.808594 72.53125 68.683594 73.386719 C 68.570312 73.40625 68.488281 73.421875 68.316406 73.449219 C 68.5 73.707031 68.660156 73.929688 68.722656 74.019531 C 68.546875 74.3125 68.398438 74.558594 68.226562 74.847656 C 68.542969 75.023438 68.804688 75.167969 69.167969 75.371094 C 68.851562 75.78125 68.539062 76.1875 68.183594 76.652344 C 67.933594 76.320312 67.582031 75.929688 67.699219 75.285156 C 67.644531 75.277344 67.585938 75.273438 67.527344 75.265625 C 66.304688 76.53125 65.078125 77.792969 63.867188 79.070312 C 62.933594 80.050781 61.855469 80.746094 60.464844 80.792969 C 58.902344 80.839844 58.117188 79.960938 58.40625 78.414062 C 58.773438 76.421875 59.238281 74.453125 60.089844 72.589844 C 60.492188 71.707031 60.714844 70.746094 61.027344 69.820312 C 61.234375 69.207031 61.457031 68.597656 61.671875 67.988281 C 62.078125 68.113281 62.414062 68.28125 62.746094 68.59375 C 63.085938 68.910156 63.648438 69.015625 64.132812 69.128906 C 64.246094 69.15625 64.429688 68.847656 64.597656 68.714844 C 64.734375 68.601562 64.917969 68.410156 65.042969 68.433594 C 66.34375 68.695312 67.363281 68.3125 68.109375 67.207031 C 68.167969 67.121094 68.265625 67.058594 68.421875 67.046875 C 68.136719 67.410156 67.847656 67.777344 67.472656 68.25 C 67.707031 68.1875 67.789062 68.164062 67.996094 68.109375 C 67.46875 68.632812 67.546875 69.164062 67.746094 69.703125 Z M 67.761719 69.691406 " fill-opacity="1" fill-rule="nonzero"/><path fill="#ffffff" d="M 88.789062 81.644531 C 88.558594 81.75 88.324219 81.855469 88.089844 81.960938 C 88.085938 82 88.078125 82.039062 88.074219 82.078125 C 88.277344 82.125 88.480469 82.171875 88.726562 82.230469 C 87.8125 82.382812 86.933594 82.527344 86.054688 82.671875 C 86.054688 82.726562 86.054688 82.777344 86.054688 82.832031 C 86.269531 82.960938 86.480469 83.09375 86.6875 83.222656 C 86.324219 83.402344 86.148438 84.015625 86.292969 84.609375 C 86.460938 85.300781 86.320312 85.644531 85.902344 85.796875 C 86.125 86.035156 86.453125 86.265625 86.601562 86.578125 C 86.734375 86.851562 86.625 87.230469 86.691406 87.542969 C 86.746094 87.800781 86.90625 88.03125 87.050781 88.34375 C 87.011719 88.398438 86.925781 88.523438 86.796875 88.714844 L 87.519531 88.714844 C 86.824219 89.019531 87.222656 89.570312 87.222656 90.054688 C 87.429688 90.074219 87.675781 90.097656 87.871094 90.117188 C 87.660156 90.179688 87.398438 90.257812 87.132812 90.339844 C 87.140625 90.371094 87.152344 90.402344 87.160156 90.433594 C 87.417969 90.476562 87.679688 90.519531 88.011719 90.578125 C 87.789062 90.804688 87.613281 90.972656 87.449219 91.15625 C 87.410156 91.203125 87.382812 91.300781 87.402344 91.351562 C 87.5625 91.722656 87.65625 92.167969 87.925781 92.441406 C 88.207031 92.726562 88.65625 92.847656 89.015625 93.03125 C 88.984375 93.03125 88.875 93.054688 88.78125 93.027344 C 88.292969 92.894531 87.804688 92.75 87.320312 92.601562 C 86.617188 92.390625 86.597656 91.757812 86.480469 91.203125 C 86.011719 89.003906 85.582031 86.800781 85.101562 84.609375 C 84.863281 83.53125 84.539062 82.472656 84.273438 81.40625 C 84.230469 81.238281 84.292969 81.046875 84.273438 80.867188 C 84.199219 80.078125 84.109375 79.292969 84.03125 78.503906 C 84.007812 78.308594 83.996094 78.113281 83.886719 77.863281 C 83.738281 78.171875 83.589844 78.484375 83.441406 78.796875 C 83.429688 78.792969 83.417969 78.789062 83.402344 78.78125 C 83.464844 78.570312 83.53125 78.359375 83.59375 78.144531 C 83.5625 78.113281 83.527344 78.078125 83.496094 78.046875 C 83.292969 78.5 82.5 77.980469 82.46875 78.863281 C 81.550781 78.507812 80.566406 77.875 79.859375 79.082031 C 79.929688 78.613281 80 78.148438 80.074219 77.660156 C 79.683594 77.816406 79.679688 77.816406 79.339844 79.058594 C 79.191406 79.59375 79.058594 80.132812 78.824219 80.648438 C 79.082031 79.414062 79.34375 78.175781 79.585938 77.023438 C 79.75 77.164062 79.949219 77.328125 80.1875 77.53125 C 80.292969 77.320312 80.359375 77.183594 80.441406 77.019531 C 80.542969 77.074219 80.636719 77.121094 80.726562 77.179688 C 81.433594 77.636719 82.148438 78.050781 83.042969 77.996094 C 83.640625 77.957031 83.972656 77.671875 84.070312 77.085938 C 84.148438 76.621094 84.25 76.164062 84.449219 75.726562 C 84.417969 75.929688 84.382812 76.136719 84.351562 76.34375 C 84.378906 76.359375 84.40625 76.375 84.433594 76.390625 C 84.597656 76.183594 84.757812 75.972656 85.007812 75.652344 C 84.980469 75.933594 84.964844 76.074219 84.949219 76.242188 C 85.074219 76.210938 85.179688 76.179688 85.285156 76.148438 C 85.179688 76.429688 85.082031 76.691406 84.9375 77.085938 C 85.253906 76.96875 85.398438 76.917969 85.628906 76.832031 C 85.359375 77.175781 85.148438 77.441406 84.839844 77.832031 C 85.113281 77.777344 85.230469 77.753906 85.394531 77.71875 C 85.316406 77.84375 85.273438 77.925781 85.214844 77.988281 C 84.964844 78.261719 84.84375 78.507812 85.101562 78.875 C 85.277344 79.125 85.292969 79.480469 85.425781 79.765625 C 85.636719 80.203125 86.070312 80.226562 86.476562 80.207031 C 86.703125 80.199219 86.925781 80.0625 87.15625 80.039062 C 87.378906 80.011719 87.605469 80.058594 87.886719 80.074219 C 87.429688 81.140625 86.277344 81.082031 85.65625 81.726562 C 85.675781 81.78125 85.695312 81.835938 85.714844 81.890625 C 86.722656 81.769531 87.730469 81.652344 88.738281 81.53125 C 88.757812 81.570312 88.773438 81.605469 88.789062 81.644531 " fill-opacity="1" fill-rule="nonzero"/><path fill="#ffffff" d="M 76.371094 53.707031 C 76.351562 53.625 76.328125 53.539062 76.308594 53.453125 C 76.023438 53.472656 75.730469 53.457031 75.457031 53.515625 C 74.886719 53.644531 74.566406 54.023438 74.460938 54.785156 C 75.164062 54.390625 75.765625 54.046875 76.371094 53.707031 M 79.570312 63.566406 C 79.710938 63.1875 79.824219 62.796875 79.996094 62.433594 C 80.554688 61.25 80.984375 60.050781 80.667969 58.710938 C 80.644531 58.609375 80.671875 58.492188 80.695312 58.386719 C 80.976562 57.289062 80.503906 56.394531 79.890625 55.558594 C 79.601562 55.167969 79 55.128906 78.363281 55.425781 C 78.425781 55.566406 78.492188 55.707031 78.582031 55.90625 C 78.28125 55.648438 78.050781 55.34375 77.75 55.226562 C 77.441406 55.101562 77.0625 55.15625 76.613281 55.125 C 76.730469 55.375 76.792969 55.515625 76.863281 55.664062 C 76.828125 55.675781 76.777344 55.703125 76.734375 55.691406 C 76.441406 55.613281 76.136719 55.558594 75.859375 55.445312 C 74.558594 54.910156 73.675781 55.429688 73.605469 56.859375 C 73.570312 57.550781 73.296875 58.089844 72.96875 58.671875 C 72.660156 59.207031 72.53125 59.847656 72.320312 60.441406 C 72.285156 60.539062 72.234375 60.636719 72.195312 60.730469 C 72.144531 60.726562 72.097656 60.722656 72.050781 60.714844 C 72.121094 60.191406 72.191406 59.667969 72.257812 59.140625 C 72.214844 59.132812 72.171875 59.125 72.125 59.113281 C 72.039062 59.566406 71.949219 60.019531 71.863281 60.472656 C 71.835938 60.46875 71.808594 60.46875 71.785156 60.46875 C 71.867188 59.910156 71.925781 59.351562 72.035156 58.800781 C 72.164062 58.164062 72.335938 57.535156 72.480469 56.902344 C 72.574219 56.496094 72.308594 56.445312 71.945312 56.460938 C 72.058594 56.261719 72.121094 56.058594 72.257812 55.929688 C 72.550781 55.648438 72.847656 55.398438 72.613281 54.929688 C 72.578125 54.859375 72.628906 54.699219 72.695312 54.632812 C 73.191406 54.109375 73.679688 53.582031 74.214844 53.101562 C 74.328125 53 74.613281 53.089844 74.972656 53.089844 C 74.722656 53.40625 74.597656 53.566406 74.445312 53.757812 C 75.808594 53.113281 77.167969 53.382812 78.523438 53.542969 L 76.921875 53.542969 C 76.917969 53.609375 76.914062 53.675781 76.914062 53.742188 C 77.570312 53.824219 78.226562 53.898438 78.882812 53.992188 C 79.054688 54.015625 79.253906 54.054688 79.386719 54.15625 C 80.011719 54.652344 80.625 55.167969 81.226562 55.695312 C 81.5 55.9375 81.65625 56.199219 81.347656 56.578125 C 81.144531 56.824219 81.140625 57.125 81.28125 57.496094 C 81.578125 58.289062 81.464844 59.09375 81.121094 59.894531 C 80.597656 61.113281 80.335938 62.445312 79.558594 63.554688 Z M 79.570312 63.566406 " fill-opacity="1" fill-rule="nonzero"/><path fill="#ffffff" d="M 70.832031 63.777344 C 70.664062 63.976562 70.515625 64.128906 70.398438 64.300781 C 70.378906 64.328125 70.484375 64.507812 70.515625 64.503906 C 70.726562 64.472656 70.9375 64.410156 71.179688 64.347656 C 71.054688 64.140625 70.972656 64.007812 70.832031 63.777344 M 66.808594 66.03125 C 66.871094 66.128906 66.933594 66.226562 66.996094 66.324219 C 67.324219 66.117188 67.660156 65.917969 67.980469 65.695312 C 68.027344 65.664062 68.039062 65.519531 68.003906 65.460938 C 67.976562 65.402344 67.832031 65.34375 67.792969 65.371094 C 67.457031 65.578125 67.136719 65.808594 66.808594 66.03125 M 70.445312 61.925781 C 70.746094 62.5 71.050781 63.070312 71.398438 63.734375 C 71.5625 63.425781 71.683594 63.195312 71.886719 62.8125 C 71.910156 63.40625 71.933594 63.847656 71.953125 64.339844 C 71.882812 64.25 71.84375 64.175781 71.78125 64.125 C 71.636719 64.003906 71.484375 63.898438 71.335938 63.789062 C 71.335938 63.984375 71.332031 64.179688 71.339844 64.375 C 71.34375 64.445312 71.375 64.511719 71.390625 64.566406 C 70.75 64.996094 70.125 65.425781 69.480469 65.832031 C 69.320312 65.933594 69.097656 65.933594 68.910156 66 C 68.65625 66.089844 68.371094 66.148438 68.160156 66.308594 C 67.355469 66.917969 66.410156 67.164062 65.464844 67.421875 C 64.808594 67.601562 64.445312 67.472656 64.042969 66.929688 C 63.433594 66.109375 63.054688 65.125 62.96875 64.089844 C 62.851562 64.210938 62.757812 64.308594 62.667969 64.402344 C 62.644531 64.390625 62.621094 64.378906 62.597656 64.367188 C 62.789062 63.96875 62.980469 63.570312 63.171875 63.171875 C 63.277344 63.933594 63.367188 64.617188 64.140625 65.113281 L 64.140625 63.621094 C 64.191406 63.617188 64.246094 63.617188 64.296875 63.617188 C 64.296875 63.832031 64.28125 64.050781 64.300781 64.265625 C 64.328125 64.554688 64.324219 64.863281 64.433594 65.121094 C 64.558594 65.421875 64.75 65.832031 64.996094 65.902344 C 65.226562 65.972656 65.597656 65.699219 65.855469 65.507812 C 66.144531 65.296875 66.371094 65.007812 66.628906 64.757812 C 66.867188 64.523438 66.792969 64.234375 66.433594 64.179688 C 66.164062 64.136719 65.875 64.21875 65.589844 64.242188 C 65.601562 64.203125 65.636719 64.117188 65.671875 64.015625 C 65.332031 64.164062 65.003906 64.308594 64.617188 64.480469 C 64.914062 63.617188 66.050781 62.65625 66.625 62.691406 C 66.890625 62.707031 67.015625 62.789062 67.109375 63.074219 C 67.503906 64.261719 67.621094 64.304688 68.839844 63.898438 C 69.25 63.761719 69.652344 63.589844 70.0625 63.441406 C 70.410156 63.3125 70.472656 63.089844 70.351562 62.75 C 70.265625 62.511719 70.242188 62.253906 70.191406 62.003906 C 70.273438 61.976562 70.359375 61.953125 70.445312 61.925781 " fill-opacity="1" fill-rule="nonzero"/><g clip-path="url(#5a0b25925f)"><path fill="#ffffff" d="M 58.25 48.511719 C 58.085938 49.183594 58.660156 49.273438 59.003906 49.457031 C 59.191406 49.292969 59.339844 49.164062 59.476562 49.046875 C 59.277344 48.796875 59.066406 48.535156 58.808594 48.214844 C 58.855469 48.875 58.492188 48.332031 58.25 48.511719 M 57.757812 46.492188 C 57.8125 46.546875 60.183594 45 61.195312 45.390625 C 61.277344 45.46875 58.09375 46.8125 58.175781 46.890625 C 58.652344 47.339844 59.128906 47.792969 59.601562 48.25 C 59.671875 48.316406 59.707031 48.441406 59.71875 48.546875 C 59.769531 48.957031 60.03125 48.980469 60.355469 48.910156 C 60.644531 48.84375 60.9375 48.78125 61.261719 48.761719 C 60.476562 49.140625 59.964844 49.714844 59.789062 50.734375 C 61.261719 49.632812 62.84375 49.746094 64.445312 49.90625 C 64.078125 50.039062 63.492188 49.566406 63.378906 50.335938 C 62.074219 49.582031 61.199219 50.53125 60.261719 51.152344 C 59.921875 51.375 59.664062 51.730469 59.402344 52.054688 C 59.261719 52.226562 59.195312 52.460938 59.050781 52.765625 C 58.628906 52.117188 58.183594 51.484375 57.792969 50.820312 C 57.351562 50.070312 56.972656 49.28125 56.53125 48.535156 C 56.328125 48.191406 56.351562 47.914062 56.601562 47.648438 C 56.957031 47.269531 57.390625 46.894531 57.808594 46.480469 " fill-opacity="1" fill-rule="nonzero"/></g><path fill="#ffffff" d="M 83.5 91.054688 C 83.476562 90.933594 83.484375 90.859375 83.453125 90.800781 C 83.070312 90.101562 81.402344 89.265625 80.636719 89.429688 C 80.433594 89.472656 80.261719 89.664062 80.121094 89.757812 C 81.269531 90.199219 82.351562 90.613281 83.5 91.054688 M 78.898438 87.53125 C 78.785156 87.648438 78.6875 87.722656 78.625 87.820312 C 78.390625 88.183594 78.058594 88.554688 78.332031 89.007812 C 78.558594 89.386719 78.988281 89.351562 79.359375 89.277344 C 79.722656 89.207031 80.074219 89.074219 80.453125 88.960938 C 79.945312 88.496094 79.429688 88.019531 78.898438 87.53125 M 83.496094 92.355469 C 83.695312 91.757812 83.136719 91.03125 82.476562 91.09375 C 82.152344 91.128906 82.039062 91.015625 81.832031 90.789062 C 81.605469 90.546875 81.199219 90.40625 80.851562 90.351562 C 80.542969 90.304688 80.207031 90.425781 79.886719 90.496094 C 79.550781 90.566406 79.226562 90.71875 78.890625 90.738281 C 78.570312 90.753906 78.246094 90.644531 77.777344 90.566406 C 78.253906 90.894531 78.601562 91.128906 79.039062 91.429688 C 78.460938 91.546875 77.960938 91.066406 77.460938 91.65625 C 77.546875 91.109375 77.660156 90.679688 77.679688 90.246094 C 77.714844 89.476562 77.699219 88.703125 77.699219 87.929688 C 77.699219 87.824219 77.609375 87.699219 77.640625 87.617188 C 77.960938 86.824219 78.300781 86.042969 78.714844 85.28125 L 78.3125 86.757812 C 78.332031 86.769531 78.351562 86.78125 78.375 86.792969 C 78.507812 86.574219 78.644531 86.359375 78.789062 86.132812 C 79.363281 87.136719 80.21875 87.796875 81.183594 88.304688 C 81.496094 88.46875 81.917969 88.457031 82.289062 88.457031 C 83.117188 88.449219 83.421875 88.863281 83.136719 89.667969 C 82.925781 89.503906 82.710938 89.34375 82.492188 89.179688 C 82.445312 89.222656 82.398438 89.265625 82.351562 89.304688 C 82.609375 89.617188 82.835938 89.96875 83.136719 90.230469 C 83.546875 90.582031 83.699219 90.988281 83.710938 91.515625 C 83.722656 92.054688 83.828125 92.59375 83.871094 93.136719 C 83.886719 93.34375 83.835938 93.558594 83.8125 93.769531 C 83.8125 93.769531 83.828125 93.773438 83.828125 93.773438 C 83.714844 93.296875 83.601562 92.816406 83.488281 92.339844 Z M 83.496094 92.355469 " fill-opacity="1" fill-rule="nonzero"/><path fill="#ffffff" d="M 63.789062 59.496094 C 64.679688 59.066406 65.566406 58.640625 66.453125 58.214844 C 66.472656 58.25 66.488281 58.28125 66.507812 58.316406 C 65.925781 58.679688 65.359375 59.066406 64.757812 59.394531 C 64.285156 59.65625 64.167969 60.039062 64.566406 60.609375 C 64.96875 61.1875 65.074219 61.773438 64.933594 62.410156 C 64.429688 61.660156 63.9375 60.890625 63.40625 60.144531 C 63.085938 59.6875 62.648438 59.515625 62.070312 59.675781 C 61.917969 59.714844 61.628906 59.5625 61.527344 59.414062 C 61.265625 59.027344 61.019531 58.609375 60.863281 58.171875 C 60.664062 57.632812 60.273438 57.511719 59.78125 57.425781 C 59.535156 57.386719 59.238281 57.238281 59.101562 57.039062 C 58.847656 56.671875 58.65625 56.25 58.519531 55.824219 C 58.457031 55.621094 58.570312 55.164062 58.628906 55.160156 C 58.941406 55.136719 59.371094 55.109375 59.5625 55.292969 C 59.902344 55.621094 60.105469 56.09375 60.355469 56.511719 C 60.75 57.175781 61.136719 57.84375 61.527344 58.511719 C 61.574219 58.484375 61.621094 58.457031 61.671875 58.433594 C 61.429688 57.96875 61.1875 57.507812 60.945312 57.042969 C 60.976562 57.023438 61.007812 57.007812 61.035156 56.988281 C 61.371094 57.511719 61.714844 58.027344 62.027344 58.5625 C 62.164062 58.800781 62.28125 58.933594 62.574219 58.804688 C 62.964844 58.632812 63.371094 58.5 63.765625 58.335938 C 64.5 58.039062 65.222656 57.722656 65.960938 57.441406 C 66.121094 57.378906 66.324219 57.429688 66.507812 57.464844 C 64.808594 57.785156 63.578125 58.675781 63.789062 59.496094 " fill-opacity="1" fill-rule="nonzero"/><path fill="#ffffff" d="M 77.351562 68.523438 C 77.613281 68.300781 77.875 68.074219 78.195312 67.804688 C 76.980469 67.980469 76.105469 68.910156 74.890625 68.847656 C 75.078125 69.070312 75.257812 69.292969 75.429688 69.5 C 73.664062 68.992188 71.160156 67.257812 71.328125 65.941406 C 71.5625 66.050781 71.878906 66.320312 72.082031 66.253906 C 72.277344 66.191406 72.363281 65.78125 72.5 65.523438 C 72.640625 65.246094 72.785156 64.972656 72.925781 64.695312 C 73.011719 64.738281 73.09375 64.78125 73.179688 64.828125 C 73.042969 65.121094 72.953125 65.449219 72.761719 65.703125 C 72.484375 66.074219 72.507812 66.328125 72.863281 66.621094 C 73.851562 67.425781 75.042969 67.863281 76.242188 67.789062 C 77.160156 67.730469 78.050781 67.136719 78.949219 66.769531 C 79.105469 66.707031 79.238281 66.597656 79.472656 66.457031 C 79.148438 67.636719 78.453125 68.292969 77.351562 68.523438 " fill-opacity="1" fill-rule="nonzero"/><path fill="#ffffff" d="M 64.125 52.402344 C 63.882812 52.039062 63.785156 51.816406 63.621094 51.660156 C 63.453125 51.496094 63.203125 51.265625 63.027344 51.292969 C 62.417969 51.398438 61.851562 51.65625 61.5 52.21875 C 61.453125 52.292969 61.382812 52.390625 61.398438 52.460938 C 61.453125 52.738281 61.535156 53.011719 61.621094 53.339844 C 62.390625 53.050781 63.203125 52.746094 64.125 52.402344 M 60.84375 55.601562 C 60.394531 54.78125 59.910156 53.886719 59.410156 52.972656 C 60.410156 51.988281 61.578125 51.34375 62.925781 51.039062 C 63.097656 51 63.386719 51.09375 63.488281 51.226562 C 63.894531 51.757812 64.246094 52.324219 64.703125 53.007812 C 63.945312 52.730469 63.398438 52.941406 62.871094 53.195312 C 62.351562 53.445312 61.839844 53.722656 61.363281 54.046875 C 61.230469 54.136719 60.757812 54.273438 61.15625 54.628906 C 61.175781 54.644531 61.105469 54.753906 61.085938 54.820312 C 61.007812 55.070312 60.929688 55.324219 60.84375 55.601562 " fill-opacity="1" fill-rule="nonzero"/><path fill="#ffffff" d="M 68.011719 59 C 68.101562 59.167969 68.195312 59.335938 68.285156 59.503906 C 68.335938 59.5 68.386719 59.492188 68.4375 59.488281 L 68.4375 58.609375 C 68.609375 58.535156 68.847656 58.429688 69.25 58.257812 C 69.09375 59.207031 68.957031 60.035156 68.820312 60.863281 C 68.871094 60.859375 68.921875 60.855469 68.972656 60.851562 C 68.761719 60.703125 68.554688 60.554688 68.34375 60.410156 C 68.320312 60.5 68.296875 60.59375 68.246094 60.785156 C 67.554688 59.472656 66.617188 58.328125 67.03125 56.769531 C 67.132812 56.386719 67.203125 56.085938 66.738281 55.925781 C 66.6875 55.910156 66.628906 55.792969 66.644531 55.742188 C 66.839844 55.132812 67.050781 54.523438 67.269531 53.921875 C 67.289062 53.875 67.4375 53.882812 67.523438 53.863281 C 67.464844 54.054688 67.355469 54.242188 67.355469 54.433594 C 67.359375 54.648438 67.441406 54.871094 67.523438 55.078125 C 67.542969 55.125 67.714844 55.109375 67.816406 55.121094 C 67.839844 54.917969 67.863281 54.71875 67.886719 54.515625 C 67.890625 54.496094 67.886719 54.476562 67.886719 54.460938 C 68.265625 54.914062 68.621094 55.375 68.589844 56.019531 C 68.464844 55.75 68.339844 55.480469 68.199219 55.171875 C 67.976562 55.535156 67.765625 55.824219 67.617188 56.144531 C 67.558594 56.269531 67.574219 56.519531 67.660156 56.609375 C 68.167969 57.117188 68.203125 57.160156 68.1875 57.949219 C 67.835938 57.617188 67.496094 57.300781 67.128906 56.953125 C 67.003906 57.273438 66.9375 57.59375 67.296875 57.746094 C 67.878906 58 68.023438 58.453125 68.023438 59.015625 C 67.910156 58.828125 67.800781 58.644531 67.6875 58.460938 C 67.628906 58.480469 67.574219 58.503906 67.519531 58.523438 C 67.617188 58.933594 67.71875 59.34375 67.820312 59.75 C 67.882812 59.742188 67.945312 59.734375 68.011719 59.722656 Z M 68.011719 59 " fill-opacity="1" fill-rule="nonzero"/><path fill="#ffffff" d="M 65.632812 55.460938 C 66.039062 55.746094 65.902344 55.949219 65.523438 56.070312 C 64.304688 56.464844 63.171875 57.011719 62.203125 57.859375 C 61.921875 57.367188 61.644531 56.890625 61.367188 56.410156 C 61.640625 56.175781 61.914062 55.957031 62.167969 55.714844 C 62.867188 55.054688 63.753906 54.800781 64.644531 54.546875 C 65.039062 54.429688 65.207031 54.703125 65.378906 54.957031 C 65.488281 55.117188 65.558594 55.304688 65.648438 55.480469 C 65.414062 55.292969 65.179688 55.105469 64.921875 54.898438 C 63.785156 54.761719 63.582031 55.703125 63.167969 56.5625 C 63.976562 56.300781 64.710938 56.078125 65.429688 55.820312 C 65.527344 55.785156 65.566406 55.582031 65.632812 55.460938 " fill-opacity="1" fill-rule="nonzero"/><path fill="#ffffff" d="M 67.746094 69.703125 C 68.003906 69.765625 68.261719 69.828125 68.570312 69.90625 C 68.570312 69.914062 68.519531 70.011719 68.546875 70.070312 C 68.671875 70.320312 69.738281 70.371094 69.882812 70.144531 C 70.136719 69.746094 70.542969 69.738281 70.796875 70.148438 C 70.96875 70.4375 71.09375 70.757812 71.222656 71.03125 C 71.183594 71.179688 71.140625 71.332031 71.101562 71.484375 C 71.273438 71.433594 71.511719 71.441406 71.609375 71.328125 C 71.90625 70.972656 72.152344 70.570312 72.394531 70.226562 C 72.421875 70.707031 71.933594 71.480469 71.4375 71.675781 C 70.804688 71.917969 70.195312 72.089844 69.734375 71.34375 C 69.667969 71.234375 69.378906 71.257812 69.191406 71.234375 C 69.0625 71.214844 68.910156 71.253906 68.804688 71.203125 C 68.476562 71.042969 68.175781 70.832031 67.847656 70.683594 C 67.679688 70.609375 67.472656 70.621094 67.238281 70.589844 C 67.246094 70.511719 67.261719 70.304688 67.277344 70.0625 C 67.554688 70.121094 67.835938 70.183594 68.117188 70.25 C 68.140625 70.207031 68.164062 70.164062 68.1875 70.125 C 68.046875 69.980469 67.90625 69.835938 67.761719 69.691406 C 67.761719 69.691406 67.746094 69.703125 67.746094 69.703125 " fill-opacity="1" fill-rule="nonzero"/><path fill="#ffffff" d="M 88.917969 94.324219 C 88.730469 93.707031 87.242188 93.296875 86.660156 93.671875 C 87.433594 93.894531 88.125 94.09375 88.917969 94.324219 M 89.386719 93.457031 C 89.523438 93.757812 89.660156 94.054688 89.816406 94.402344 C 89.1875 95.257812 87.355469 95.414062 86.5625 94.585938 C 86.460938 94.476562 86.417969 94.261719 86.429688 94.101562 C 86.457031 93.652344 86.527344 93.203125 86.574219 92.808594 C 87.503906 93.023438 88.449219 93.246094 89.398438 93.46875 Z M 89.386719 93.457031 " fill-opacity="1" fill-rule="nonzero"/><path fill="#ffffff" d="M 79.964844 85.710938 C 80.402344 85.816406 80.832031 85.921875 81.433594 86.070312 C 81.214844 85.6875 81.078125 85.445312 80.914062 85.160156 C 81.070312 85.191406 81.199219 85.222656 81.378906 85.261719 C 81.003906 84.722656 80.660156 84.226562 80.320312 83.734375 C 80.351562 83.703125 80.386719 83.675781 80.417969 83.648438 C 81.128906 84.429688 81.582031 85.507812 82.800781 85.726562 C 82.816406 85.585938 82.835938 85.417969 82.855469 85.25 C 82.878906 85.246094 82.902344 85.242188 82.925781 85.238281 C 83.011719 85.714844 83.101562 86.1875 83.167969 86.550781 C 82.910156 86.550781 82.71875 86.53125 82.53125 86.554688 C 82.390625 86.574219 82.257812 86.65625 82.121094 86.699219 C 81.023438 87.042969 80.53125 86.820312 79.964844 85.710938 " fill-opacity="1" fill-rule="nonzero"/><path fill="#ffffff" d="M 80.152344 81.089844 C 81.464844 81.246094 81.65625 82.347656 82.222656 83.074219 C 82.496094 83.425781 82.710938 83.824219 82.910156 84.222656 C 82.980469 84.367188 82.925781 84.574219 82.925781 84.753906 C 82.78125 84.679688 82.589844 84.644531 82.492188 84.527344 C 81.851562 83.777344 81.207031 83.03125 80.621094 82.238281 C 80.398438 81.941406 80.328125 81.535156 80.152344 81.089844 " fill-opacity="1" fill-rule="nonzero"/><path fill="#ffffff" d="M 86.265625 70.308594 C 85.460938 70.097656 84.621094 69.878906 83.667969 69.628906 C 84.023438 69.851562 84.292969 70.015625 84.5625 70.183594 C 84.535156 70.242188 84.507812 70.300781 84.484375 70.363281 C 83.289062 69.875 82.097656 69.390625 80.90625 68.90625 C 80.914062 68.882812 80.921875 68.855469 80.929688 68.832031 C 82.074219 69.0625 83.21875 69.296875 84.359375 69.527344 C 84.375 69.476562 84.386719 69.429688 84.398438 69.378906 C 83.859375 69.203125 83.320312 69.027344 82.816406 68.863281 C 83.902344 68.734375 85.984375 69.648438 86.265625 70.308594 " fill-opacity="1" fill-rule="nonzero"/><path fill="#ffffff" d="M 79.558594 63.554688 C 79.09375 64.339844 78.671875 65.152344 78.148438 65.894531 C 77.582031 66.707031 76.636719 66.789062 75.753906 66.886719 C 75.269531 66.941406 74.414062 66.175781 74.363281 65.777344 C 75.203125 65.929688 76.050781 66.066406 76.890625 66.246094 C 77.316406 66.335938 77.660156 66.246094 77.902344 65.910156 C 78.363281 65.269531 78.789062 64.601562 79.238281 63.953125 C 79.332031 63.8125 79.457031 63.695312 79.570312 63.566406 C 79.570312 63.566406 79.558594 63.554688 79.558594 63.554688 " fill-opacity="1" fill-rule="nonzero"/><path fill="#ffffff" d="M 76.519531 92.359375 C 75.386719 91.71875 74.222656 91.121094 73.125 90.425781 C 72.351562 89.9375 71.667969 89.3125 70.941406 88.746094 C 71.953125 89.3125 72.996094 89.828125 73.96875 90.453125 C 74.859375 91.027344 75.671875 91.71875 76.519531 92.359375 " fill-opacity="1" fill-rule="nonzero"/><path fill="#ffffff" d="M 82.3125 67.132812 C 82.804688 67.425781 83.292969 67.71875 83.785156 68.011719 C 83.753906 68.058594 83.726562 68.109375 83.695312 68.160156 C 82.785156 67.613281 81.871094 67.066406 80.960938 66.519531 C 80.984375 66.46875 81.003906 66.417969 81.027344 66.367188 C 81.902344 66.730469 82.785156 67.066406 83.644531 67.460938 C 84.21875 67.726562 84.753906 68.078125 85.308594 68.390625 C 86.605469 69.121094 87.1875 70.351562 87.59375 71.699219 C 87.628906 71.808594 88.789062 81.554688 88.789062 81.644531 C 88.613281 81.21875 87.257812 71.144531 87.042969 70.710938 C 86.503906 69.632812 85.832031 68.703125 84.632812 68.25 C 84.078125 68.042969 83.585938 67.671875 83.058594 67.386719 C 82.828125 67.261719 82.585938 67.164062 82.347656 67.054688 C 82.335938 67.078125 82.324219 67.105469 82.3125 67.132812 " fill-opacity="1" fill-rule="nonzero"/><path fill="#ffffff" d="M 85.648438 100.699219 C 86.40625 100.335938 87.007812 100.042969 87.621094 99.746094 C 87.664062 99.800781 87.804688 100.046875 87.855469 100.027344 C 88.027344 99.972656 88.238281 99.851562 88.308594 99.699219 C 88.558594 99.164062 88.757812 98.601562 89.011719 98.0625 C 88.941406 98.398438 88.871094 98.738281 88.789062 99.078125 C 88.5 100.285156 87.6875 101.019531 86.429688 101.109375 C 86.191406 101.125 85.929688 100.855469 85.648438 100.699219 " fill-opacity="1" fill-rule="nonzero"/><path fill="#ffffff" d="M 80.675781 70.542969 C 82.625 70.980469 84.152344 71.910156 84.703125 73.988281 C 83.789062 72.339844 82.226562 71.449219 80.675781 70.542969 " fill-opacity="1" fill-rule="nonzero"/><path fill="#ffffff" d="M 87.617188 98.941406 C 87.140625 99.066406 86.804688 99.15625 86.464844 99.246094 C 86.441406 99.195312 86.417969 99.144531 86.394531 99.09375 C 86.558594 98.996094 86.738281 98.914062 86.882812 98.789062 C 87.113281 98.589844 87.320312 98.359375 87.539062 98.140625 C 87.332031 97.945312 87.125 97.746094 86.871094 97.511719 C 86.855469 97.589844 86.851562 97.535156 86.871094 97.523438 C 87.101562 97.371094 87.332031 97.226562 87.566406 97.082031 C 87.726562 97.367188 87.9375 97.636719 88.039062 97.945312 C 88.257812 98.613281 87.796875 98.992188 87.324219 99.339844 C 87.398438 99.238281 87.472656 99.140625 87.617188 98.941406 " fill-opacity="1" fill-rule="nonzero"/><path fill="#ffffff" d="M 68.578125 61.4375 C 67.28125 61.898438 66.054688 62.296875 65.101562 63.320312 C 65.070312 62.429688 67.289062 61.253906 68.578125 61.4375 " fill-opacity="1" fill-rule="nonzero"/><path fill="#ffffff" d="M 72.300781 87.21875 C 73.515625 86.796875 76.59375 88.863281 77.386719 90.8125 C 77.019531 90.308594 76.753906 89.851562 76.394531 89.484375 C 76.019531 89.101562 75.574219 88.777344 75.121094 88.480469 C 74.6875 88.191406 74.21875 87.941406 73.742188 87.730469 C 73.257812 87.515625 72.742188 87.371094 72.300781 87.21875 " fill-opacity="1" fill-rule="nonzero"/><path fill="#ffffff" d="M 69.269531 67.980469 C 70.171875 68.105469 71.15625 68.125 71.867188 68.96875 C 70.917969 68.78125 69.820312 69.082031 69.269531 67.980469 " fill-opacity="1" fill-rule="nonzero"/><path fill="#ffffff" d="M 86.210938 104.605469 C 84.320312 104.742188 82.53125 104.332031 80.789062 103.394531 C 82.621094 103.878906 84.308594 104.769531 86.210938 104.605469 " fill-opacity="1" fill-rule="nonzero"/><path fill="#ffffff" d="M 89.074219 86.40625 C 89.066406 86.25 89.054688 86.09375 89.042969 85.910156 C 88.699219 86.03125 88.390625 86.140625 88.078125 86.25 C 88.046875 86.214844 88.015625 86.175781 87.984375 86.136719 C 88.625 85.855469 89.480469 85.691406 88.867188 84.675781 C 88.652344 84.710938 88.394531 84.753906 88.03125 84.8125 C 88.921875 84.359375 88.917969 84.359375 88.761719 83.375 C 88.730469 83.171875 88.714844 82.964844 88.792969 82.75 C 88.941406 83.96875 89.09375 85.1875 89.242188 86.40625 C 89.1875 86.40625 89.800781 92.429688 89.746094 92.429688 " fill-opacity="1" fill-rule="nonzero"/><path fill="#ffffff" d="M 63.257812 48.96875 C 62.753906 47.960938 62.25 46.953125 61.746094 45.945312 C 61.785156 45.925781 61.824219 45.90625 61.863281 45.886719 C 62.375 46.890625 62.882812 47.894531 63.394531 48.898438 C 63.347656 48.921875 63.304688 48.945312 63.257812 48.96875 " fill-opacity="1" fill-rule="nonzero"/><path fill="#ffffff" d="M 82.640625 83.132812 C 82.871094 82.4375 83.101562 81.742188 83.382812 80.894531 C 83.214844 81.769531 83.347656 82.574219 82.640625 83.132812 " fill-opacity="1" fill-rule="nonzero"/><path fill="#ffffff" d="M 83.4375 79.382812 C 83.4375 80 83.34375 80.582031 82.824219 80.976562 C 82.75 81.035156 82.554688 80.933594 82.375 80.835938 C 83.128906 80.601562 83.253906 79.972656 83.4375 79.382812 " fill-opacity="1" fill-rule="nonzero"/><path fill="#ffffff" d="M 85.695312 97.433594 C 85.871094 96.566406 85.960938 95.664062 86.6875 95.011719 C 86.355469 95.828125 86.023438 96.628906 85.695312 97.433594 " fill-opacity="1" fill-rule="nonzero"/><path fill="#ffffff" d="M 86.070312 103.851562 C 85.992188 103.550781 85.945312 103.363281 85.894531 103.175781 C 85.917969 103.171875 85.9375 103.167969 85.960938 103.160156 C 86.023438 103.441406 86.089844 103.722656 86.171875 104.082031 C 85.625 104.023438 85.136719 103.972656 84.648438 103.921875 C 84.652344 103.871094 84.652344 103.824219 84.65625 103.773438 C 85.101562 103.800781 85.546875 103.824219 86.070312 103.851562 " fill-opacity="1" fill-rule="nonzero"/><path fill="#ffffff" d="M 72.066406 61.792969 C 72.132812 61.679688 72.253906 61.476562 72.433594 61.171875 C 72.597656 61.597656 72.726562 61.941406 72.847656 62.261719 C 72.578125 62.097656 72.339844 61.957031 72.066406 61.792969 " fill-opacity="1" fill-rule="nonzero"/><path fill="#ffffff" d="M 75.09375 85.878906 C 75.5 86.140625 75.910156 86.402344 76.316406 86.660156 C 76.285156 86.710938 76.253906 86.761719 76.222656 86.8125 C 75.808594 86.558594 75.398438 86.304688 74.984375 86.050781 C 75.019531 85.996094 75.058594 85.9375 75.09375 85.878906 " fill-opacity="1" fill-rule="nonzero"/><path fill="#ffffff" d="M 81.066406 104.066406 C 81.695312 104.300781 82.320312 104.535156 82.949219 104.769531 C 82.933594 104.808594 82.921875 104.851562 82.90625 104.890625 C 82.277344 104.660156 81.648438 104.433594 81.015625 104.203125 C 81.035156 104.15625 81.050781 104.113281 81.066406 104.066406 " fill-opacity="1" fill-rule="nonzero"/><path fill="#ffffff" d="M 89.398438 93.46875 C 89.59375 92.683594 89.101562 92.160156 88.605469 91.554688 C 89.378906 92.003906 89.714844 92.902344 89.386719 93.457031 C 89.386719 93.457031 89.398438 93.46875 89.398438 93.46875 " fill-opacity="1" fill-rule="nonzero"/><path fill="#ffffff" d="M 85.339844 102.890625 C 85.253906 102.75 85.183594 102.636719 85.09375 102.488281 C 85.195312 102.386719 85.304688 102.28125 85.339844 102.246094 C 85.515625 102.382812 85.644531 102.484375 85.800781 102.609375 C 85.667969 102.691406 85.496094 102.792969 85.339844 102.890625 " fill-opacity="1" fill-rule="nonzero"/><path fill="#ffffff" d="M 73.238281 95.898438 C 72.808594 96.761719 72.347656 97.589844 71.261719 97.816406 C 71.523438 97.527344 71.777344 97.242188 72.03125 96.957031 C 72.042969 96.945312 72.058594 96.925781 72.085938 96.898438 C 72.476562 96.570312 72.863281 96.242188 73.25 95.914062 Z M 73.238281 95.898438 " fill-opacity="1" fill-rule="nonzero"/><path fill="#ffffff" d="M 61.117188 75.214844 C 61.832031 74.632812 62.546875 74.046875 63.261719 73.464844 C 62.621094 74.140625 62.171875 75.050781 61.105469 75.203125 C 61.105469 75.203125 61.117188 75.214844 61.117188 75.214844 " fill-opacity="1" fill-rule="nonzero"/><path fill="#ffffff" d="M 83.417969 96.15625 L 81.332031 96.15625 C 81.910156 95.941406 82.628906 95.675781 83.417969 95.382812 Z M 83.417969 96.15625 " fill-opacity="1" fill-rule="nonzero"/></svg>